M48
; DRILL file {KiCad 9.0.0} date 2025-07-02T18:07:02-0600
; FORMAT={-:-/ absolute / inch / decimal}
; #@! TF.CreationDate,2025-07-02T18:07:02-06:00
; #@! TF.GenerationSoftware,Kicad,Pcbnew,9.0.0
; #@! TF.FileFunction,Plated,1,2,PTH
FMAT,2
INCH
; #@! TA.AperFunction,Plated,PTH,ViaDrill
T1C0.0118
; #@! TA.AperFunction,Plated,PTH,ComponentDrill
T2C0.0295
; #@! TA.AperFunction,Plated,PTH,ComponentDrill
T3C0.0315
; #@! TA.AperFunction,Plated,PTH,ComponentDrill
T4C0.0354
; #@! TA.AperFunction,Plated,PTH,ComponentDrill
T5C0.0394
; #@! TA.AperFunction,Plated,PTH,ComponentDrill
T6C0.0402
; #@! TA.AperFunction,Plated,PTH,ComponentDrill
T7C0.0433
; #@! TA.AperFunction,Plated,PTH,ComponentDrill
T8C0.0512
; #@! TA.AperFunction,Plated,PTH,ComponentDrill
T9C0.0591
; #@! TA.AperFunction,Plated,PTH,ComponentDrill
T10C0.0598
%
G90
G05
T1
X4.221Y-4.9247
T2
X5.4803Y-5.2756
X5.4803Y-5.3543
X5.4803Y-5.4331
X5.4803Y-5.5118
T3
X2.2736Y-5.1335
X2.2736Y-5.4335
X2.4213Y-5.2362
X2.4213Y-5.4331
X3.3701Y-5.2283
X3.3701Y-5.4252
X3.5354Y-5.1256
X3.5354Y-5.4256
X3.5354Y-5.6024
X3.5354Y-5.7992
X3.6689Y-5.1811
X3.6846Y-3.622
X3.6846Y-3.7638
X3.6925Y-4.126
X3.6925Y-4.2677
X3.6984Y-4.6555
X3.7Y-4.7953
X3.9689Y-5.1811
X3.9846Y-3.622
X3.9846Y-3.7638
X3.9925Y-4.126
X3.9925Y-4.2677
X3.9984Y-4.6555
X4.0Y-4.7953
X4.0984Y-5.1732
X4.2827Y-2.7957
X4.2827Y-2.7957
X4.2827Y-2.9925
X4.2839Y-2.5051
X4.2839Y-2.702
X4.2953Y-5.1732
X4.3819Y-5.7776
X4.4094Y-5.3539
X4.4094Y-5.6539
X4.5591Y-5.3539
X4.5591Y-5.6539
X4.5787Y-5.7776
X5.4724Y-4.3972
X5.4724Y-4.6972
X5.4724Y-4.7984
X5.4724Y-5.0984
T4
X3.6846Y-3.9134
X3.6925Y-4.4094
X3.7004Y-4.937
X3.9846Y-3.9134
X3.9925Y-4.4094
X4.0004Y-4.937
T5
X2.718Y-2.8656
X2.718Y-3.1019
X3.6831Y-5.4764
X3.6831Y-5.6732
X4.0408Y-2.6294
X4.0408Y-3.3381
X4.2539Y-5.4764
X4.2539Y-5.5748
X4.2539Y-5.6732
X4.2795Y-3.112
X4.2795Y-3.212
X5.5293Y-2.9014
X5.5293Y-3.0014
X5.5293Y-3.1014
X5.5293Y-3.2014
X5.5293Y-3.3014
X5.5293Y-3.4014
X5.5293Y-3.5014
X5.5293Y-3.6014
X5.5293Y-3.7014
X5.5293Y-3.8014
X5.5293Y-3.9014
X5.5293Y-4.0014
X5.5293Y-4.1014
X5.5293Y-4.2014
T6
X4.4291Y-2.8118
X4.4291Y-2.9118
X4.4291Y-3.0118
X4.4291Y-3.1118
X4.4291Y-3.2118
X4.4291Y-3.3118
X4.4291Y-3.4118
X4.4291Y-3.5118
X4.4291Y-3.6118
X4.4291Y-3.7118
X4.4291Y-3.8118
X4.4291Y-3.9118
X4.4291Y-4.0118
X4.4291Y-4.1118
X4.4291Y-4.2118
X4.4291Y-4.3118
X4.4291Y-4.4118
X4.4291Y-4.5118
X4.4291Y-4.6118
X4.4291Y-4.7118
X4.4291Y-4.8118
X4.4291Y-4.9118
X5.3291Y-2.8118
X5.3291Y-2.9118
X5.3291Y-3.0118
X5.3291Y-3.1118
X5.3291Y-3.2118
X5.3291Y-3.3118
X5.3291Y-3.4118
X5.3291Y-3.5118
X5.3291Y-3.6118
X5.3291Y-3.7118
X5.3291Y-3.8118
X5.3291Y-3.9118
X5.3291Y-4.0118
X5.3291Y-4.1118
X5.3291Y-4.2118
X5.3291Y-4.3118
X5.3291Y-4.4118
X5.3291Y-4.5118
X5.3291Y-4.6118
X5.3291Y-4.7118
X5.3291Y-4.8118
X5.3291Y-4.9118
T7
X3.4864Y-4.6929
X3.4864Y-4.7929
X3.4864Y-4.8929
X3.4882Y-3.678
X3.4882Y-3.778
X3.4882Y-3.878
X3.4882Y-4.1732
X3.4882Y-4.2732
X3.4882Y-4.3732
T8
X2.6268Y-3.622
X2.6268Y-4.1319
X2.6268Y-4.6437
X2.7268Y-3.922
X2.7268Y-4.4319
X2.7268Y-4.9437
X2.9268Y-3.622
X2.9268Y-4.1319
X2.9268Y-4.6437
X3.3268Y-3.622
X3.3268Y-3.922
X3.3268Y-4.1319
X3.3268Y-4.4319
X3.3268Y-4.6437
X3.3268Y-4.9437
T10
X2.3622Y-4.1717
X2.3622Y-4.3717
X2.3701Y-4.6976
X2.3701Y-4.8976
X2.372Y-3.6681
X2.372Y-3.8681
X2.3819Y-2.9496
X2.3819Y-3.1496
T5
G00X2.6339Y-5.311
M15
G01X2.5945Y-5.311
M16
G05
G00X2.6339Y-5.5276
M15
G01X2.5945Y-5.5276
M16
G05
G00X2.7126Y-5.1654
M15
G01X2.6732Y-5.1654
M16
G05
G00X2.7126Y-5.3819
M15
G01X2.6732Y-5.3819
M16
G05
G00X2.7126Y-5.622
M15
G01X2.6732Y-5.622
M16
G05
G00X3.0374Y-5.311
M15
G01X2.998Y-5.311
M16
G05
G00X3.0374Y-5.5276
M15
G01X2.998Y-5.5276
M16
G05
G00X3.1161Y-5.1654
M15
G01X3.0768Y-5.1654
M16
G05
G00X3.1161Y-5.3819
M15
G01X3.0768Y-5.3819
M16
G05
G00X3.1161Y-5.622
M15
G01X3.0768Y-5.622
M16
G05
T9
G00X3.9843Y-5.3543
M15
G01X3.9331Y-5.3543
M16
G05
G00X3.9843Y-5.7953
M15
G01X3.9331Y-5.7953
M16
G05
M30
