%TF.GenerationSoftware,KiCad,Pcbnew,9.0.0*%
%TF.CreationDate,2025-07-02T18:07:02-06:00*%
%TF.ProjectId,CyberSmoker_PCB_v2,43796265-7253-46d6-9f6b-65725f504342,rev?*%
%TF.SameCoordinates,Original*%
%TF.FileFunction,Legend,Top*%
%TF.FilePolarity,Positive*%
%FSLAX46Y46*%
G04 Gerber Fmt 4.6, Leading zero omitted, Abs format (unit mm)*
G04 Created by KiCad (PCBNEW 9.0.0) date 2025-07-02 18:07:02*
%MOMM*%
%LPD*%
G01*
G04 APERTURE LIST*
G04 Aperture macros list*
%AMRoundRect*
0 Rectangle with rounded corners*
0 $1 Rounding radius*
0 $2 $3 $4 $5 $6 $7 $8 $9 X,Y pos of 4 corners*
0 Add a 4 corners polygon primitive as box body*
4,1,4,$2,$3,$4,$5,$6,$7,$8,$9,$2,$3,0*
0 Add four circle primitives for the rounded corners*
1,1,$1+$1,$2,$3*
1,1,$1+$1,$4,$5*
1,1,$1+$1,$6,$7*
1,1,$1+$1,$8,$9*
0 Add four rect primitives between the rounded corners*
20,1,$1+$1,$2,$3,$4,$5,0*
20,1,$1+$1,$4,$5,$6,$7,0*
20,1,$1+$1,$6,$7,$8,$9,0*
20,1,$1+$1,$8,$9,$2,$3,0*%
G04 Aperture macros list end*
%ADD10C,0.500000*%
%ADD11C,0.150000*%
%ADD12C,0.120000*%
%ADD13C,0.200000*%
%ADD14C,0.127000*%
%ADD15C,0.000000*%
%ADD16C,1.600000*%
%ADD17R,2.000000X2.000000*%
%ADD18C,2.000000*%
%ADD19R,3.200000X2.000000*%
%ADD20O,1.700000X1.700000*%
%ADD21R,1.700000X1.700000*%
%ADD22C,1.734000*%
%ADD23RoundRect,0.102000X-0.765000X-0.765000X0.765000X-0.765000X0.765000X0.765000X-0.765000X0.765000X0*%
%ADD24O,1.600000X1.600000*%
%ADD25R,1.800000X1.800000*%
%ADD26O,1.800000X1.800000*%
%ADD27R,3.000000X3.000000*%
%ADD28C,3.000000*%
%ADD29R,2.300000X2.300000*%
%ADD30C,2.300000*%
%ADD31R,2.000000X1.905000*%
%ADD32O,2.000000X1.905000*%
%ADD33O,2.800000X1.800000*%
%ADD34C,3.200000*%
%ADD35R,1.700000X2.000000*%
%ADD36O,1.700000X2.000000*%
%ADD37O,1.750000X1.200000*%
%ADD38RoundRect,0.250000X0.625000X-0.350000X0.625000X0.350000X-0.625000X0.350000X-0.625000X-0.350000X0*%
G04 APERTURE END LIST*
D10*
X56200000Y-62100000D02*
X61700000Y-62100000D01*
X63700000Y-62100000D02*
X64200000Y-62100000D01*
X64200000Y-62100000D02*
X64200000Y-67600000D01*
X64200000Y-69600000D02*
X64200000Y-75100000D01*
X64200000Y-77100000D02*
X64200000Y-82600000D01*
X64200000Y-84600000D02*
X64200000Y-90100000D01*
X64200000Y-92100000D02*
X64200000Y-97600000D01*
X64200000Y-99600000D02*
X64200000Y-105100000D01*
X64200000Y-107100000D02*
X64200000Y-112600000D01*
X64200000Y-114600000D02*
X64200000Y-120100000D01*
X64200000Y-122100000D02*
X64200000Y-127600000D01*
X64200000Y-129100000D02*
X58700000Y-129100000D01*
X56700000Y-129100000D02*
X56200000Y-129100000D01*
X56200000Y-129100000D02*
X56200000Y-123600000D01*
X56200000Y-121600000D02*
X56200000Y-116100000D01*
X56200000Y-114100000D02*
X56200000Y-108600000D01*
X56200000Y-106600000D02*
X56200000Y-101100000D01*
X56200000Y-99100000D02*
X56200000Y-93600000D01*
X56200000Y-91600000D02*
X56200000Y-86100000D01*
X56200000Y-84100000D02*
X56200000Y-78600000D01*
X56200000Y-76600000D02*
X56200000Y-71100000D01*
X56200000Y-69100000D02*
X56200000Y-63600000D01*
D11*
X131444692Y-145855238D02*
X131492312Y-145902857D01*
X131492312Y-145902857D02*
X131539931Y-146045714D01*
X131539931Y-146045714D02*
X131539931Y-146140952D01*
X131539931Y-146140952D02*
X131492312Y-146283809D01*
X131492312Y-146283809D02*
X131397073Y-146379047D01*
X131397073Y-146379047D02*
X131301835Y-146426666D01*
X131301835Y-146426666D02*
X131111359Y-146474285D01*
X131111359Y-146474285D02*
X130968502Y-146474285D01*
X130968502Y-146474285D02*
X130778026Y-146426666D01*
X130778026Y-146426666D02*
X130682788Y-146379047D01*
X130682788Y-146379047D02*
X130587550Y-146283809D01*
X130587550Y-146283809D02*
X130539931Y-146140952D01*
X130539931Y-146140952D02*
X130539931Y-146045714D01*
X130539931Y-146045714D02*
X130587550Y-145902857D01*
X130587550Y-145902857D02*
X130635169Y-145855238D01*
X131063740Y-145236190D02*
X131539931Y-145236190D01*
X130539931Y-145569523D02*
X131063740Y-145236190D01*
X131063740Y-145236190D02*
X130539931Y-144902857D01*
X131016121Y-144236190D02*
X131063740Y-144093333D01*
X131063740Y-144093333D02*
X131111359Y-144045714D01*
X131111359Y-144045714D02*
X131206597Y-143998095D01*
X131206597Y-143998095D02*
X131349454Y-143998095D01*
X131349454Y-143998095D02*
X131444692Y-144045714D01*
X131444692Y-144045714D02*
X131492312Y-144093333D01*
X131492312Y-144093333D02*
X131539931Y-144188571D01*
X131539931Y-144188571D02*
X131539931Y-144569523D01*
X131539931Y-144569523D02*
X130539931Y-144569523D01*
X130539931Y-144569523D02*
X130539931Y-144236190D01*
X130539931Y-144236190D02*
X130587550Y-144140952D01*
X130587550Y-144140952D02*
X130635169Y-144093333D01*
X130635169Y-144093333D02*
X130730407Y-144045714D01*
X130730407Y-144045714D02*
X130825645Y-144045714D01*
X130825645Y-144045714D02*
X130920883Y-144093333D01*
X130920883Y-144093333D02*
X130968502Y-144140952D01*
X130968502Y-144140952D02*
X131016121Y-144236190D01*
X131016121Y-144236190D02*
X131016121Y-144569523D01*
X131016121Y-143569523D02*
X131016121Y-143236190D01*
X131539931Y-143093333D02*
X131539931Y-143569523D01*
X131539931Y-143569523D02*
X130539931Y-143569523D01*
X130539931Y-143569523D02*
X130539931Y-143093333D01*
X131539931Y-142093333D02*
X131063740Y-142426666D01*
X131539931Y-142664761D02*
X130539931Y-142664761D01*
X130539931Y-142664761D02*
X130539931Y-142283809D01*
X130539931Y-142283809D02*
X130587550Y-142188571D01*
X130587550Y-142188571D02*
X130635169Y-142140952D01*
X130635169Y-142140952D02*
X130730407Y-142093333D01*
X130730407Y-142093333D02*
X130873264Y-142093333D01*
X130873264Y-142093333D02*
X130968502Y-142140952D01*
X130968502Y-142140952D02*
X131016121Y-142188571D01*
X131016121Y-142188571D02*
X131063740Y-142283809D01*
X131063740Y-142283809D02*
X131063740Y-142664761D01*
X131492312Y-141712380D02*
X131539931Y-141569523D01*
X131539931Y-141569523D02*
X131539931Y-141331428D01*
X131539931Y-141331428D02*
X131492312Y-141236190D01*
X131492312Y-141236190D02*
X131444692Y-141188571D01*
X131444692Y-141188571D02*
X131349454Y-141140952D01*
X131349454Y-141140952D02*
X131254216Y-141140952D01*
X131254216Y-141140952D02*
X131158978Y-141188571D01*
X131158978Y-141188571D02*
X131111359Y-141236190D01*
X131111359Y-141236190D02*
X131063740Y-141331428D01*
X131063740Y-141331428D02*
X131016121Y-141521904D01*
X131016121Y-141521904D02*
X130968502Y-141617142D01*
X130968502Y-141617142D02*
X130920883Y-141664761D01*
X130920883Y-141664761D02*
X130825645Y-141712380D01*
X130825645Y-141712380D02*
X130730407Y-141712380D01*
X130730407Y-141712380D02*
X130635169Y-141664761D01*
X130635169Y-141664761D02*
X130587550Y-141617142D01*
X130587550Y-141617142D02*
X130539931Y-141521904D01*
X130539931Y-141521904D02*
X130539931Y-141283809D01*
X130539931Y-141283809D02*
X130587550Y-141140952D01*
X131539931Y-140712380D02*
X130539931Y-140712380D01*
X130539931Y-140712380D02*
X131254216Y-140379047D01*
X131254216Y-140379047D02*
X130539931Y-140045714D01*
X130539931Y-140045714D02*
X131539931Y-140045714D01*
X130539931Y-139379047D02*
X130539931Y-139188571D01*
X130539931Y-139188571D02*
X130587550Y-139093333D01*
X130587550Y-139093333D02*
X130682788Y-138998095D01*
X130682788Y-138998095D02*
X130873264Y-138950476D01*
X130873264Y-138950476D02*
X131206597Y-138950476D01*
X131206597Y-138950476D02*
X131397073Y-138998095D01*
X131397073Y-138998095D02*
X131492312Y-139093333D01*
X131492312Y-139093333D02*
X131539931Y-139188571D01*
X131539931Y-139188571D02*
X131539931Y-139379047D01*
X131539931Y-139379047D02*
X131492312Y-139474285D01*
X131492312Y-139474285D02*
X131397073Y-139569523D01*
X131397073Y-139569523D02*
X131206597Y-139617142D01*
X131206597Y-139617142D02*
X130873264Y-139617142D01*
X130873264Y-139617142D02*
X130682788Y-139569523D01*
X130682788Y-139569523D02*
X130587550Y-139474285D01*
X130587550Y-139474285D02*
X130539931Y-139379047D01*
X131539931Y-138521904D02*
X130539931Y-138521904D01*
X131539931Y-137950476D02*
X130968502Y-138379047D01*
X130539931Y-137950476D02*
X131111359Y-138521904D01*
X131016121Y-137521904D02*
X131016121Y-137188571D01*
X131539931Y-137045714D02*
X131539931Y-137521904D01*
X131539931Y-137521904D02*
X130539931Y-137521904D01*
X130539931Y-137521904D02*
X130539931Y-137045714D01*
X131539931Y-136045714D02*
X131063740Y-136379047D01*
X131539931Y-136617142D02*
X130539931Y-136617142D01*
X130539931Y-136617142D02*
X130539931Y-136236190D01*
X130539931Y-136236190D02*
X130587550Y-136140952D01*
X130587550Y-136140952D02*
X130635169Y-136093333D01*
X130635169Y-136093333D02*
X130730407Y-136045714D01*
X130730407Y-136045714D02*
X130873264Y-136045714D01*
X130873264Y-136045714D02*
X130968502Y-136093333D01*
X130968502Y-136093333D02*
X131016121Y-136140952D01*
X131016121Y-136140952D02*
X131063740Y-136236190D01*
X131063740Y-136236190D02*
X131063740Y-136617142D01*
X132149875Y-145450475D02*
X133149875Y-145117142D01*
X133149875Y-145117142D02*
X132149875Y-144783809D01*
X133102256Y-144069523D02*
X133149875Y-144164761D01*
X133149875Y-144164761D02*
X133149875Y-144355237D01*
X133149875Y-144355237D02*
X133102256Y-144450475D01*
X133102256Y-144450475D02*
X133007017Y-144498094D01*
X133007017Y-144498094D02*
X132626065Y-144498094D01*
X132626065Y-144498094D02*
X132530827Y-144450475D01*
X132530827Y-144450475D02*
X132483208Y-144355237D01*
X132483208Y-144355237D02*
X132483208Y-144164761D01*
X132483208Y-144164761D02*
X132530827Y-144069523D01*
X132530827Y-144069523D02*
X132626065Y-144021904D01*
X132626065Y-144021904D02*
X132721303Y-144021904D01*
X132721303Y-144021904D02*
X132816541Y-144498094D01*
X133149875Y-143593332D02*
X132483208Y-143593332D01*
X132673684Y-143593332D02*
X132578446Y-143545713D01*
X132578446Y-143545713D02*
X132530827Y-143498094D01*
X132530827Y-143498094D02*
X132483208Y-143402856D01*
X132483208Y-143402856D02*
X132483208Y-143307618D01*
X133102256Y-143021903D02*
X133149875Y-142926665D01*
X133149875Y-142926665D02*
X133149875Y-142736189D01*
X133149875Y-142736189D02*
X133102256Y-142640951D01*
X133102256Y-142640951D02*
X133007017Y-142593332D01*
X133007017Y-142593332D02*
X132959398Y-142593332D01*
X132959398Y-142593332D02*
X132864160Y-142640951D01*
X132864160Y-142640951D02*
X132816541Y-142736189D01*
X132816541Y-142736189D02*
X132816541Y-142879046D01*
X132816541Y-142879046D02*
X132768922Y-142974284D01*
X132768922Y-142974284D02*
X132673684Y-143021903D01*
X132673684Y-143021903D02*
X132626065Y-143021903D01*
X132626065Y-143021903D02*
X132530827Y-142974284D01*
X132530827Y-142974284D02*
X132483208Y-142879046D01*
X132483208Y-142879046D02*
X132483208Y-142736189D01*
X132483208Y-142736189D02*
X132530827Y-142640951D01*
X133149875Y-142164760D02*
X132483208Y-142164760D01*
X132149875Y-142164760D02*
X132197494Y-142212379D01*
X132197494Y-142212379D02*
X132245113Y-142164760D01*
X132245113Y-142164760D02*
X132197494Y-142117141D01*
X132197494Y-142117141D02*
X132149875Y-142164760D01*
X132149875Y-142164760D02*
X132245113Y-142164760D01*
X133149875Y-141545713D02*
X133102256Y-141640951D01*
X133102256Y-141640951D02*
X133054636Y-141688570D01*
X133054636Y-141688570D02*
X132959398Y-141736189D01*
X132959398Y-141736189D02*
X132673684Y-141736189D01*
X132673684Y-141736189D02*
X132578446Y-141688570D01*
X132578446Y-141688570D02*
X132530827Y-141640951D01*
X132530827Y-141640951D02*
X132483208Y-141545713D01*
X132483208Y-141545713D02*
X132483208Y-141402856D01*
X132483208Y-141402856D02*
X132530827Y-141307618D01*
X132530827Y-141307618D02*
X132578446Y-141259999D01*
X132578446Y-141259999D02*
X132673684Y-141212380D01*
X132673684Y-141212380D02*
X132959398Y-141212380D01*
X132959398Y-141212380D02*
X133054636Y-141259999D01*
X133054636Y-141259999D02*
X133102256Y-141307618D01*
X133102256Y-141307618D02*
X133149875Y-141402856D01*
X133149875Y-141402856D02*
X133149875Y-141545713D01*
X132483208Y-140783808D02*
X133149875Y-140783808D01*
X132578446Y-140783808D02*
X132530827Y-140736189D01*
X132530827Y-140736189D02*
X132483208Y-140640951D01*
X132483208Y-140640951D02*
X132483208Y-140498094D01*
X132483208Y-140498094D02*
X132530827Y-140402856D01*
X132530827Y-140402856D02*
X132626065Y-140355237D01*
X132626065Y-140355237D02*
X133149875Y-140355237D01*
X132245113Y-139164760D02*
X132197494Y-139117141D01*
X132197494Y-139117141D02*
X132149875Y-139021903D01*
X132149875Y-139021903D02*
X132149875Y-138783808D01*
X132149875Y-138783808D02*
X132197494Y-138688570D01*
X132197494Y-138688570D02*
X132245113Y-138640951D01*
X132245113Y-138640951D02*
X132340351Y-138593332D01*
X132340351Y-138593332D02*
X132435589Y-138593332D01*
X132435589Y-138593332D02*
X132578446Y-138640951D01*
X132578446Y-138640951D02*
X133149875Y-139212379D01*
X133149875Y-139212379D02*
X133149875Y-138593332D01*
X133054636Y-138164760D02*
X133102256Y-138117141D01*
X133102256Y-138117141D02*
X133149875Y-138164760D01*
X133149875Y-138164760D02*
X133102256Y-138212379D01*
X133102256Y-138212379D02*
X133054636Y-138164760D01*
X133054636Y-138164760D02*
X133149875Y-138164760D01*
X132149875Y-137498094D02*
X132149875Y-137402856D01*
X132149875Y-137402856D02*
X132197494Y-137307618D01*
X132197494Y-137307618D02*
X132245113Y-137259999D01*
X132245113Y-137259999D02*
X132340351Y-137212380D01*
X132340351Y-137212380D02*
X132530827Y-137164761D01*
X132530827Y-137164761D02*
X132768922Y-137164761D01*
X132768922Y-137164761D02*
X132959398Y-137212380D01*
X132959398Y-137212380D02*
X133054636Y-137259999D01*
X133054636Y-137259999D02*
X133102256Y-137307618D01*
X133102256Y-137307618D02*
X133149875Y-137402856D01*
X133149875Y-137402856D02*
X133149875Y-137498094D01*
X133149875Y-137498094D02*
X133102256Y-137593332D01*
X133102256Y-137593332D02*
X133054636Y-137640951D01*
X133054636Y-137640951D02*
X132959398Y-137688570D01*
X132959398Y-137688570D02*
X132768922Y-137736189D01*
X132768922Y-137736189D02*
X132530827Y-137736189D01*
X132530827Y-137736189D02*
X132340351Y-137688570D01*
X132340351Y-137688570D02*
X132245113Y-137640951D01*
X132245113Y-137640951D02*
X132197494Y-137593332D01*
X132197494Y-137593332D02*
X132149875Y-137498094D01*
X134664580Y-144950476D02*
X134712200Y-144998095D01*
X134712200Y-144998095D02*
X134759819Y-145140952D01*
X134759819Y-145140952D02*
X134759819Y-145236190D01*
X134759819Y-145236190D02*
X134712200Y-145379047D01*
X134712200Y-145379047D02*
X134616961Y-145474285D01*
X134616961Y-145474285D02*
X134521723Y-145521904D01*
X134521723Y-145521904D02*
X134331247Y-145569523D01*
X134331247Y-145569523D02*
X134188390Y-145569523D01*
X134188390Y-145569523D02*
X133997914Y-145521904D01*
X133997914Y-145521904D02*
X133902676Y-145474285D01*
X133902676Y-145474285D02*
X133807438Y-145379047D01*
X133807438Y-145379047D02*
X133759819Y-145236190D01*
X133759819Y-145236190D02*
X133759819Y-145140952D01*
X133759819Y-145140952D02*
X133807438Y-144998095D01*
X133807438Y-144998095D02*
X133855057Y-144950476D01*
X134474104Y-144569523D02*
X134474104Y-144093333D01*
X134759819Y-144664761D02*
X133759819Y-144331428D01*
X133759819Y-144331428D02*
X134759819Y-143998095D01*
X134236009Y-143664761D02*
X134236009Y-143331428D01*
X134759819Y-143188571D02*
X134759819Y-143664761D01*
X134759819Y-143664761D02*
X133759819Y-143664761D01*
X133759819Y-143664761D02*
X133759819Y-143188571D01*
X134759819Y-142283809D02*
X134759819Y-142759999D01*
X134759819Y-142759999D02*
X133759819Y-142759999D01*
X134236009Y-140855237D02*
X134283628Y-140712380D01*
X134283628Y-140712380D02*
X134331247Y-140664761D01*
X134331247Y-140664761D02*
X134426485Y-140617142D01*
X134426485Y-140617142D02*
X134569342Y-140617142D01*
X134569342Y-140617142D02*
X134664580Y-140664761D01*
X134664580Y-140664761D02*
X134712200Y-140712380D01*
X134712200Y-140712380D02*
X134759819Y-140807618D01*
X134759819Y-140807618D02*
X134759819Y-141188570D01*
X134759819Y-141188570D02*
X133759819Y-141188570D01*
X133759819Y-141188570D02*
X133759819Y-140855237D01*
X133759819Y-140855237D02*
X133807438Y-140759999D01*
X133807438Y-140759999D02*
X133855057Y-140712380D01*
X133855057Y-140712380D02*
X133950295Y-140664761D01*
X133950295Y-140664761D02*
X134045533Y-140664761D01*
X134045533Y-140664761D02*
X134140771Y-140712380D01*
X134140771Y-140712380D02*
X134188390Y-140759999D01*
X134188390Y-140759999D02*
X134236009Y-140855237D01*
X134236009Y-140855237D02*
X134236009Y-141188570D01*
X134759819Y-139712380D02*
X134759819Y-140188570D01*
X134759819Y-140188570D02*
X133759819Y-140188570D01*
X134474104Y-139426665D02*
X134474104Y-138950475D01*
X134759819Y-139521903D02*
X133759819Y-139188570D01*
X133759819Y-139188570D02*
X134759819Y-138855237D01*
X134664580Y-137950475D02*
X134712200Y-137998094D01*
X134712200Y-137998094D02*
X134759819Y-138140951D01*
X134759819Y-138140951D02*
X134759819Y-138236189D01*
X134759819Y-138236189D02*
X134712200Y-138379046D01*
X134712200Y-138379046D02*
X134616961Y-138474284D01*
X134616961Y-138474284D02*
X134521723Y-138521903D01*
X134521723Y-138521903D02*
X134331247Y-138569522D01*
X134331247Y-138569522D02*
X134188390Y-138569522D01*
X134188390Y-138569522D02*
X133997914Y-138521903D01*
X133997914Y-138521903D02*
X133902676Y-138474284D01*
X133902676Y-138474284D02*
X133807438Y-138379046D01*
X133807438Y-138379046D02*
X133759819Y-138236189D01*
X133759819Y-138236189D02*
X133759819Y-138140951D01*
X133759819Y-138140951D02*
X133807438Y-137998094D01*
X133807438Y-137998094D02*
X133855057Y-137950475D01*
X134759819Y-137521903D02*
X133759819Y-137521903D01*
X134759819Y-136950475D02*
X134188390Y-137379046D01*
X133759819Y-136950475D02*
X134331247Y-137521903D01*
X58176191Y-83930430D02*
X58176191Y-83130430D01*
X58176191Y-83130430D02*
X58366667Y-83130430D01*
X58366667Y-83130430D02*
X58480953Y-83168525D01*
X58480953Y-83168525D02*
X58557143Y-83244715D01*
X58557143Y-83244715D02*
X58595238Y-83320906D01*
X58595238Y-83320906D02*
X58633334Y-83473287D01*
X58633334Y-83473287D02*
X58633334Y-83587573D01*
X58633334Y-83587573D02*
X58595238Y-83739954D01*
X58595238Y-83739954D02*
X58557143Y-83816144D01*
X58557143Y-83816144D02*
X58480953Y-83892335D01*
X58480953Y-83892335D02*
X58366667Y-83930430D01*
X58366667Y-83930430D02*
X58176191Y-83930430D01*
X58938095Y-83701858D02*
X59319048Y-83701858D01*
X58861905Y-83930430D02*
X59128572Y-83130430D01*
X59128572Y-83130430D02*
X59395238Y-83930430D01*
X59661905Y-83930430D02*
X59661905Y-83130430D01*
X59661905Y-83130430D02*
X60119048Y-83930430D01*
X60119048Y-83930430D02*
X60119048Y-83130430D01*
X60919047Y-83168525D02*
X60842857Y-83130430D01*
X60842857Y-83130430D02*
X60728571Y-83130430D01*
X60728571Y-83130430D02*
X60614285Y-83168525D01*
X60614285Y-83168525D02*
X60538095Y-83244715D01*
X60538095Y-83244715D02*
X60500000Y-83320906D01*
X60500000Y-83320906D02*
X60461904Y-83473287D01*
X60461904Y-83473287D02*
X60461904Y-83587573D01*
X60461904Y-83587573D02*
X60500000Y-83739954D01*
X60500000Y-83739954D02*
X60538095Y-83816144D01*
X60538095Y-83816144D02*
X60614285Y-83892335D01*
X60614285Y-83892335D02*
X60728571Y-83930430D01*
X60728571Y-83930430D02*
X60804762Y-83930430D01*
X60804762Y-83930430D02*
X60919047Y-83892335D01*
X60919047Y-83892335D02*
X60957143Y-83854239D01*
X60957143Y-83854239D02*
X60957143Y-83587573D01*
X60957143Y-83587573D02*
X60804762Y-83587573D01*
X61300000Y-83511382D02*
X61566666Y-83511382D01*
X61680952Y-83930430D02*
X61300000Y-83930430D01*
X61300000Y-83930430D02*
X61300000Y-83130430D01*
X61300000Y-83130430D02*
X61680952Y-83130430D01*
X62480953Y-83930430D02*
X62214286Y-83549477D01*
X62023810Y-83930430D02*
X62023810Y-83130430D01*
X62023810Y-83130430D02*
X62328572Y-83130430D01*
X62328572Y-83130430D02*
X62404762Y-83168525D01*
X62404762Y-83168525D02*
X62442857Y-83206620D01*
X62442857Y-83206620D02*
X62480953Y-83282811D01*
X62480953Y-83282811D02*
X62480953Y-83397096D01*
X62480953Y-83397096D02*
X62442857Y-83473287D01*
X62442857Y-83473287D02*
X62404762Y-83511382D01*
X62404762Y-83511382D02*
X62328572Y-83549477D01*
X62328572Y-83549477D02*
X62023810Y-83549477D01*
X62823810Y-83854239D02*
X62861905Y-83892335D01*
X62861905Y-83892335D02*
X62823810Y-83930430D01*
X62823810Y-83930430D02*
X62785714Y-83892335D01*
X62785714Y-83892335D02*
X62823810Y-83854239D01*
X62823810Y-83854239D02*
X62823810Y-83930430D01*
X62823810Y-83625668D02*
X62785714Y-83168525D01*
X62785714Y-83168525D02*
X62823810Y-83130430D01*
X62823810Y-83130430D02*
X62861905Y-83168525D01*
X62861905Y-83168525D02*
X62823810Y-83625668D01*
X62823810Y-83625668D02*
X62823810Y-83130430D01*
X58900000Y-85218385D02*
X58900000Y-84418385D01*
X58900000Y-84418385D02*
X59166666Y-84989813D01*
X59166666Y-84989813D02*
X59433333Y-84418385D01*
X59433333Y-84418385D02*
X59433333Y-85218385D01*
X59776190Y-84989813D02*
X60157143Y-84989813D01*
X59700000Y-85218385D02*
X59966667Y-84418385D01*
X59966667Y-84418385D02*
X60233333Y-85218385D01*
X60500000Y-85218385D02*
X60500000Y-84418385D01*
X60880952Y-85218385D02*
X60880952Y-84418385D01*
X60880952Y-84418385D02*
X61338095Y-85218385D01*
X61338095Y-85218385D02*
X61338095Y-84418385D01*
X61680951Y-85180290D02*
X61795237Y-85218385D01*
X61795237Y-85218385D02*
X61985713Y-85218385D01*
X61985713Y-85218385D02*
X62061904Y-85180290D01*
X62061904Y-85180290D02*
X62099999Y-85142194D01*
X62099999Y-85142194D02*
X62138094Y-85066004D01*
X62138094Y-85066004D02*
X62138094Y-84989813D01*
X62138094Y-84989813D02*
X62099999Y-84913623D01*
X62099999Y-84913623D02*
X62061904Y-84875528D01*
X62061904Y-84875528D02*
X61985713Y-84837432D01*
X61985713Y-84837432D02*
X61833332Y-84799337D01*
X61833332Y-84799337D02*
X61757142Y-84761242D01*
X61757142Y-84761242D02*
X61719047Y-84723147D01*
X61719047Y-84723147D02*
X61680951Y-84646956D01*
X61680951Y-84646956D02*
X61680951Y-84570766D01*
X61680951Y-84570766D02*
X61719047Y-84494575D01*
X61719047Y-84494575D02*
X61757142Y-84456480D01*
X61757142Y-84456480D02*
X61833332Y-84418385D01*
X61833332Y-84418385D02*
X62023809Y-84418385D01*
X62023809Y-84418385D02*
X62138094Y-84456480D01*
X58652381Y-86506340D02*
X58652381Y-85706340D01*
X58652381Y-85706340D02*
X58957143Y-85706340D01*
X58957143Y-85706340D02*
X59033333Y-85744435D01*
X59033333Y-85744435D02*
X59071428Y-85782530D01*
X59071428Y-85782530D02*
X59109524Y-85858721D01*
X59109524Y-85858721D02*
X59109524Y-85973006D01*
X59109524Y-85973006D02*
X59071428Y-86049197D01*
X59071428Y-86049197D02*
X59033333Y-86087292D01*
X59033333Y-86087292D02*
X58957143Y-86125387D01*
X58957143Y-86125387D02*
X58652381Y-86125387D01*
X59604762Y-85706340D02*
X59757143Y-85706340D01*
X59757143Y-85706340D02*
X59833333Y-85744435D01*
X59833333Y-85744435D02*
X59909524Y-85820625D01*
X59909524Y-85820625D02*
X59947619Y-85973006D01*
X59947619Y-85973006D02*
X59947619Y-86239673D01*
X59947619Y-86239673D02*
X59909524Y-86392054D01*
X59909524Y-86392054D02*
X59833333Y-86468245D01*
X59833333Y-86468245D02*
X59757143Y-86506340D01*
X59757143Y-86506340D02*
X59604762Y-86506340D01*
X59604762Y-86506340D02*
X59528571Y-86468245D01*
X59528571Y-86468245D02*
X59452381Y-86392054D01*
X59452381Y-86392054D02*
X59414285Y-86239673D01*
X59414285Y-86239673D02*
X59414285Y-85973006D01*
X59414285Y-85973006D02*
X59452381Y-85820625D01*
X59452381Y-85820625D02*
X59528571Y-85744435D01*
X59528571Y-85744435D02*
X59604762Y-85706340D01*
X60214285Y-85706340D02*
X60404761Y-86506340D01*
X60404761Y-86506340D02*
X60557142Y-85934911D01*
X60557142Y-85934911D02*
X60709523Y-86506340D01*
X60709523Y-86506340D02*
X60900000Y-85706340D01*
X61204762Y-86087292D02*
X61471428Y-86087292D01*
X61585714Y-86506340D02*
X61204762Y-86506340D01*
X61204762Y-86506340D02*
X61204762Y-85706340D01*
X61204762Y-85706340D02*
X61585714Y-85706340D01*
X62385715Y-86506340D02*
X62119048Y-86125387D01*
X61928572Y-86506340D02*
X61928572Y-85706340D01*
X61928572Y-85706340D02*
X62233334Y-85706340D01*
X62233334Y-85706340D02*
X62309524Y-85744435D01*
X62309524Y-85744435D02*
X62347619Y-85782530D01*
X62347619Y-85782530D02*
X62385715Y-85858721D01*
X62385715Y-85858721D02*
X62385715Y-85973006D01*
X62385715Y-85973006D02*
X62347619Y-86049197D01*
X62347619Y-86049197D02*
X62309524Y-86087292D01*
X62309524Y-86087292D02*
X62233334Y-86125387D01*
X62233334Y-86125387D02*
X61928572Y-86125387D01*
X58880952Y-87794295D02*
X58423809Y-87794295D01*
X58652381Y-87794295D02*
X58652381Y-86994295D01*
X58652381Y-86994295D02*
X58576190Y-87108580D01*
X58576190Y-87108580D02*
X58500000Y-87184771D01*
X58500000Y-87184771D02*
X58423809Y-87222866D01*
X59642857Y-87794295D02*
X59185714Y-87794295D01*
X59414286Y-87794295D02*
X59414286Y-86994295D01*
X59414286Y-86994295D02*
X59338095Y-87108580D01*
X59338095Y-87108580D02*
X59261905Y-87184771D01*
X59261905Y-87184771D02*
X59185714Y-87222866D01*
X60138096Y-86994295D02*
X60214286Y-86994295D01*
X60214286Y-86994295D02*
X60290477Y-87032390D01*
X60290477Y-87032390D02*
X60328572Y-87070485D01*
X60328572Y-87070485D02*
X60366667Y-87146676D01*
X60366667Y-87146676D02*
X60404762Y-87299057D01*
X60404762Y-87299057D02*
X60404762Y-87489533D01*
X60404762Y-87489533D02*
X60366667Y-87641914D01*
X60366667Y-87641914D02*
X60328572Y-87718104D01*
X60328572Y-87718104D02*
X60290477Y-87756200D01*
X60290477Y-87756200D02*
X60214286Y-87794295D01*
X60214286Y-87794295D02*
X60138096Y-87794295D01*
X60138096Y-87794295D02*
X60061905Y-87756200D01*
X60061905Y-87756200D02*
X60023810Y-87718104D01*
X60023810Y-87718104D02*
X59985715Y-87641914D01*
X59985715Y-87641914D02*
X59947619Y-87489533D01*
X59947619Y-87489533D02*
X59947619Y-87299057D01*
X59947619Y-87299057D02*
X59985715Y-87146676D01*
X59985715Y-87146676D02*
X60023810Y-87070485D01*
X60023810Y-87070485D02*
X60061905Y-87032390D01*
X60061905Y-87032390D02*
X60138096Y-86994295D01*
X60633334Y-86994295D02*
X60900001Y-87794295D01*
X60900001Y-87794295D02*
X61166667Y-86994295D01*
X61395238Y-87565723D02*
X61776191Y-87565723D01*
X61319048Y-87794295D02*
X61585715Y-86994295D01*
X61585715Y-86994295D02*
X61852381Y-87794295D01*
X62576191Y-87718104D02*
X62538095Y-87756200D01*
X62538095Y-87756200D02*
X62423810Y-87794295D01*
X62423810Y-87794295D02*
X62347619Y-87794295D01*
X62347619Y-87794295D02*
X62233333Y-87756200D01*
X62233333Y-87756200D02*
X62157143Y-87680009D01*
X62157143Y-87680009D02*
X62119048Y-87603819D01*
X62119048Y-87603819D02*
X62080952Y-87451438D01*
X62080952Y-87451438D02*
X62080952Y-87337152D01*
X62080952Y-87337152D02*
X62119048Y-87184771D01*
X62119048Y-87184771D02*
X62157143Y-87108580D01*
X62157143Y-87108580D02*
X62233333Y-87032390D01*
X62233333Y-87032390D02*
X62347619Y-86994295D01*
X62347619Y-86994295D02*
X62423810Y-86994295D01*
X62423810Y-86994295D02*
X62538095Y-87032390D01*
X62538095Y-87032390D02*
X62576191Y-87070485D01*
X111573333Y-63689580D02*
X111525714Y-63737200D01*
X111525714Y-63737200D02*
X111382857Y-63784819D01*
X111382857Y-63784819D02*
X111287619Y-63784819D01*
X111287619Y-63784819D02*
X111144762Y-63737200D01*
X111144762Y-63737200D02*
X111049524Y-63641961D01*
X111049524Y-63641961D02*
X111001905Y-63546723D01*
X111001905Y-63546723D02*
X110954286Y-63356247D01*
X110954286Y-63356247D02*
X110954286Y-63213390D01*
X110954286Y-63213390D02*
X111001905Y-63022914D01*
X111001905Y-63022914D02*
X111049524Y-62927676D01*
X111049524Y-62927676D02*
X111144762Y-62832438D01*
X111144762Y-62832438D02*
X111287619Y-62784819D01*
X111287619Y-62784819D02*
X111382857Y-62784819D01*
X111382857Y-62784819D02*
X111525714Y-62832438D01*
X111525714Y-62832438D02*
X111573333Y-62880057D01*
X112525714Y-63784819D02*
X111954286Y-63784819D01*
X112240000Y-63784819D02*
X112240000Y-62784819D01*
X112240000Y-62784819D02*
X112144762Y-62927676D01*
X112144762Y-62927676D02*
X112049524Y-63022914D01*
X112049524Y-63022914D02*
X111954286Y-63070533D01*
X111573333Y-69449580D02*
X111525714Y-69497200D01*
X111525714Y-69497200D02*
X111382857Y-69544819D01*
X111382857Y-69544819D02*
X111287619Y-69544819D01*
X111287619Y-69544819D02*
X111144762Y-69497200D01*
X111144762Y-69497200D02*
X111049524Y-69401961D01*
X111049524Y-69401961D02*
X111001905Y-69306723D01*
X111001905Y-69306723D02*
X110954286Y-69116247D01*
X110954286Y-69116247D02*
X110954286Y-68973390D01*
X110954286Y-68973390D02*
X111001905Y-68782914D01*
X111001905Y-68782914D02*
X111049524Y-68687676D01*
X111049524Y-68687676D02*
X111144762Y-68592438D01*
X111144762Y-68592438D02*
X111287619Y-68544819D01*
X111287619Y-68544819D02*
X111382857Y-68544819D01*
X111382857Y-68544819D02*
X111525714Y-68592438D01*
X111525714Y-68592438D02*
X111573333Y-68640057D01*
X111954286Y-68640057D02*
X112001905Y-68592438D01*
X112001905Y-68592438D02*
X112097143Y-68544819D01*
X112097143Y-68544819D02*
X112335238Y-68544819D01*
X112335238Y-68544819D02*
X112430476Y-68592438D01*
X112430476Y-68592438D02*
X112478095Y-68640057D01*
X112478095Y-68640057D02*
X112525714Y-68735295D01*
X112525714Y-68735295D02*
X112525714Y-68830533D01*
X112525714Y-68830533D02*
X112478095Y-68973390D01*
X112478095Y-68973390D02*
X111906667Y-69544819D01*
X111906667Y-69544819D02*
X112525714Y-69544819D01*
X108366666Y-83369819D02*
X108366666Y-84084104D01*
X108366666Y-84084104D02*
X108319047Y-84226961D01*
X108319047Y-84226961D02*
X108223809Y-84322200D01*
X108223809Y-84322200D02*
X108080952Y-84369819D01*
X108080952Y-84369819D02*
X107985714Y-84369819D01*
X109271428Y-83369819D02*
X109080952Y-83369819D01*
X109080952Y-83369819D02*
X108985714Y-83417438D01*
X108985714Y-83417438D02*
X108938095Y-83465057D01*
X108938095Y-83465057D02*
X108842857Y-83607914D01*
X108842857Y-83607914D02*
X108795238Y-83798390D01*
X108795238Y-83798390D02*
X108795238Y-84179342D01*
X108795238Y-84179342D02*
X108842857Y-84274580D01*
X108842857Y-84274580D02*
X108890476Y-84322200D01*
X108890476Y-84322200D02*
X108985714Y-84369819D01*
X108985714Y-84369819D02*
X109176190Y-84369819D01*
X109176190Y-84369819D02*
X109271428Y-84322200D01*
X109271428Y-84322200D02*
X109319047Y-84274580D01*
X109319047Y-84274580D02*
X109366666Y-84179342D01*
X109366666Y-84179342D02*
X109366666Y-83941247D01*
X109366666Y-83941247D02*
X109319047Y-83846009D01*
X109319047Y-83846009D02*
X109271428Y-83798390D01*
X109271428Y-83798390D02*
X109176190Y-83750771D01*
X109176190Y-83750771D02*
X108985714Y-83750771D01*
X108985714Y-83750771D02*
X108890476Y-83798390D01*
X108890476Y-83798390D02*
X108842857Y-83846009D01*
X108842857Y-83846009D02*
X108795238Y-83941247D01*
X133863095Y-133929819D02*
X133863095Y-134739342D01*
X133863095Y-134739342D02*
X133910714Y-134834580D01*
X133910714Y-134834580D02*
X133958333Y-134882200D01*
X133958333Y-134882200D02*
X134053571Y-134929819D01*
X134053571Y-134929819D02*
X134244047Y-134929819D01*
X134244047Y-134929819D02*
X134339285Y-134882200D01*
X134339285Y-134882200D02*
X134386904Y-134834580D01*
X134386904Y-134834580D02*
X134434523Y-134739342D01*
X134434523Y-134739342D02*
X134434523Y-133929819D01*
X135434523Y-134929819D02*
X134863095Y-134929819D01*
X135148809Y-134929819D02*
X135148809Y-133929819D01*
X135148809Y-133929819D02*
X135053571Y-134072676D01*
X135053571Y-134072676D02*
X134958333Y-134167914D01*
X134958333Y-134167914D02*
X134863095Y-134215533D01*
X141954819Y-125666666D02*
X141478628Y-125999999D01*
X141954819Y-126238094D02*
X140954819Y-126238094D01*
X140954819Y-126238094D02*
X140954819Y-125857142D01*
X140954819Y-125857142D02*
X141002438Y-125761904D01*
X141002438Y-125761904D02*
X141050057Y-125714285D01*
X141050057Y-125714285D02*
X141145295Y-125666666D01*
X141145295Y-125666666D02*
X141288152Y-125666666D01*
X141288152Y-125666666D02*
X141383390Y-125714285D01*
X141383390Y-125714285D02*
X141431009Y-125761904D01*
X141431009Y-125761904D02*
X141478628Y-125857142D01*
X141478628Y-125857142D02*
X141478628Y-126238094D01*
X141383390Y-125095237D02*
X141335771Y-125190475D01*
X141335771Y-125190475D02*
X141288152Y-125238094D01*
X141288152Y-125238094D02*
X141192914Y-125285713D01*
X141192914Y-125285713D02*
X141145295Y-125285713D01*
X141145295Y-125285713D02*
X141050057Y-125238094D01*
X141050057Y-125238094D02*
X141002438Y-125190475D01*
X141002438Y-125190475D02*
X140954819Y-125095237D01*
X140954819Y-125095237D02*
X140954819Y-124904761D01*
X140954819Y-124904761D02*
X141002438Y-124809523D01*
X141002438Y-124809523D02*
X141050057Y-124761904D01*
X141050057Y-124761904D02*
X141145295Y-124714285D01*
X141145295Y-124714285D02*
X141192914Y-124714285D01*
X141192914Y-124714285D02*
X141288152Y-124761904D01*
X141288152Y-124761904D02*
X141335771Y-124809523D01*
X141335771Y-124809523D02*
X141383390Y-124904761D01*
X141383390Y-124904761D02*
X141383390Y-125095237D01*
X141383390Y-125095237D02*
X141431009Y-125190475D01*
X141431009Y-125190475D02*
X141478628Y-125238094D01*
X141478628Y-125238094D02*
X141573866Y-125285713D01*
X141573866Y-125285713D02*
X141764342Y-125285713D01*
X141764342Y-125285713D02*
X141859580Y-125238094D01*
X141859580Y-125238094D02*
X141907200Y-125190475D01*
X141907200Y-125190475D02*
X141954819Y-125095237D01*
X141954819Y-125095237D02*
X141954819Y-124904761D01*
X141954819Y-124904761D02*
X141907200Y-124809523D01*
X141907200Y-124809523D02*
X141859580Y-124761904D01*
X141859580Y-124761904D02*
X141764342Y-124714285D01*
X141764342Y-124714285D02*
X141573866Y-124714285D01*
X141573866Y-124714285D02*
X141478628Y-124761904D01*
X141478628Y-124761904D02*
X141431009Y-124809523D01*
X141431009Y-124809523D02*
X141383390Y-124904761D01*
X142054819Y-116066666D02*
X141578628Y-116399999D01*
X142054819Y-116638094D02*
X141054819Y-116638094D01*
X141054819Y-116638094D02*
X141054819Y-116257142D01*
X141054819Y-116257142D02*
X141102438Y-116161904D01*
X141102438Y-116161904D02*
X141150057Y-116114285D01*
X141150057Y-116114285D02*
X141245295Y-116066666D01*
X141245295Y-116066666D02*
X141388152Y-116066666D01*
X141388152Y-116066666D02*
X141483390Y-116114285D01*
X141483390Y-116114285D02*
X141531009Y-116161904D01*
X141531009Y-116161904D02*
X141578628Y-116257142D01*
X141578628Y-116257142D02*
X141578628Y-116638094D01*
X141054819Y-115161904D02*
X141054819Y-115638094D01*
X141054819Y-115638094D02*
X141531009Y-115685713D01*
X141531009Y-115685713D02*
X141483390Y-115638094D01*
X141483390Y-115638094D02*
X141435771Y-115542856D01*
X141435771Y-115542856D02*
X141435771Y-115304761D01*
X141435771Y-115304761D02*
X141483390Y-115209523D01*
X141483390Y-115209523D02*
X141531009Y-115161904D01*
X141531009Y-115161904D02*
X141626247Y-115114285D01*
X141626247Y-115114285D02*
X141864342Y-115114285D01*
X141864342Y-115114285D02*
X141959580Y-115161904D01*
X141959580Y-115161904D02*
X142007200Y-115209523D01*
X142007200Y-115209523D02*
X142054819Y-115304761D01*
X142054819Y-115304761D02*
X142054819Y-115542856D01*
X142054819Y-115542856D02*
X142007200Y-115638094D01*
X142007200Y-115638094D02*
X141959580Y-115685713D01*
X104633333Y-128759580D02*
X104585714Y-128807200D01*
X104585714Y-128807200D02*
X104442857Y-128854819D01*
X104442857Y-128854819D02*
X104347619Y-128854819D01*
X104347619Y-128854819D02*
X104204762Y-128807200D01*
X104204762Y-128807200D02*
X104109524Y-128711961D01*
X104109524Y-128711961D02*
X104061905Y-128616723D01*
X104061905Y-128616723D02*
X104014286Y-128426247D01*
X104014286Y-128426247D02*
X104014286Y-128283390D01*
X104014286Y-128283390D02*
X104061905Y-128092914D01*
X104061905Y-128092914D02*
X104109524Y-127997676D01*
X104109524Y-127997676D02*
X104204762Y-127902438D01*
X104204762Y-127902438D02*
X104347619Y-127854819D01*
X104347619Y-127854819D02*
X104442857Y-127854819D01*
X104442857Y-127854819D02*
X104585714Y-127902438D01*
X104585714Y-127902438D02*
X104633333Y-127950057D01*
X104966667Y-127854819D02*
X105585714Y-127854819D01*
X105585714Y-127854819D02*
X105252381Y-128235771D01*
X105252381Y-128235771D02*
X105395238Y-128235771D01*
X105395238Y-128235771D02*
X105490476Y-128283390D01*
X105490476Y-128283390D02*
X105538095Y-128331009D01*
X105538095Y-128331009D02*
X105585714Y-128426247D01*
X105585714Y-128426247D02*
X105585714Y-128664342D01*
X105585714Y-128664342D02*
X105538095Y-128759580D01*
X105538095Y-128759580D02*
X105490476Y-128807200D01*
X105490476Y-128807200D02*
X105395238Y-128854819D01*
X105395238Y-128854819D02*
X105109524Y-128854819D01*
X105109524Y-128854819D02*
X105014286Y-128807200D01*
X105014286Y-128807200D02*
X104966667Y-128759580D01*
X103061905Y-100054819D02*
X103061905Y-99054819D01*
X103061905Y-99054819D02*
X103300000Y-99054819D01*
X103300000Y-99054819D02*
X103442857Y-99102438D01*
X103442857Y-99102438D02*
X103538095Y-99197676D01*
X103538095Y-99197676D02*
X103585714Y-99292914D01*
X103585714Y-99292914D02*
X103633333Y-99483390D01*
X103633333Y-99483390D02*
X103633333Y-99626247D01*
X103633333Y-99626247D02*
X103585714Y-99816723D01*
X103585714Y-99816723D02*
X103538095Y-99911961D01*
X103538095Y-99911961D02*
X103442857Y-100007200D01*
X103442857Y-100007200D02*
X103300000Y-100054819D01*
X103300000Y-100054819D02*
X103061905Y-100054819D01*
X104585714Y-100054819D02*
X104014286Y-100054819D01*
X104300000Y-100054819D02*
X104300000Y-99054819D01*
X104300000Y-99054819D02*
X104204762Y-99197676D01*
X104204762Y-99197676D02*
X104109524Y-99292914D01*
X104109524Y-99292914D02*
X104014286Y-99340533D01*
X100948095Y-101754819D02*
X100948095Y-100754819D01*
X101519523Y-101754819D02*
X101090952Y-101183390D01*
X101519523Y-100754819D02*
X100948095Y-101326247D01*
X60166666Y-70654819D02*
X60166666Y-71369104D01*
X60166666Y-71369104D02*
X60119047Y-71511961D01*
X60119047Y-71511961D02*
X60023809Y-71607200D01*
X60023809Y-71607200D02*
X59880952Y-71654819D01*
X59880952Y-71654819D02*
X59785714Y-71654819D01*
X61166666Y-71654819D02*
X60595238Y-71654819D01*
X60880952Y-71654819D02*
X60880952Y-70654819D01*
X60880952Y-70654819D02*
X60785714Y-70797676D01*
X60785714Y-70797676D02*
X60690476Y-70892914D01*
X60690476Y-70892914D02*
X60595238Y-70940533D01*
X84101905Y-89954819D02*
X84101905Y-88954819D01*
X84673333Y-89954819D02*
X84244762Y-89383390D01*
X84673333Y-88954819D02*
X84101905Y-89526247D01*
X85625714Y-89954819D02*
X85054286Y-89954819D01*
X85340000Y-89954819D02*
X85340000Y-88954819D01*
X85340000Y-88954819D02*
X85244762Y-89097676D01*
X85244762Y-89097676D02*
X85149524Y-89192914D01*
X85149524Y-89192914D02*
X85054286Y-89240533D01*
X59666666Y-101704819D02*
X59666666Y-102419104D01*
X59666666Y-102419104D02*
X59619047Y-102561961D01*
X59619047Y-102561961D02*
X59523809Y-102657200D01*
X59523809Y-102657200D02*
X59380952Y-102704819D01*
X59380952Y-102704819D02*
X59285714Y-102704819D01*
X60047619Y-101704819D02*
X60666666Y-101704819D01*
X60666666Y-101704819D02*
X60333333Y-102085771D01*
X60333333Y-102085771D02*
X60476190Y-102085771D01*
X60476190Y-102085771D02*
X60571428Y-102133390D01*
X60571428Y-102133390D02*
X60619047Y-102181009D01*
X60619047Y-102181009D02*
X60666666Y-102276247D01*
X60666666Y-102276247D02*
X60666666Y-102514342D01*
X60666666Y-102514342D02*
X60619047Y-102609580D01*
X60619047Y-102609580D02*
X60571428Y-102657200D01*
X60571428Y-102657200D02*
X60476190Y-102704819D01*
X60476190Y-102704819D02*
X60190476Y-102704819D01*
X60190476Y-102704819D02*
X60095238Y-102657200D01*
X60095238Y-102657200D02*
X60047619Y-102609580D01*
X89404761Y-102800057D02*
X89309523Y-102752438D01*
X89309523Y-102752438D02*
X89214285Y-102657200D01*
X89214285Y-102657200D02*
X89071428Y-102514342D01*
X89071428Y-102514342D02*
X88976190Y-102466723D01*
X88976190Y-102466723D02*
X88880952Y-102466723D01*
X88928571Y-102704819D02*
X88833333Y-102657200D01*
X88833333Y-102657200D02*
X88738095Y-102561961D01*
X88738095Y-102561961D02*
X88690476Y-102371485D01*
X88690476Y-102371485D02*
X88690476Y-102038152D01*
X88690476Y-102038152D02*
X88738095Y-101847676D01*
X88738095Y-101847676D02*
X88833333Y-101752438D01*
X88833333Y-101752438D02*
X88928571Y-101704819D01*
X88928571Y-101704819D02*
X89119047Y-101704819D01*
X89119047Y-101704819D02*
X89214285Y-101752438D01*
X89214285Y-101752438D02*
X89309523Y-101847676D01*
X89309523Y-101847676D02*
X89357142Y-102038152D01*
X89357142Y-102038152D02*
X89357142Y-102371485D01*
X89357142Y-102371485D02*
X89309523Y-102561961D01*
X89309523Y-102561961D02*
X89214285Y-102657200D01*
X89214285Y-102657200D02*
X89119047Y-102704819D01*
X89119047Y-102704819D02*
X88928571Y-102704819D01*
X89738095Y-101800057D02*
X89785714Y-101752438D01*
X89785714Y-101752438D02*
X89880952Y-101704819D01*
X89880952Y-101704819D02*
X90119047Y-101704819D01*
X90119047Y-101704819D02*
X90214285Y-101752438D01*
X90214285Y-101752438D02*
X90261904Y-101800057D01*
X90261904Y-101800057D02*
X90309523Y-101895295D01*
X90309523Y-101895295D02*
X90309523Y-101990533D01*
X90309523Y-101990533D02*
X90261904Y-102133390D01*
X90261904Y-102133390D02*
X89690476Y-102704819D01*
X89690476Y-102704819D02*
X90309523Y-102704819D01*
X83886905Y-102704819D02*
X83886905Y-101704819D01*
X84458333Y-102704819D02*
X84029762Y-102133390D01*
X84458333Y-101704819D02*
X83886905Y-102276247D01*
X84839286Y-101800057D02*
X84886905Y-101752438D01*
X84886905Y-101752438D02*
X84982143Y-101704819D01*
X84982143Y-101704819D02*
X85220238Y-101704819D01*
X85220238Y-101704819D02*
X85315476Y-101752438D01*
X85315476Y-101752438D02*
X85363095Y-101800057D01*
X85363095Y-101800057D02*
X85410714Y-101895295D01*
X85410714Y-101895295D02*
X85410714Y-101990533D01*
X85410714Y-101990533D02*
X85363095Y-102133390D01*
X85363095Y-102133390D02*
X84791667Y-102704819D01*
X84791667Y-102704819D02*
X85410714Y-102704819D01*
X66585714Y-146919104D02*
X67061904Y-146919104D01*
X66490476Y-147204819D02*
X66823809Y-146204819D01*
X66823809Y-146204819D02*
X67157142Y-147204819D01*
X67490476Y-146204819D02*
X67490476Y-147014342D01*
X67490476Y-147014342D02*
X67538095Y-147109580D01*
X67538095Y-147109580D02*
X67585714Y-147157200D01*
X67585714Y-147157200D02*
X67680952Y-147204819D01*
X67680952Y-147204819D02*
X67871428Y-147204819D01*
X67871428Y-147204819D02*
X67966666Y-147157200D01*
X67966666Y-147157200D02*
X68014285Y-147109580D01*
X68014285Y-147109580D02*
X68061904Y-147014342D01*
X68061904Y-147014342D02*
X68061904Y-146204819D01*
X68442857Y-146204819D02*
X69109523Y-147204819D01*
X69109523Y-146204819D02*
X68442857Y-147204819D01*
X70014285Y-147204819D02*
X69442857Y-147204819D01*
X69728571Y-147204819D02*
X69728571Y-146204819D01*
X69728571Y-146204819D02*
X69633333Y-146347676D01*
X69633333Y-146347676D02*
X69538095Y-146442914D01*
X69538095Y-146442914D02*
X69442857Y-146490533D01*
X88957142Y-140454819D02*
X88623809Y-139978628D01*
X88385714Y-140454819D02*
X88385714Y-139454819D01*
X88385714Y-139454819D02*
X88766666Y-139454819D01*
X88766666Y-139454819D02*
X88861904Y-139502438D01*
X88861904Y-139502438D02*
X88909523Y-139550057D01*
X88909523Y-139550057D02*
X88957142Y-139645295D01*
X88957142Y-139645295D02*
X88957142Y-139788152D01*
X88957142Y-139788152D02*
X88909523Y-139883390D01*
X88909523Y-139883390D02*
X88861904Y-139931009D01*
X88861904Y-139931009D02*
X88766666Y-139978628D01*
X88766666Y-139978628D02*
X88385714Y-139978628D01*
X89909523Y-140454819D02*
X89338095Y-140454819D01*
X89623809Y-140454819D02*
X89623809Y-139454819D01*
X89623809Y-139454819D02*
X89528571Y-139597676D01*
X89528571Y-139597676D02*
X89433333Y-139692914D01*
X89433333Y-139692914D02*
X89338095Y-139740533D01*
X90242857Y-139454819D02*
X90861904Y-139454819D01*
X90861904Y-139454819D02*
X90528571Y-139835771D01*
X90528571Y-139835771D02*
X90671428Y-139835771D01*
X90671428Y-139835771D02*
X90766666Y-139883390D01*
X90766666Y-139883390D02*
X90814285Y-139931009D01*
X90814285Y-139931009D02*
X90861904Y-140026247D01*
X90861904Y-140026247D02*
X90861904Y-140264342D01*
X90861904Y-140264342D02*
X90814285Y-140359580D01*
X90814285Y-140359580D02*
X90766666Y-140407200D01*
X90766666Y-140407200D02*
X90671428Y-140454819D01*
X90671428Y-140454819D02*
X90385714Y-140454819D01*
X90385714Y-140454819D02*
X90290476Y-140407200D01*
X90290476Y-140407200D02*
X90242857Y-140359580D01*
X60116666Y-115314819D02*
X60116666Y-116029104D01*
X60116666Y-116029104D02*
X60069047Y-116171961D01*
X60069047Y-116171961D02*
X59973809Y-116267200D01*
X59973809Y-116267200D02*
X59830952Y-116314819D01*
X59830952Y-116314819D02*
X59735714Y-116314819D01*
X61021428Y-115648152D02*
X61021428Y-116314819D01*
X60783333Y-115267200D02*
X60545238Y-115981485D01*
X60545238Y-115981485D02*
X61164285Y-115981485D01*
X103583333Y-105454819D02*
X103250000Y-104978628D01*
X103011905Y-105454819D02*
X103011905Y-104454819D01*
X103011905Y-104454819D02*
X103392857Y-104454819D01*
X103392857Y-104454819D02*
X103488095Y-104502438D01*
X103488095Y-104502438D02*
X103535714Y-104550057D01*
X103535714Y-104550057D02*
X103583333Y-104645295D01*
X103583333Y-104645295D02*
X103583333Y-104788152D01*
X103583333Y-104788152D02*
X103535714Y-104883390D01*
X103535714Y-104883390D02*
X103488095Y-104931009D01*
X103488095Y-104931009D02*
X103392857Y-104978628D01*
X103392857Y-104978628D02*
X103011905Y-104978628D01*
X103916667Y-104454819D02*
X104535714Y-104454819D01*
X104535714Y-104454819D02*
X104202381Y-104835771D01*
X104202381Y-104835771D02*
X104345238Y-104835771D01*
X104345238Y-104835771D02*
X104440476Y-104883390D01*
X104440476Y-104883390D02*
X104488095Y-104931009D01*
X104488095Y-104931009D02*
X104535714Y-105026247D01*
X104535714Y-105026247D02*
X104535714Y-105264342D01*
X104535714Y-105264342D02*
X104488095Y-105359580D01*
X104488095Y-105359580D02*
X104440476Y-105407200D01*
X104440476Y-105407200D02*
X104345238Y-105454819D01*
X104345238Y-105454819D02*
X104059524Y-105454819D01*
X104059524Y-105454819D02*
X103964286Y-105407200D01*
X103964286Y-105407200D02*
X103916667Y-105359580D01*
X89404761Y-90300057D02*
X89309523Y-90252438D01*
X89309523Y-90252438D02*
X89214285Y-90157200D01*
X89214285Y-90157200D02*
X89071428Y-90014342D01*
X89071428Y-90014342D02*
X88976190Y-89966723D01*
X88976190Y-89966723D02*
X88880952Y-89966723D01*
X88928571Y-90204819D02*
X88833333Y-90157200D01*
X88833333Y-90157200D02*
X88738095Y-90061961D01*
X88738095Y-90061961D02*
X88690476Y-89871485D01*
X88690476Y-89871485D02*
X88690476Y-89538152D01*
X88690476Y-89538152D02*
X88738095Y-89347676D01*
X88738095Y-89347676D02*
X88833333Y-89252438D01*
X88833333Y-89252438D02*
X88928571Y-89204819D01*
X88928571Y-89204819D02*
X89119047Y-89204819D01*
X89119047Y-89204819D02*
X89214285Y-89252438D01*
X89214285Y-89252438D02*
X89309523Y-89347676D01*
X89309523Y-89347676D02*
X89357142Y-89538152D01*
X89357142Y-89538152D02*
X89357142Y-89871485D01*
X89357142Y-89871485D02*
X89309523Y-90061961D01*
X89309523Y-90061961D02*
X89214285Y-90157200D01*
X89214285Y-90157200D02*
X89119047Y-90204819D01*
X89119047Y-90204819D02*
X88928571Y-90204819D01*
X90309523Y-90204819D02*
X89738095Y-90204819D01*
X90023809Y-90204819D02*
X90023809Y-89204819D01*
X90023809Y-89204819D02*
X89928571Y-89347676D01*
X89928571Y-89347676D02*
X89833333Y-89442914D01*
X89833333Y-89442914D02*
X89738095Y-89490533D01*
X111357142Y-134654819D02*
X111023809Y-134178628D01*
X110785714Y-134654819D02*
X110785714Y-133654819D01*
X110785714Y-133654819D02*
X111166666Y-133654819D01*
X111166666Y-133654819D02*
X111261904Y-133702438D01*
X111261904Y-133702438D02*
X111309523Y-133750057D01*
X111309523Y-133750057D02*
X111357142Y-133845295D01*
X111357142Y-133845295D02*
X111357142Y-133988152D01*
X111357142Y-133988152D02*
X111309523Y-134083390D01*
X111309523Y-134083390D02*
X111261904Y-134131009D01*
X111261904Y-134131009D02*
X111166666Y-134178628D01*
X111166666Y-134178628D02*
X110785714Y-134178628D01*
X112309523Y-134654819D02*
X111738095Y-134654819D01*
X112023809Y-134654819D02*
X112023809Y-133654819D01*
X112023809Y-133654819D02*
X111928571Y-133797676D01*
X111928571Y-133797676D02*
X111833333Y-133892914D01*
X111833333Y-133892914D02*
X111738095Y-133940533D01*
X112928571Y-133654819D02*
X113023809Y-133654819D01*
X113023809Y-133654819D02*
X113119047Y-133702438D01*
X113119047Y-133702438D02*
X113166666Y-133750057D01*
X113166666Y-133750057D02*
X113214285Y-133845295D01*
X113214285Y-133845295D02*
X113261904Y-134035771D01*
X113261904Y-134035771D02*
X113261904Y-134273866D01*
X113261904Y-134273866D02*
X113214285Y-134464342D01*
X113214285Y-134464342D02*
X113166666Y-134559580D01*
X113166666Y-134559580D02*
X113119047Y-134607200D01*
X113119047Y-134607200D02*
X113023809Y-134654819D01*
X113023809Y-134654819D02*
X112928571Y-134654819D01*
X112928571Y-134654819D02*
X112833333Y-134607200D01*
X112833333Y-134607200D02*
X112785714Y-134559580D01*
X112785714Y-134559580D02*
X112738095Y-134464342D01*
X112738095Y-134464342D02*
X112690476Y-134273866D01*
X112690476Y-134273866D02*
X112690476Y-134035771D01*
X112690476Y-134035771D02*
X112738095Y-133845295D01*
X112738095Y-133845295D02*
X112785714Y-133750057D01*
X112785714Y-133750057D02*
X112833333Y-133702438D01*
X112833333Y-133702438D02*
X112928571Y-133654819D01*
X103583333Y-108954819D02*
X103250000Y-108478628D01*
X103011905Y-108954819D02*
X103011905Y-107954819D01*
X103011905Y-107954819D02*
X103392857Y-107954819D01*
X103392857Y-107954819D02*
X103488095Y-108002438D01*
X103488095Y-108002438D02*
X103535714Y-108050057D01*
X103535714Y-108050057D02*
X103583333Y-108145295D01*
X103583333Y-108145295D02*
X103583333Y-108288152D01*
X103583333Y-108288152D02*
X103535714Y-108383390D01*
X103535714Y-108383390D02*
X103488095Y-108431009D01*
X103488095Y-108431009D02*
X103392857Y-108478628D01*
X103392857Y-108478628D02*
X103011905Y-108478628D01*
X104440476Y-108288152D02*
X104440476Y-108954819D01*
X104202381Y-107907200D02*
X103964286Y-108621485D01*
X103964286Y-108621485D02*
X104583333Y-108621485D01*
X61333333Y-140859580D02*
X61285714Y-140907200D01*
X61285714Y-140907200D02*
X61142857Y-140954819D01*
X61142857Y-140954819D02*
X61047619Y-140954819D01*
X61047619Y-140954819D02*
X60904762Y-140907200D01*
X60904762Y-140907200D02*
X60809524Y-140811961D01*
X60809524Y-140811961D02*
X60761905Y-140716723D01*
X60761905Y-140716723D02*
X60714286Y-140526247D01*
X60714286Y-140526247D02*
X60714286Y-140383390D01*
X60714286Y-140383390D02*
X60761905Y-140192914D01*
X60761905Y-140192914D02*
X60809524Y-140097676D01*
X60809524Y-140097676D02*
X60904762Y-140002438D01*
X60904762Y-140002438D02*
X61047619Y-139954819D01*
X61047619Y-139954819D02*
X61142857Y-139954819D01*
X61142857Y-139954819D02*
X61285714Y-140002438D01*
X61285714Y-140002438D02*
X61333333Y-140050057D01*
X62190476Y-140288152D02*
X62190476Y-140954819D01*
X61952381Y-139907200D02*
X61714286Y-140621485D01*
X61714286Y-140621485D02*
X62333333Y-140621485D01*
X89559761Y-116050057D02*
X89464523Y-116002438D01*
X89464523Y-116002438D02*
X89369285Y-115907200D01*
X89369285Y-115907200D02*
X89226428Y-115764342D01*
X89226428Y-115764342D02*
X89131190Y-115716723D01*
X89131190Y-115716723D02*
X89035952Y-115716723D01*
X89083571Y-115954819D02*
X88988333Y-115907200D01*
X88988333Y-115907200D02*
X88893095Y-115811961D01*
X88893095Y-115811961D02*
X88845476Y-115621485D01*
X88845476Y-115621485D02*
X88845476Y-115288152D01*
X88845476Y-115288152D02*
X88893095Y-115097676D01*
X88893095Y-115097676D02*
X88988333Y-115002438D01*
X88988333Y-115002438D02*
X89083571Y-114954819D01*
X89083571Y-114954819D02*
X89274047Y-114954819D01*
X89274047Y-114954819D02*
X89369285Y-115002438D01*
X89369285Y-115002438D02*
X89464523Y-115097676D01*
X89464523Y-115097676D02*
X89512142Y-115288152D01*
X89512142Y-115288152D02*
X89512142Y-115621485D01*
X89512142Y-115621485D02*
X89464523Y-115811961D01*
X89464523Y-115811961D02*
X89369285Y-115907200D01*
X89369285Y-115907200D02*
X89274047Y-115954819D01*
X89274047Y-115954819D02*
X89083571Y-115954819D01*
X89845476Y-114954819D02*
X90464523Y-114954819D01*
X90464523Y-114954819D02*
X90131190Y-115335771D01*
X90131190Y-115335771D02*
X90274047Y-115335771D01*
X90274047Y-115335771D02*
X90369285Y-115383390D01*
X90369285Y-115383390D02*
X90416904Y-115431009D01*
X90416904Y-115431009D02*
X90464523Y-115526247D01*
X90464523Y-115526247D02*
X90464523Y-115764342D01*
X90464523Y-115764342D02*
X90416904Y-115859580D01*
X90416904Y-115859580D02*
X90369285Y-115907200D01*
X90369285Y-115907200D02*
X90274047Y-115954819D01*
X90274047Y-115954819D02*
X89988333Y-115954819D01*
X89988333Y-115954819D02*
X89893095Y-115907200D01*
X89893095Y-115907200D02*
X89845476Y-115859580D01*
X96833333Y-129684819D02*
X96500000Y-129208628D01*
X96261905Y-129684819D02*
X96261905Y-128684819D01*
X96261905Y-128684819D02*
X96642857Y-128684819D01*
X96642857Y-128684819D02*
X96738095Y-128732438D01*
X96738095Y-128732438D02*
X96785714Y-128780057D01*
X96785714Y-128780057D02*
X96833333Y-128875295D01*
X96833333Y-128875295D02*
X96833333Y-129018152D01*
X96833333Y-129018152D02*
X96785714Y-129113390D01*
X96785714Y-129113390D02*
X96738095Y-129161009D01*
X96738095Y-129161009D02*
X96642857Y-129208628D01*
X96642857Y-129208628D02*
X96261905Y-129208628D01*
X97309524Y-129684819D02*
X97500000Y-129684819D01*
X97500000Y-129684819D02*
X97595238Y-129637200D01*
X97595238Y-129637200D02*
X97642857Y-129589580D01*
X97642857Y-129589580D02*
X97738095Y-129446723D01*
X97738095Y-129446723D02*
X97785714Y-129256247D01*
X97785714Y-129256247D02*
X97785714Y-128875295D01*
X97785714Y-128875295D02*
X97738095Y-128780057D01*
X97738095Y-128780057D02*
X97690476Y-128732438D01*
X97690476Y-128732438D02*
X97595238Y-128684819D01*
X97595238Y-128684819D02*
X97404762Y-128684819D01*
X97404762Y-128684819D02*
X97309524Y-128732438D01*
X97309524Y-128732438D02*
X97261905Y-128780057D01*
X97261905Y-128780057D02*
X97214286Y-128875295D01*
X97214286Y-128875295D02*
X97214286Y-129113390D01*
X97214286Y-129113390D02*
X97261905Y-129208628D01*
X97261905Y-129208628D02*
X97309524Y-129256247D01*
X97309524Y-129256247D02*
X97404762Y-129303866D01*
X97404762Y-129303866D02*
X97595238Y-129303866D01*
X97595238Y-129303866D02*
X97690476Y-129256247D01*
X97690476Y-129256247D02*
X97738095Y-129208628D01*
X97738095Y-129208628D02*
X97785714Y-129113390D01*
X76835714Y-146919104D02*
X77311904Y-146919104D01*
X76740476Y-147204819D02*
X77073809Y-146204819D01*
X77073809Y-146204819D02*
X77407142Y-147204819D01*
X77740476Y-146204819D02*
X77740476Y-147014342D01*
X77740476Y-147014342D02*
X77788095Y-147109580D01*
X77788095Y-147109580D02*
X77835714Y-147157200D01*
X77835714Y-147157200D02*
X77930952Y-147204819D01*
X77930952Y-147204819D02*
X78121428Y-147204819D01*
X78121428Y-147204819D02*
X78216666Y-147157200D01*
X78216666Y-147157200D02*
X78264285Y-147109580D01*
X78264285Y-147109580D02*
X78311904Y-147014342D01*
X78311904Y-147014342D02*
X78311904Y-146204819D01*
X78692857Y-146204819D02*
X79359523Y-147204819D01*
X79359523Y-146204819D02*
X78692857Y-147204819D01*
X79692857Y-146300057D02*
X79740476Y-146252438D01*
X79740476Y-146252438D02*
X79835714Y-146204819D01*
X79835714Y-146204819D02*
X80073809Y-146204819D01*
X80073809Y-146204819D02*
X80169047Y-146252438D01*
X80169047Y-146252438D02*
X80216666Y-146300057D01*
X80216666Y-146300057D02*
X80264285Y-146395295D01*
X80264285Y-146395295D02*
X80264285Y-146490533D01*
X80264285Y-146490533D02*
X80216666Y-146633390D01*
X80216666Y-146633390D02*
X79645238Y-147204819D01*
X79645238Y-147204819D02*
X80264285Y-147204819D01*
X60166666Y-88954819D02*
X60166666Y-89669104D01*
X60166666Y-89669104D02*
X60119047Y-89811961D01*
X60119047Y-89811961D02*
X60023809Y-89907200D01*
X60023809Y-89907200D02*
X59880952Y-89954819D01*
X59880952Y-89954819D02*
X59785714Y-89954819D01*
X60595238Y-89050057D02*
X60642857Y-89002438D01*
X60642857Y-89002438D02*
X60738095Y-88954819D01*
X60738095Y-88954819D02*
X60976190Y-88954819D01*
X60976190Y-88954819D02*
X61071428Y-89002438D01*
X61071428Y-89002438D02*
X61119047Y-89050057D01*
X61119047Y-89050057D02*
X61166666Y-89145295D01*
X61166666Y-89145295D02*
X61166666Y-89240533D01*
X61166666Y-89240533D02*
X61119047Y-89383390D01*
X61119047Y-89383390D02*
X60547619Y-89954819D01*
X60547619Y-89954819D02*
X61166666Y-89954819D01*
X118408333Y-147984580D02*
X118360714Y-148032200D01*
X118360714Y-148032200D02*
X118217857Y-148079819D01*
X118217857Y-148079819D02*
X118122619Y-148079819D01*
X118122619Y-148079819D02*
X117979762Y-148032200D01*
X117979762Y-148032200D02*
X117884524Y-147936961D01*
X117884524Y-147936961D02*
X117836905Y-147841723D01*
X117836905Y-147841723D02*
X117789286Y-147651247D01*
X117789286Y-147651247D02*
X117789286Y-147508390D01*
X117789286Y-147508390D02*
X117836905Y-147317914D01*
X117836905Y-147317914D02*
X117884524Y-147222676D01*
X117884524Y-147222676D02*
X117979762Y-147127438D01*
X117979762Y-147127438D02*
X118122619Y-147079819D01*
X118122619Y-147079819D02*
X118217857Y-147079819D01*
X118217857Y-147079819D02*
X118360714Y-147127438D01*
X118360714Y-147127438D02*
X118408333Y-147175057D01*
X118741667Y-147079819D02*
X119408333Y-147079819D01*
X119408333Y-147079819D02*
X118979762Y-148079819D01*
X87309580Y-144966666D02*
X87357200Y-145014285D01*
X87357200Y-145014285D02*
X87404819Y-145157142D01*
X87404819Y-145157142D02*
X87404819Y-145252380D01*
X87404819Y-145252380D02*
X87357200Y-145395237D01*
X87357200Y-145395237D02*
X87261961Y-145490475D01*
X87261961Y-145490475D02*
X87166723Y-145538094D01*
X87166723Y-145538094D02*
X86976247Y-145585713D01*
X86976247Y-145585713D02*
X86833390Y-145585713D01*
X86833390Y-145585713D02*
X86642914Y-145538094D01*
X86642914Y-145538094D02*
X86547676Y-145490475D01*
X86547676Y-145490475D02*
X86452438Y-145395237D01*
X86452438Y-145395237D02*
X86404819Y-145252380D01*
X86404819Y-145252380D02*
X86404819Y-145157142D01*
X86404819Y-145157142D02*
X86452438Y-145014285D01*
X86452438Y-145014285D02*
X86500057Y-144966666D01*
X86404819Y-144109523D02*
X86404819Y-144299999D01*
X86404819Y-144299999D02*
X86452438Y-144395237D01*
X86452438Y-144395237D02*
X86500057Y-144442856D01*
X86500057Y-144442856D02*
X86642914Y-144538094D01*
X86642914Y-144538094D02*
X86833390Y-144585713D01*
X86833390Y-144585713D02*
X87214342Y-144585713D01*
X87214342Y-144585713D02*
X87309580Y-144538094D01*
X87309580Y-144538094D02*
X87357200Y-144490475D01*
X87357200Y-144490475D02*
X87404819Y-144395237D01*
X87404819Y-144395237D02*
X87404819Y-144204761D01*
X87404819Y-144204761D02*
X87357200Y-144109523D01*
X87357200Y-144109523D02*
X87309580Y-144061904D01*
X87309580Y-144061904D02*
X87214342Y-144014285D01*
X87214342Y-144014285D02*
X86976247Y-144014285D01*
X86976247Y-144014285D02*
X86881009Y-144061904D01*
X86881009Y-144061904D02*
X86833390Y-144109523D01*
X86833390Y-144109523D02*
X86785771Y-144204761D01*
X86785771Y-144204761D02*
X86785771Y-144395237D01*
X86785771Y-144395237D02*
X86833390Y-144490475D01*
X86833390Y-144490475D02*
X86881009Y-144538094D01*
X86881009Y-144538094D02*
X86976247Y-144585713D01*
X103633333Y-92654819D02*
X103300000Y-92178628D01*
X103061905Y-92654819D02*
X103061905Y-91654819D01*
X103061905Y-91654819D02*
X103442857Y-91654819D01*
X103442857Y-91654819D02*
X103538095Y-91702438D01*
X103538095Y-91702438D02*
X103585714Y-91750057D01*
X103585714Y-91750057D02*
X103633333Y-91845295D01*
X103633333Y-91845295D02*
X103633333Y-91988152D01*
X103633333Y-91988152D02*
X103585714Y-92083390D01*
X103585714Y-92083390D02*
X103538095Y-92131009D01*
X103538095Y-92131009D02*
X103442857Y-92178628D01*
X103442857Y-92178628D02*
X103061905Y-92178628D01*
X104585714Y-92654819D02*
X104014286Y-92654819D01*
X104300000Y-92654819D02*
X104300000Y-91654819D01*
X104300000Y-91654819D02*
X104204762Y-91797676D01*
X104204762Y-91797676D02*
X104109524Y-91892914D01*
X104109524Y-91892914D02*
X104014286Y-91940533D01*
X103261905Y-125704819D02*
X103261905Y-124704819D01*
X103261905Y-124704819D02*
X103500000Y-124704819D01*
X103500000Y-124704819D02*
X103642857Y-124752438D01*
X103642857Y-124752438D02*
X103738095Y-124847676D01*
X103738095Y-124847676D02*
X103785714Y-124942914D01*
X103785714Y-124942914D02*
X103833333Y-125133390D01*
X103833333Y-125133390D02*
X103833333Y-125276247D01*
X103833333Y-125276247D02*
X103785714Y-125466723D01*
X103785714Y-125466723D02*
X103738095Y-125561961D01*
X103738095Y-125561961D02*
X103642857Y-125657200D01*
X103642857Y-125657200D02*
X103500000Y-125704819D01*
X103500000Y-125704819D02*
X103261905Y-125704819D01*
X104166667Y-124704819D02*
X104785714Y-124704819D01*
X104785714Y-124704819D02*
X104452381Y-125085771D01*
X104452381Y-125085771D02*
X104595238Y-125085771D01*
X104595238Y-125085771D02*
X104690476Y-125133390D01*
X104690476Y-125133390D02*
X104738095Y-125181009D01*
X104738095Y-125181009D02*
X104785714Y-125276247D01*
X104785714Y-125276247D02*
X104785714Y-125514342D01*
X104785714Y-125514342D02*
X104738095Y-125609580D01*
X104738095Y-125609580D02*
X104690476Y-125657200D01*
X104690476Y-125657200D02*
X104595238Y-125704819D01*
X104595238Y-125704819D02*
X104309524Y-125704819D01*
X104309524Y-125704819D02*
X104214286Y-125657200D01*
X104214286Y-125657200D02*
X104166667Y-125609580D01*
X101348095Y-127754819D02*
X101348095Y-126754819D01*
X101919523Y-127754819D02*
X101490952Y-127183390D01*
X101919523Y-126754819D02*
X101348095Y-127326247D01*
X83886905Y-115954819D02*
X83886905Y-114954819D01*
X84458333Y-115954819D02*
X84029762Y-115383390D01*
X84458333Y-114954819D02*
X83886905Y-115526247D01*
X84791667Y-114954819D02*
X85410714Y-114954819D01*
X85410714Y-114954819D02*
X85077381Y-115335771D01*
X85077381Y-115335771D02*
X85220238Y-115335771D01*
X85220238Y-115335771D02*
X85315476Y-115383390D01*
X85315476Y-115383390D02*
X85363095Y-115431009D01*
X85363095Y-115431009D02*
X85410714Y-115526247D01*
X85410714Y-115526247D02*
X85410714Y-115764342D01*
X85410714Y-115764342D02*
X85363095Y-115859580D01*
X85363095Y-115859580D02*
X85315476Y-115907200D01*
X85315476Y-115907200D02*
X85220238Y-115954819D01*
X85220238Y-115954819D02*
X84934524Y-115954819D01*
X84934524Y-115954819D02*
X84839286Y-115907200D01*
X84839286Y-115907200D02*
X84791667Y-115859580D01*
X115157142Y-134654819D02*
X114823809Y-134178628D01*
X114585714Y-134654819D02*
X114585714Y-133654819D01*
X114585714Y-133654819D02*
X114966666Y-133654819D01*
X114966666Y-133654819D02*
X115061904Y-133702438D01*
X115061904Y-133702438D02*
X115109523Y-133750057D01*
X115109523Y-133750057D02*
X115157142Y-133845295D01*
X115157142Y-133845295D02*
X115157142Y-133988152D01*
X115157142Y-133988152D02*
X115109523Y-134083390D01*
X115109523Y-134083390D02*
X115061904Y-134131009D01*
X115061904Y-134131009D02*
X114966666Y-134178628D01*
X114966666Y-134178628D02*
X114585714Y-134178628D01*
X116109523Y-134654819D02*
X115538095Y-134654819D01*
X115823809Y-134654819D02*
X115823809Y-133654819D01*
X115823809Y-133654819D02*
X115728571Y-133797676D01*
X115728571Y-133797676D02*
X115633333Y-133892914D01*
X115633333Y-133892914D02*
X115538095Y-133940533D01*
X117061904Y-134654819D02*
X116490476Y-134654819D01*
X116776190Y-134654819D02*
X116776190Y-133654819D01*
X116776190Y-133654819D02*
X116680952Y-133797676D01*
X116680952Y-133797676D02*
X116585714Y-133892914D01*
X116585714Y-133892914D02*
X116490476Y-133940533D01*
X63354819Y-70014285D02*
X62354819Y-70014285D01*
X62354819Y-70014285D02*
X62354819Y-69633333D01*
X62354819Y-69633333D02*
X62402438Y-69538095D01*
X62402438Y-69538095D02*
X62450057Y-69490476D01*
X62450057Y-69490476D02*
X62545295Y-69442857D01*
X62545295Y-69442857D02*
X62688152Y-69442857D01*
X62688152Y-69442857D02*
X62783390Y-69490476D01*
X62783390Y-69490476D02*
X62831009Y-69538095D01*
X62831009Y-69538095D02*
X62878628Y-69633333D01*
X62878628Y-69633333D02*
X62878628Y-70014285D01*
X63307200Y-69061904D02*
X63354819Y-68919047D01*
X63354819Y-68919047D02*
X63354819Y-68680952D01*
X63354819Y-68680952D02*
X63307200Y-68585714D01*
X63307200Y-68585714D02*
X63259580Y-68538095D01*
X63259580Y-68538095D02*
X63164342Y-68490476D01*
X63164342Y-68490476D02*
X63069104Y-68490476D01*
X63069104Y-68490476D02*
X62973866Y-68538095D01*
X62973866Y-68538095D02*
X62926247Y-68585714D01*
X62926247Y-68585714D02*
X62878628Y-68680952D01*
X62878628Y-68680952D02*
X62831009Y-68871428D01*
X62831009Y-68871428D02*
X62783390Y-68966666D01*
X62783390Y-68966666D02*
X62735771Y-69014285D01*
X62735771Y-69014285D02*
X62640533Y-69061904D01*
X62640533Y-69061904D02*
X62545295Y-69061904D01*
X62545295Y-69061904D02*
X62450057Y-69014285D01*
X62450057Y-69014285D02*
X62402438Y-68966666D01*
X62402438Y-68966666D02*
X62354819Y-68871428D01*
X62354819Y-68871428D02*
X62354819Y-68633333D01*
X62354819Y-68633333D02*
X62402438Y-68490476D01*
X63354819Y-67538095D02*
X63354819Y-68109523D01*
X63354819Y-67823809D02*
X62354819Y-67823809D01*
X62354819Y-67823809D02*
X62497676Y-67919047D01*
X62497676Y-67919047D02*
X62592914Y-68014285D01*
X62592914Y-68014285D02*
X62640533Y-68109523D01*
X103433333Y-96254819D02*
X103100000Y-95778628D01*
X102861905Y-96254819D02*
X102861905Y-95254819D01*
X102861905Y-95254819D02*
X103242857Y-95254819D01*
X103242857Y-95254819D02*
X103338095Y-95302438D01*
X103338095Y-95302438D02*
X103385714Y-95350057D01*
X103385714Y-95350057D02*
X103433333Y-95445295D01*
X103433333Y-95445295D02*
X103433333Y-95588152D01*
X103433333Y-95588152D02*
X103385714Y-95683390D01*
X103385714Y-95683390D02*
X103338095Y-95731009D01*
X103338095Y-95731009D02*
X103242857Y-95778628D01*
X103242857Y-95778628D02*
X102861905Y-95778628D01*
X103814286Y-95350057D02*
X103861905Y-95302438D01*
X103861905Y-95302438D02*
X103957143Y-95254819D01*
X103957143Y-95254819D02*
X104195238Y-95254819D01*
X104195238Y-95254819D02*
X104290476Y-95302438D01*
X104290476Y-95302438D02*
X104338095Y-95350057D01*
X104338095Y-95350057D02*
X104385714Y-95445295D01*
X104385714Y-95445295D02*
X104385714Y-95540533D01*
X104385714Y-95540533D02*
X104338095Y-95683390D01*
X104338095Y-95683390D02*
X103766667Y-96254819D01*
X103766667Y-96254819D02*
X104385714Y-96254819D01*
X85433333Y-140159580D02*
X85385714Y-140207200D01*
X85385714Y-140207200D02*
X85242857Y-140254819D01*
X85242857Y-140254819D02*
X85147619Y-140254819D01*
X85147619Y-140254819D02*
X85004762Y-140207200D01*
X85004762Y-140207200D02*
X84909524Y-140111961D01*
X84909524Y-140111961D02*
X84861905Y-140016723D01*
X84861905Y-140016723D02*
X84814286Y-139826247D01*
X84814286Y-139826247D02*
X84814286Y-139683390D01*
X84814286Y-139683390D02*
X84861905Y-139492914D01*
X84861905Y-139492914D02*
X84909524Y-139397676D01*
X84909524Y-139397676D02*
X85004762Y-139302438D01*
X85004762Y-139302438D02*
X85147619Y-139254819D01*
X85147619Y-139254819D02*
X85242857Y-139254819D01*
X85242857Y-139254819D02*
X85385714Y-139302438D01*
X85385714Y-139302438D02*
X85433333Y-139350057D01*
X86338095Y-139254819D02*
X85861905Y-139254819D01*
X85861905Y-139254819D02*
X85814286Y-139731009D01*
X85814286Y-139731009D02*
X85861905Y-139683390D01*
X85861905Y-139683390D02*
X85957143Y-139635771D01*
X85957143Y-139635771D02*
X86195238Y-139635771D01*
X86195238Y-139635771D02*
X86290476Y-139683390D01*
X86290476Y-139683390D02*
X86338095Y-139731009D01*
X86338095Y-139731009D02*
X86385714Y-139826247D01*
X86385714Y-139826247D02*
X86385714Y-140064342D01*
X86385714Y-140064342D02*
X86338095Y-140159580D01*
X86338095Y-140159580D02*
X86290476Y-140207200D01*
X86290476Y-140207200D02*
X86195238Y-140254819D01*
X86195238Y-140254819D02*
X85957143Y-140254819D01*
X85957143Y-140254819D02*
X85861905Y-140207200D01*
X85861905Y-140207200D02*
X85814286Y-140159580D01*
X135754819Y-137333333D02*
X136469104Y-137333333D01*
X136469104Y-137333333D02*
X136611961Y-137380952D01*
X136611961Y-137380952D02*
X136707200Y-137476190D01*
X136707200Y-137476190D02*
X136754819Y-137619047D01*
X136754819Y-137619047D02*
X136754819Y-137714285D01*
X135754819Y-136380952D02*
X135754819Y-136857142D01*
X135754819Y-136857142D02*
X136231009Y-136904761D01*
X136231009Y-136904761D02*
X136183390Y-136857142D01*
X136183390Y-136857142D02*
X136135771Y-136761904D01*
X136135771Y-136761904D02*
X136135771Y-136523809D01*
X136135771Y-136523809D02*
X136183390Y-136428571D01*
X136183390Y-136428571D02*
X136231009Y-136380952D01*
X136231009Y-136380952D02*
X136326247Y-136333333D01*
X136326247Y-136333333D02*
X136564342Y-136333333D01*
X136564342Y-136333333D02*
X136659580Y-136380952D01*
X136659580Y-136380952D02*
X136707200Y-136428571D01*
X136707200Y-136428571D02*
X136754819Y-136523809D01*
X136754819Y-136523809D02*
X136754819Y-136761904D01*
X136754819Y-136761904D02*
X136707200Y-136857142D01*
X136707200Y-136857142D02*
X136659580Y-136904761D01*
X103011905Y-112454819D02*
X103011905Y-111454819D01*
X103011905Y-111454819D02*
X103250000Y-111454819D01*
X103250000Y-111454819D02*
X103392857Y-111502438D01*
X103392857Y-111502438D02*
X103488095Y-111597676D01*
X103488095Y-111597676D02*
X103535714Y-111692914D01*
X103535714Y-111692914D02*
X103583333Y-111883390D01*
X103583333Y-111883390D02*
X103583333Y-112026247D01*
X103583333Y-112026247D02*
X103535714Y-112216723D01*
X103535714Y-112216723D02*
X103488095Y-112311961D01*
X103488095Y-112311961D02*
X103392857Y-112407200D01*
X103392857Y-112407200D02*
X103250000Y-112454819D01*
X103250000Y-112454819D02*
X103011905Y-112454819D01*
X103964286Y-111550057D02*
X104011905Y-111502438D01*
X104011905Y-111502438D02*
X104107143Y-111454819D01*
X104107143Y-111454819D02*
X104345238Y-111454819D01*
X104345238Y-111454819D02*
X104440476Y-111502438D01*
X104440476Y-111502438D02*
X104488095Y-111550057D01*
X104488095Y-111550057D02*
X104535714Y-111645295D01*
X104535714Y-111645295D02*
X104535714Y-111740533D01*
X104535714Y-111740533D02*
X104488095Y-111883390D01*
X104488095Y-111883390D02*
X103916667Y-112454819D01*
X103916667Y-112454819D02*
X104535714Y-112454819D01*
X101148095Y-114354819D02*
X101148095Y-113354819D01*
X101719523Y-114354819D02*
X101290952Y-113783390D01*
X101719523Y-113354819D02*
X101148095Y-113926247D01*
X57307142Y-140854819D02*
X56973809Y-140378628D01*
X56735714Y-140854819D02*
X56735714Y-139854819D01*
X56735714Y-139854819D02*
X57116666Y-139854819D01*
X57116666Y-139854819D02*
X57211904Y-139902438D01*
X57211904Y-139902438D02*
X57259523Y-139950057D01*
X57259523Y-139950057D02*
X57307142Y-140045295D01*
X57307142Y-140045295D02*
X57307142Y-140188152D01*
X57307142Y-140188152D02*
X57259523Y-140283390D01*
X57259523Y-140283390D02*
X57211904Y-140331009D01*
X57211904Y-140331009D02*
X57116666Y-140378628D01*
X57116666Y-140378628D02*
X56735714Y-140378628D01*
X58259523Y-140854819D02*
X57688095Y-140854819D01*
X57973809Y-140854819D02*
X57973809Y-139854819D01*
X57973809Y-139854819D02*
X57878571Y-139997676D01*
X57878571Y-139997676D02*
X57783333Y-140092914D01*
X57783333Y-140092914D02*
X57688095Y-140140533D01*
X58640476Y-139950057D02*
X58688095Y-139902438D01*
X58688095Y-139902438D02*
X58783333Y-139854819D01*
X58783333Y-139854819D02*
X59021428Y-139854819D01*
X59021428Y-139854819D02*
X59116666Y-139902438D01*
X59116666Y-139902438D02*
X59164285Y-139950057D01*
X59164285Y-139950057D02*
X59211904Y-140045295D01*
X59211904Y-140045295D02*
X59211904Y-140140533D01*
X59211904Y-140140533D02*
X59164285Y-140283390D01*
X59164285Y-140283390D02*
X58592857Y-140854819D01*
X58592857Y-140854819D02*
X59211904Y-140854819D01*
X103583333Y-118704819D02*
X103250000Y-118228628D01*
X103011905Y-118704819D02*
X103011905Y-117704819D01*
X103011905Y-117704819D02*
X103392857Y-117704819D01*
X103392857Y-117704819D02*
X103488095Y-117752438D01*
X103488095Y-117752438D02*
X103535714Y-117800057D01*
X103535714Y-117800057D02*
X103583333Y-117895295D01*
X103583333Y-117895295D02*
X103583333Y-118038152D01*
X103583333Y-118038152D02*
X103535714Y-118133390D01*
X103535714Y-118133390D02*
X103488095Y-118181009D01*
X103488095Y-118181009D02*
X103392857Y-118228628D01*
X103392857Y-118228628D02*
X103011905Y-118228628D01*
X104440476Y-117704819D02*
X104250000Y-117704819D01*
X104250000Y-117704819D02*
X104154762Y-117752438D01*
X104154762Y-117752438D02*
X104107143Y-117800057D01*
X104107143Y-117800057D02*
X104011905Y-117942914D01*
X104011905Y-117942914D02*
X103964286Y-118133390D01*
X103964286Y-118133390D02*
X103964286Y-118514342D01*
X103964286Y-118514342D02*
X104011905Y-118609580D01*
X104011905Y-118609580D02*
X104059524Y-118657200D01*
X104059524Y-118657200D02*
X104154762Y-118704819D01*
X104154762Y-118704819D02*
X104345238Y-118704819D01*
X104345238Y-118704819D02*
X104440476Y-118657200D01*
X104440476Y-118657200D02*
X104488095Y-118609580D01*
X104488095Y-118609580D02*
X104535714Y-118514342D01*
X104535714Y-118514342D02*
X104535714Y-118276247D01*
X104535714Y-118276247D02*
X104488095Y-118181009D01*
X104488095Y-118181009D02*
X104440476Y-118133390D01*
X104440476Y-118133390D02*
X104345238Y-118085771D01*
X104345238Y-118085771D02*
X104154762Y-118085771D01*
X104154762Y-118085771D02*
X104059524Y-118133390D01*
X104059524Y-118133390D02*
X104011905Y-118181009D01*
X104011905Y-118181009D02*
X103964286Y-118276247D01*
X103583333Y-122204819D02*
X103250000Y-121728628D01*
X103011905Y-122204819D02*
X103011905Y-121204819D01*
X103011905Y-121204819D02*
X103392857Y-121204819D01*
X103392857Y-121204819D02*
X103488095Y-121252438D01*
X103488095Y-121252438D02*
X103535714Y-121300057D01*
X103535714Y-121300057D02*
X103583333Y-121395295D01*
X103583333Y-121395295D02*
X103583333Y-121538152D01*
X103583333Y-121538152D02*
X103535714Y-121633390D01*
X103535714Y-121633390D02*
X103488095Y-121681009D01*
X103488095Y-121681009D02*
X103392857Y-121728628D01*
X103392857Y-121728628D02*
X103011905Y-121728628D01*
X103916667Y-121204819D02*
X104583333Y-121204819D01*
X104583333Y-121204819D02*
X104154762Y-122204819D01*
D12*
%TO.C,C1*%
X107089000Y-63460000D02*
X107755000Y-63460000D01*
X107089000Y-68800000D02*
X107089000Y-63460000D01*
X107089000Y-68800000D02*
X107755000Y-68800000D01*
X109865000Y-63460000D02*
X110531000Y-63460000D01*
X109865000Y-68800000D02*
X110531000Y-68800000D01*
X110531000Y-68800000D02*
X110531000Y-63460000D01*
%TO.C,C2*%
X110501000Y-76180000D02*
X109835000Y-76180000D01*
X110501000Y-70840000D02*
X110501000Y-76180000D01*
X110501000Y-70840000D02*
X109835000Y-70840000D01*
X107725000Y-76180000D02*
X107059000Y-76180000D01*
X107725000Y-70840000D02*
X107059000Y-70840000D01*
X107059000Y-70840000D02*
X107059000Y-76180000D01*
%TO.C,J6*%
X107370000Y-80315000D02*
X107370000Y-77715000D01*
X110030000Y-77715000D02*
X107370000Y-77715000D01*
X110030000Y-80315000D02*
X107370000Y-80315000D01*
X110030000Y-80315000D02*
X110030000Y-77715000D01*
X110030000Y-81585000D02*
X110030000Y-82915000D01*
X110030000Y-82915000D02*
X108700000Y-82915000D01*
D13*
%TO.C,U1*%
X110314000Y-71418000D02*
G75*
G02*
X110114000Y-71418000I-100000J0D01*
G01*
X110114000Y-71418000D02*
G75*
G02*
X110314000Y-71418000I100000J0D01*
G01*
D14*
X136630000Y-132760000D02*
X111230000Y-132760000D01*
X136630000Y-70020000D02*
X136630000Y-132760000D01*
X111230000Y-132760000D02*
X111230000Y-70020000D01*
X111230000Y-70020000D02*
X136630000Y-70020000D01*
D12*
%TO.C,R8*%
X140370000Y-128960000D02*
X140370000Y-122420000D01*
X140370000Y-122420000D02*
X140040000Y-122420000D01*
X140040000Y-128960000D02*
X140370000Y-128960000D01*
X137960000Y-128960000D02*
X137630000Y-128960000D01*
X137630000Y-128960000D02*
X137630000Y-122420000D01*
X137630000Y-122420000D02*
X137960000Y-122420000D01*
%TO.C,R5*%
X140370000Y-118770000D02*
X140040000Y-118770000D01*
X140370000Y-112230000D02*
X140370000Y-118770000D01*
X140040000Y-112230000D02*
X140370000Y-112230000D01*
X137960000Y-112230000D02*
X137630000Y-112230000D01*
X137630000Y-118770000D02*
X137960000Y-118770000D01*
X137630000Y-112230000D02*
X137630000Y-118770000D01*
%TO.C,C3*%
X103930000Y-130345000D02*
X103930000Y-129679000D01*
X103930000Y-133121000D02*
X103930000Y-132455000D01*
X109270000Y-129679000D02*
X103930000Y-129679000D01*
X109270000Y-130345000D02*
X109270000Y-129679000D01*
X109270000Y-133121000D02*
X103930000Y-133121000D01*
X109270000Y-133121000D02*
X109270000Y-132455000D01*
D15*
%TO.C,G\u002A\u002A\u002A*%
G36*
X123273815Y-146956430D02*
G01*
X123273815Y-147308122D01*
X123203476Y-147308122D01*
X123133138Y-147308122D01*
X123133138Y-146956430D01*
X123133138Y-146604738D01*
X123203476Y-146604738D01*
X123273815Y-146604738D01*
X123273815Y-146956430D01*
G37*
G36*
X127056461Y-146956430D02*
G01*
X127056461Y-147308122D01*
X126978307Y-147308122D01*
X126900153Y-147308122D01*
X126900153Y-146956430D01*
X126900153Y-146604738D01*
X126978307Y-146604738D01*
X127056461Y-146604738D01*
X127056461Y-146956430D01*
G37*
G36*
X128166246Y-144287476D02*
G01*
X128166246Y-145065107D01*
X128017753Y-145065107D01*
X127869261Y-145065107D01*
X127869261Y-144287476D01*
X127869261Y-143509846D01*
X128017753Y-143509846D01*
X128166246Y-143509846D01*
X128166246Y-144287476D01*
G37*
G36*
X124242922Y-145635630D02*
G01*
X124242922Y-145698153D01*
X124141322Y-145698153D01*
X124039722Y-145698153D01*
X124039722Y-145987322D01*
X124039722Y-146276492D01*
X123961569Y-146276492D01*
X123883415Y-146276492D01*
X123883415Y-145987322D01*
X123883415Y-145698153D01*
X123789630Y-145698153D01*
X123695846Y-145698153D01*
X123695846Y-145635630D01*
X123695846Y-145573107D01*
X123969384Y-145573107D01*
X124242922Y-145573107D01*
X124242922Y-145635630D01*
G37*
G36*
X125837261Y-145635630D02*
G01*
X125837261Y-145698153D01*
X125735040Y-145698153D01*
X125632818Y-145698153D01*
X125634867Y-145983415D01*
X125636916Y-146268676D01*
X125565150Y-146273440D01*
X125493384Y-146278205D01*
X125493384Y-145988179D01*
X125493384Y-145698153D01*
X125391784Y-145698153D01*
X125290184Y-145698153D01*
X125290184Y-145635630D01*
X125290184Y-145573107D01*
X125563722Y-145573107D01*
X125837261Y-145573107D01*
X125837261Y-145635630D01*
G37*
G36*
X121085507Y-146675076D02*
G01*
X121085507Y-146745415D01*
X120913569Y-146745415D01*
X120741630Y-146745415D01*
X120741630Y-146815753D01*
X120741630Y-146886092D01*
X120905753Y-146886092D01*
X121069876Y-146886092D01*
X121069876Y-146956430D01*
X121069876Y-147026769D01*
X120905753Y-147026769D01*
X120741630Y-147026769D01*
X120741630Y-147105869D01*
X120741630Y-147184969D01*
X120921415Y-147180115D01*
X121101199Y-147175261D01*
X121101169Y-147241692D01*
X121101138Y-147308122D01*
X120851046Y-147308122D01*
X120600953Y-147308122D01*
X120600953Y-146956430D01*
X120600953Y-146604738D01*
X120843230Y-146604738D01*
X121085507Y-146604738D01*
X121085507Y-146675076D01*
G37*
G36*
X124977569Y-146675076D02*
G01*
X124977569Y-146745415D01*
X124805630Y-146745415D01*
X124633692Y-146745415D01*
X124633692Y-146815753D01*
X124633692Y-146886092D01*
X124797815Y-146886092D01*
X124961938Y-146886092D01*
X124961938Y-146956430D01*
X124961938Y-147026769D01*
X124797815Y-147026769D01*
X124633692Y-147026769D01*
X124633692Y-147104922D01*
X124633692Y-147183076D01*
X124809951Y-147183076D01*
X124986210Y-147183076D01*
X124980248Y-147245599D01*
X124974285Y-147308122D01*
X124733650Y-147308122D01*
X124493015Y-147308122D01*
X124493015Y-146956430D01*
X124493015Y-146604738D01*
X124735292Y-146604738D01*
X124977569Y-146604738D01*
X124977569Y-146675076D01*
G37*
G36*
X125759107Y-146675076D02*
G01*
X125759107Y-146745415D01*
X125587169Y-146745415D01*
X125415230Y-146745415D01*
X125415230Y-146815753D01*
X125415230Y-146886092D01*
X125579353Y-146886092D01*
X125743476Y-146886092D01*
X125743476Y-146956430D01*
X125743476Y-147026769D01*
X125579353Y-147026769D01*
X125415230Y-147026769D01*
X125415230Y-147104922D01*
X125415230Y-147183076D01*
X125594984Y-147183076D01*
X125774738Y-147183076D01*
X125774738Y-147245599D01*
X125774738Y-147308122D01*
X125524646Y-147308122D01*
X125274553Y-147308122D01*
X125274553Y-146956430D01*
X125274553Y-146604738D01*
X125516830Y-146604738D01*
X125759107Y-146604738D01*
X125759107Y-146675076D01*
G37*
G36*
X128166246Y-145635630D02*
G01*
X128166246Y-145698153D01*
X128003696Y-145698153D01*
X127841147Y-145698153D01*
X127835553Y-145768492D01*
X127829959Y-145838830D01*
X127982471Y-145838830D01*
X128134984Y-145838830D01*
X128134984Y-145909169D01*
X128134984Y-145979507D01*
X127982584Y-145979496D01*
X127830184Y-145979484D01*
X127832195Y-146059630D01*
X127834207Y-146139777D01*
X128000226Y-146136926D01*
X128166246Y-146134076D01*
X128166246Y-146205284D01*
X128166246Y-146276492D01*
X127923969Y-146276492D01*
X127681692Y-146276492D01*
X127681692Y-145924799D01*
X127681692Y-145573107D01*
X127923969Y-145573107D01*
X128166246Y-145573107D01*
X128166246Y-145635630D01*
G37*
G36*
X121945199Y-146956430D02*
G01*
X121945199Y-147308122D01*
X121878485Y-147308122D01*
X121811770Y-147308122D01*
X121683420Y-147132276D01*
X121623750Y-147050638D01*
X121579771Y-146990898D01*
X121548808Y-146949658D01*
X121528184Y-146923519D01*
X121515224Y-146909083D01*
X121507253Y-146902952D01*
X121501907Y-146901722D01*
X121498187Y-146916385D01*
X121495095Y-146956504D01*
X121492915Y-147016275D01*
X121491934Y-147089896D01*
X121491907Y-147104922D01*
X121491907Y-147308122D01*
X121421569Y-147308122D01*
X121351230Y-147308122D01*
X121351230Y-146956430D01*
X121351230Y-146604738D01*
X121417661Y-146605606D01*
X121484092Y-146606474D01*
X121640399Y-146816890D01*
X121796707Y-147027306D01*
X121801056Y-146816022D01*
X121805405Y-146604738D01*
X121875302Y-146604738D01*
X121945199Y-146604738D01*
X121945199Y-146956430D01*
G37*
G36*
X122226553Y-143658866D02*
G01*
X122226553Y-143807887D01*
X121870953Y-143806201D01*
X121515353Y-143804515D01*
X121510934Y-143977611D01*
X121506514Y-144150707D01*
X121835272Y-144150707D01*
X122164030Y-144150707D01*
X122164030Y-144283569D01*
X122164030Y-144416430D01*
X121835288Y-144416430D01*
X121506546Y-144416430D01*
X121510949Y-144600092D01*
X121515353Y-144783753D01*
X121870960Y-144783753D01*
X122226567Y-144783753D01*
X122226560Y-144928338D01*
X122226168Y-144990699D01*
X122225120Y-145038712D01*
X122223603Y-145065728D01*
X122222646Y-145069239D01*
X122206658Y-145068217D01*
X122163132Y-145067035D01*
X122095792Y-145065751D01*
X122008359Y-145064425D01*
X121904559Y-145063115D01*
X121788112Y-145061880D01*
X121714646Y-145061207D01*
X121210553Y-145056859D01*
X121210553Y-144283352D01*
X121210553Y-143509846D01*
X121718553Y-143509846D01*
X122226553Y-143509846D01*
X122226553Y-143658866D01*
G37*
G36*
X124180399Y-146956430D02*
G01*
X124180399Y-147308122D01*
X124118628Y-147308122D01*
X124094929Y-147307314D01*
X124074783Y-147302491D01*
X124054332Y-147290056D01*
X124029721Y-147266411D01*
X123997093Y-147227958D01*
X123952591Y-147171099D01*
X123905003Y-147108830D01*
X123852491Y-147040069D01*
X123806061Y-146979562D01*
X123769267Y-146931919D01*
X123745664Y-146901751D01*
X123739271Y-146893907D01*
X123734223Y-146902313D01*
X123730845Y-146938054D01*
X123729315Y-146997238D01*
X123729810Y-147075974D01*
X123730157Y-147093226D01*
X123734922Y-147308175D01*
X123660676Y-147308149D01*
X123586430Y-147308122D01*
X123586430Y-146956430D01*
X123586430Y-146604738D01*
X123652861Y-146605124D01*
X123719292Y-146605511D01*
X123875599Y-146819812D01*
X124031907Y-147034112D01*
X124036256Y-146819425D01*
X124040605Y-146604738D01*
X124110502Y-146604738D01*
X124180399Y-146604738D01*
X124180399Y-146956430D01*
G37*
G36*
X127468332Y-146605544D02*
G01*
X127491912Y-146610934D01*
X127513791Y-146625368D01*
X127539426Y-146653305D01*
X127574275Y-146699205D01*
X127604975Y-146741507D01*
X127653427Y-146807912D01*
X127702479Y-146874095D01*
X127744821Y-146930239D01*
X127763105Y-146953926D01*
X127822369Y-147029576D01*
X127822369Y-146817157D01*
X127822369Y-146604738D01*
X127892707Y-146604738D01*
X127963046Y-146604738D01*
X127963046Y-146956430D01*
X127963046Y-147308122D01*
X127903778Y-147308122D01*
X127881071Y-147307155D01*
X127861294Y-147301880D01*
X127840688Y-147288739D01*
X127815490Y-147264173D01*
X127781938Y-147224624D01*
X127736272Y-147166534D01*
X127688855Y-147104799D01*
X127533199Y-146901475D01*
X127528838Y-147104799D01*
X127524477Y-147308122D01*
X127446776Y-147308122D01*
X127369076Y-147308122D01*
X127369076Y-146956430D01*
X127369076Y-146604738D01*
X127437592Y-146604738D01*
X127468332Y-146605544D01*
G37*
G36*
X126281825Y-145706757D02*
G01*
X126314546Y-145765712D01*
X126337797Y-145802849D01*
X126356414Y-145817382D01*
X126375234Y-145808526D01*
X126399090Y-145775496D01*
X126432821Y-145717505D01*
X126455066Y-145678615D01*
X126515879Y-145573107D01*
X126597954Y-145573107D01*
X126680028Y-145573107D01*
X126555649Y-145780215D01*
X126431269Y-145987322D01*
X126431250Y-146131907D01*
X126431230Y-146276492D01*
X126360892Y-146276492D01*
X126290553Y-146276492D01*
X126290495Y-146139722D01*
X126289009Y-146066933D01*
X126283557Y-146016172D01*
X126272531Y-145978298D01*
X126256869Y-145948246D01*
X126234900Y-145911599D01*
X126202401Y-145856360D01*
X126164375Y-145791069D01*
X126137776Y-145745046D01*
X126102482Y-145683777D01*
X126072949Y-145632528D01*
X126052675Y-145597367D01*
X126045433Y-145584830D01*
X126055576Y-145578398D01*
X126088901Y-145574139D01*
X126122711Y-145573107D01*
X126206806Y-145573107D01*
X126281825Y-145706757D01*
G37*
G36*
X121495815Y-145573337D02*
G01*
X121591829Y-145575223D01*
X121665569Y-145580414D01*
X121713366Y-145588600D01*
X121724862Y-145592876D01*
X121780711Y-145637653D01*
X121817214Y-145699679D01*
X121832116Y-145770354D01*
X121823161Y-145841079D01*
X121801683Y-145885722D01*
X121750578Y-145941864D01*
X121684715Y-145977010D01*
X121599112Y-145993329D01*
X121550522Y-145995114D01*
X121445015Y-145995138D01*
X121445015Y-146135815D01*
X121445015Y-146276492D01*
X121374676Y-146276492D01*
X121304338Y-146276492D01*
X121304338Y-145924799D01*
X121304338Y-145870092D01*
X121445015Y-145870092D01*
X121527506Y-145870092D01*
X121589493Y-145864805D01*
X121636407Y-145850661D01*
X121644737Y-145845759D01*
X121673976Y-145809260D01*
X121675541Y-145765225D01*
X121653608Y-145726738D01*
X121627435Y-145708782D01*
X121585354Y-145699978D01*
X121536377Y-145698153D01*
X121445015Y-145698153D01*
X121445015Y-145784122D01*
X121445015Y-145870092D01*
X121304338Y-145870092D01*
X121304338Y-145784122D01*
X121304338Y-145573107D01*
X121495815Y-145573337D01*
G37*
G36*
X127210884Y-145573547D02*
G01*
X127271831Y-145575391D01*
X127313543Y-145579421D01*
X127342030Y-145586421D01*
X127363302Y-145597174D01*
X127375096Y-145605749D01*
X127427721Y-145664078D01*
X127455271Y-145731723D01*
X127458891Y-145802350D01*
X127439730Y-145869620D01*
X127398933Y-145927198D01*
X127337648Y-145968747D01*
X127307442Y-145979519D01*
X127259208Y-145988405D01*
X127197485Y-145994031D01*
X127162577Y-145995051D01*
X127073309Y-145995138D01*
X127068793Y-146131907D01*
X127064276Y-146268676D01*
X126990030Y-146273440D01*
X126915784Y-146278205D01*
X126915784Y-145925656D01*
X126915784Y-145864505D01*
X127072092Y-145864505D01*
X127151708Y-145868138D01*
X127223204Y-145863992D01*
X127268939Y-145847125D01*
X127299504Y-145811052D01*
X127304836Y-145766427D01*
X127283752Y-145724529D01*
X127281991Y-145722716D01*
X127248044Y-145705807D01*
X127188062Y-145698546D01*
X127164760Y-145698153D01*
X127072092Y-145698153D01*
X127072092Y-145781329D01*
X127072092Y-145864505D01*
X126915784Y-145864505D01*
X126915784Y-145781329D01*
X126915784Y-145573107D01*
X127124691Y-145573107D01*
X127210884Y-145573547D01*
G37*
G36*
X126323914Y-146605775D02*
G01*
X126396372Y-146609693D01*
X126449286Y-146617702D01*
X126488492Y-146631012D01*
X126519828Y-146650832D01*
X126540991Y-146670011D01*
X126581734Y-146730584D01*
X126598713Y-146801074D01*
X126592608Y-146873190D01*
X126564099Y-146938642D01*
X126514880Y-146988461D01*
X126465669Y-147021512D01*
X126543377Y-147164817D01*
X126621084Y-147308122D01*
X126537880Y-147308030D01*
X126454676Y-147307938D01*
X126384338Y-147175261D01*
X126350991Y-147113666D01*
X126326979Y-147074789D01*
X126307560Y-147053432D01*
X126287992Y-147044398D01*
X126263536Y-147042492D01*
X126263199Y-147042492D01*
X126212399Y-147042399D01*
X126212399Y-147175261D01*
X126212399Y-147308122D01*
X126134246Y-147308122D01*
X126056092Y-147308122D01*
X126056092Y-146956430D01*
X126056092Y-146921633D01*
X126212399Y-146921633D01*
X126315970Y-146913320D01*
X126377008Y-146905374D01*
X126418718Y-146893680D01*
X126432961Y-146883826D01*
X126446301Y-146842472D01*
X126442492Y-146798685D01*
X126423374Y-146766219D01*
X126416627Y-146761595D01*
X126384320Y-146752470D01*
X126334247Y-146746603D01*
X126299396Y-146745415D01*
X126212399Y-146745415D01*
X126212399Y-146833524D01*
X126212399Y-146921633D01*
X126056092Y-146921633D01*
X126056092Y-146833524D01*
X126056092Y-146604738D01*
X126226076Y-146604738D01*
X126323914Y-146605775D01*
G37*
G36*
X123292214Y-145577827D02*
G01*
X123294992Y-145578967D01*
X123360620Y-145616814D01*
X123423109Y-145670517D01*
X123471767Y-145730079D01*
X123487613Y-145759035D01*
X123507820Y-145831644D01*
X123514118Y-145916810D01*
X123506759Y-146001593D01*
X123485993Y-146073054D01*
X123481338Y-146082587D01*
X123440942Y-146142019D01*
X123387071Y-146198903D01*
X123329768Y-146243599D01*
X123294507Y-146261908D01*
X123231983Y-146275022D01*
X123154254Y-146276584D01*
X123074816Y-146267439D01*
X123007164Y-146248428D01*
X122995645Y-146243226D01*
X122917874Y-146188669D01*
X122860651Y-146115761D01*
X122824514Y-146030170D01*
X122810003Y-145937566D01*
X122810977Y-145925618D01*
X122961199Y-145925618D01*
X122973998Y-146000965D01*
X123008585Y-146062408D01*
X123059247Y-146107459D01*
X123120273Y-146133630D01*
X123185949Y-146138435D01*
X123250564Y-146119385D01*
X123306599Y-146076009D01*
X123343635Y-146014613D01*
X123359454Y-145941909D01*
X123354866Y-145866631D01*
X123330683Y-145797514D01*
X123287718Y-145743293D01*
X123274781Y-145733520D01*
X123207481Y-145704478D01*
X123139125Y-145702755D01*
X123075064Y-145725073D01*
X123020650Y-145768155D01*
X122981233Y-145828721D01*
X122962165Y-145903494D01*
X122961199Y-145925618D01*
X122810977Y-145925618D01*
X122817658Y-145843618D01*
X122848018Y-145753995D01*
X122901622Y-145674366D01*
X122938179Y-145639353D01*
X123018588Y-145590598D01*
X123110769Y-145563013D01*
X123205165Y-145558217D01*
X123292214Y-145577827D01*
G37*
G36*
X122261722Y-145573165D02*
G01*
X122346377Y-145573909D01*
X122406439Y-145576639D01*
X122448558Y-145582197D01*
X122479381Y-145591426D01*
X122503240Y-145603736D01*
X122556557Y-145651808D01*
X122589292Y-145713652D01*
X122601355Y-145782006D01*
X122592656Y-145849610D01*
X122563105Y-145909202D01*
X122512611Y-145953519D01*
X122507625Y-145956207D01*
X122460979Y-145980328D01*
X122507075Y-146069795D01*
X122537195Y-146125816D01*
X122567215Y-146177784D01*
X122585144Y-146206153D01*
X122606335Y-146240150D01*
X122616942Y-146262875D01*
X122617219Y-146264769D01*
X122603180Y-146271285D01*
X122567007Y-146275454D01*
X122535261Y-146276298D01*
X122453199Y-146276104D01*
X122383211Y-146143436D01*
X122350044Y-146081851D01*
X122326178Y-146042991D01*
X122306863Y-146021659D01*
X122287350Y-146012651D01*
X122262892Y-146010769D01*
X122262072Y-146010769D01*
X122210922Y-146010769D01*
X122210922Y-146143630D01*
X122210922Y-146276492D01*
X122140584Y-146276492D01*
X122070246Y-146276492D01*
X122070246Y-145924799D01*
X122070246Y-145870092D01*
X122210922Y-145870092D01*
X122303591Y-145870092D01*
X122371900Y-145865576D01*
X122413268Y-145851601D01*
X122420821Y-145845529D01*
X122441267Y-145808448D01*
X122444176Y-145764730D01*
X122430113Y-145727456D01*
X122415150Y-145714334D01*
X122382843Y-145705209D01*
X122332770Y-145699341D01*
X122297919Y-145698153D01*
X122210922Y-145698153D01*
X122210922Y-145784122D01*
X122210922Y-145870092D01*
X122070246Y-145870092D01*
X122070246Y-145784122D01*
X122070246Y-145573107D01*
X122261722Y-145573165D01*
G37*
G36*
X124841126Y-145567231D02*
G01*
X124929623Y-145597479D01*
X125007007Y-145649652D01*
X125067399Y-145723204D01*
X125071353Y-145730055D01*
X125093254Y-145775691D01*
X125105278Y-145822008D01*
X125110001Y-145881319D01*
X125110430Y-145916984D01*
X125100410Y-146023347D01*
X125068835Y-146109844D01*
X125013435Y-146181214D01*
X124964860Y-146220836D01*
X124922567Y-146247217D01*
X124881891Y-146262418D01*
X124830461Y-146269997D01*
X124785107Y-146272533D01*
X124694404Y-146270676D01*
X124628511Y-146256644D01*
X124618061Y-146252387D01*
X124533853Y-146198225D01*
X124466596Y-146121566D01*
X124420938Y-146028652D01*
X124405777Y-145967283D01*
X124405806Y-145897642D01*
X124565588Y-145897642D01*
X124571299Y-145972488D01*
X124597419Y-146042930D01*
X124633757Y-146091392D01*
X124667253Y-146119222D01*
X124703372Y-146132386D01*
X124755973Y-146135811D01*
X124758738Y-146135815D01*
X124812330Y-146132690D01*
X124848861Y-146120032D01*
X124882189Y-146092914D01*
X124883719Y-146091392D01*
X124917371Y-146045965D01*
X124942754Y-145991612D01*
X124945484Y-145982563D01*
X124954667Y-145901295D01*
X124939669Y-145828559D01*
X124904715Y-145768276D01*
X124854028Y-145724368D01*
X124791829Y-145700755D01*
X124722343Y-145701359D01*
X124664640Y-145721761D01*
X124612886Y-145764770D01*
X124579660Y-145825899D01*
X124565588Y-145897642D01*
X124405806Y-145897642D01*
X124405808Y-145893987D01*
X124423846Y-145811525D01*
X124455940Y-145732981D01*
X124493615Y-145676412D01*
X124567761Y-145613499D01*
X124654315Y-145574695D01*
X124747396Y-145559454D01*
X124841126Y-145567231D01*
G37*
G36*
X122680787Y-146622497D02*
G01*
X122724627Y-146641588D01*
X122769220Y-146670178D01*
X122806895Y-146702014D01*
X122829981Y-146730846D01*
X122833125Y-146746683D01*
X122817125Y-146764070D01*
X122783624Y-146787879D01*
X122769475Y-146796356D01*
X122711300Y-146829603D01*
X122667364Y-146787509D01*
X122609907Y-146752448D01*
X122543212Y-146742831D01*
X122476079Y-146758569D01*
X122427258Y-146789984D01*
X122398837Y-146819057D01*
X122382543Y-146849482D01*
X122373910Y-146892493D01*
X122370226Y-146933404D01*
X122372474Y-147023317D01*
X122394879Y-147091286D01*
X122438821Y-147140361D01*
X122473025Y-147160573D01*
X122532203Y-147177579D01*
X122594334Y-147177777D01*
X122651916Y-147163515D01*
X122697445Y-147137144D01*
X122723419Y-147101012D01*
X122726738Y-147081116D01*
X122724153Y-147058133D01*
X122711074Y-147046667D01*
X122679511Y-147042760D01*
X122648584Y-147042399D01*
X122570430Y-147042399D01*
X122570430Y-146979876D01*
X122570430Y-146917353D01*
X122718922Y-146917353D01*
X122867415Y-146917353D01*
X122867415Y-147055608D01*
X122866057Y-147129803D01*
X122858988Y-147180436D01*
X122841718Y-147215184D01*
X122809755Y-147241721D01*
X122758608Y-147267725D01*
X122737874Y-147277002D01*
X122636577Y-147308746D01*
X122535254Y-147316610D01*
X122448851Y-147301660D01*
X122353691Y-147256475D01*
X122282183Y-147191074D01*
X122235033Y-147106466D01*
X122212944Y-147003663D01*
X122211266Y-146960508D01*
X122223207Y-146853933D01*
X122259189Y-146765472D01*
X122320679Y-146691615D01*
X122325272Y-146687518D01*
X122406821Y-146635943D01*
X122502653Y-146608783D01*
X122606094Y-146607260D01*
X122680787Y-146622497D01*
G37*
G36*
X128612035Y-146607945D02*
G01*
X128694737Y-146624475D01*
X128764833Y-146654233D01*
X128771958Y-146658728D01*
X128822468Y-146697080D01*
X128844880Y-146728883D01*
X128840473Y-146758275D01*
X128811990Y-146788234D01*
X128766214Y-146817015D01*
X128728695Y-146818964D01*
X128691261Y-146793848D01*
X128682061Y-146784492D01*
X128649257Y-146758272D01*
X128608118Y-146747007D01*
X128572029Y-146745415D01*
X128495599Y-146757736D01*
X128438760Y-146793957D01*
X128402353Y-146852962D01*
X128387219Y-146933637D01*
X128388430Y-146988845D01*
X128396594Y-147046524D01*
X128413195Y-147086988D01*
X128444040Y-147124173D01*
X128445398Y-147125535D01*
X128479555Y-147155511D01*
X128512495Y-147170128D01*
X128558016Y-147174449D01*
X128578775Y-147174472D01*
X128654140Y-147165818D01*
X128708858Y-147142783D01*
X128739372Y-147107369D01*
X128744584Y-147081116D01*
X128741999Y-147058133D01*
X128728920Y-147046667D01*
X128697358Y-147042760D01*
X128666430Y-147042399D01*
X128588276Y-147042399D01*
X128588276Y-146979876D01*
X128588276Y-146917353D01*
X128736769Y-146917353D01*
X128885261Y-146917353D01*
X128885261Y-147048596D01*
X128884768Y-147112981D01*
X128881585Y-147154614D01*
X128873152Y-147182005D01*
X128856909Y-147203662D01*
X128831629Y-147226928D01*
X128784089Y-147258494D01*
X128720519Y-147287940D01*
X128653311Y-147310610D01*
X128594860Y-147321848D01*
X128578055Y-147322183D01*
X128544277Y-147317655D01*
X128497753Y-147308484D01*
X128488072Y-147306275D01*
X128393106Y-147271324D01*
X128320167Y-147215245D01*
X128267420Y-147136189D01*
X128238417Y-147054731D01*
X128225116Y-146947468D01*
X128240942Y-146847259D01*
X128283924Y-146757969D01*
X128352090Y-146683461D01*
X128443469Y-146627599D01*
X128459815Y-146620766D01*
X128529478Y-146606192D01*
X128612035Y-146607945D01*
G37*
G36*
X124699552Y-144060830D02*
G01*
X124700822Y-144207228D01*
X124702145Y-144325767D01*
X124703726Y-144419849D01*
X124705772Y-144492875D01*
X124708488Y-144548247D01*
X124712080Y-144589367D01*
X124716754Y-144619637D01*
X124722716Y-144642459D01*
X124730171Y-144661235D01*
X124736674Y-144674338D01*
X124782078Y-144738168D01*
X124842029Y-144779649D01*
X124920625Y-144800724D01*
X125010048Y-144803873D01*
X125075297Y-144799837D01*
X125120119Y-144791712D01*
X125155330Y-144776478D01*
X125187552Y-144754339D01*
X125213317Y-144733998D01*
X125234364Y-144713960D01*
X125251169Y-144690986D01*
X125264211Y-144661836D01*
X125273966Y-144623272D01*
X125280911Y-144572054D01*
X125285523Y-144504942D01*
X125288279Y-144418697D01*
X125289656Y-144310080D01*
X125290132Y-144175852D01*
X125290184Y-144057424D01*
X125290184Y-143509846D01*
X125438676Y-143509846D01*
X125587169Y-143509846D01*
X125590705Y-144021753D01*
X125591548Y-144148220D01*
X125592282Y-144267194D01*
X125592885Y-144374400D01*
X125593336Y-144465562D01*
X125593612Y-144536403D01*
X125593692Y-144582648D01*
X125593643Y-144596184D01*
X125577550Y-144711199D01*
X125533980Y-144818676D01*
X125466636Y-144913335D01*
X125379222Y-144989896D01*
X125281884Y-145040710D01*
X125178119Y-145069890D01*
X125060482Y-145087258D01*
X124944735Y-145090962D01*
X124889836Y-145086787D01*
X124755505Y-145058642D01*
X124641588Y-145010720D01*
X124550181Y-144944187D01*
X124483820Y-144860963D01*
X124462969Y-144823183D01*
X124445849Y-144785478D01*
X124432096Y-144744389D01*
X124421346Y-144696460D01*
X124413234Y-144638230D01*
X124407395Y-144566243D01*
X124403464Y-144477039D01*
X124401078Y-144367160D01*
X124399871Y-144233148D01*
X124399480Y-144071544D01*
X124399474Y-144060830D01*
X124399230Y-143509846D01*
X124547152Y-143509846D01*
X124695075Y-143509846D01*
X124699552Y-144060830D01*
G37*
G36*
X126884654Y-143501980D02*
G01*
X127021156Y-143546286D01*
X127145525Y-143613934D01*
X127253715Y-143702891D01*
X127341677Y-143811124D01*
X127386056Y-143890779D01*
X127442674Y-144047770D01*
X127469753Y-144211071D01*
X127467379Y-144377008D01*
X127435638Y-144541907D01*
X127374616Y-144702094D01*
X127366747Y-144718030D01*
X127292320Y-144831934D01*
X127195165Y-144928216D01*
X127079694Y-145004767D01*
X126950322Y-145059476D01*
X126811461Y-145090232D01*
X126667525Y-145094926D01*
X126595353Y-145086891D01*
X126446453Y-145047930D01*
X126312795Y-144982493D01*
X126196362Y-144892418D01*
X126099139Y-144779540D01*
X126023110Y-144645695D01*
X125975707Y-144513469D01*
X125946715Y-144356064D01*
X125945974Y-144256663D01*
X126274259Y-144256663D01*
X126276344Y-144361785D01*
X126290497Y-144458048D01*
X126306445Y-144510878D01*
X126358877Y-144611434D01*
X126428321Y-144695481D01*
X126500350Y-144750800D01*
X126549202Y-144777335D01*
X126591191Y-144793276D01*
X126638027Y-144801513D01*
X126701424Y-144804938D01*
X126721504Y-144805386D01*
X126792338Y-144802126D01*
X126852777Y-144786170D01*
X126901068Y-144764215D01*
X126995539Y-144699529D01*
X127069990Y-144613675D01*
X127123210Y-144510457D01*
X127153986Y-144393679D01*
X127161105Y-144267145D01*
X127143355Y-144134658D01*
X127123965Y-144064892D01*
X127091513Y-143998890D01*
X127040255Y-143930617D01*
X126978076Y-143868124D01*
X126912856Y-143819464D01*
X126859263Y-143794496D01*
X126740478Y-143774302D01*
X126627221Y-143783276D01*
X126523226Y-143819571D01*
X126432224Y-143881342D01*
X126357948Y-143966742D01*
X126306309Y-144067992D01*
X126284247Y-144154720D01*
X126274259Y-144256663D01*
X125945974Y-144256663D01*
X125945572Y-144202840D01*
X125970498Y-144056750D01*
X126019712Y-143920751D01*
X126091435Y-143797797D01*
X126183885Y-143690841D01*
X126295284Y-143602840D01*
X126423849Y-143536747D01*
X126567802Y-143495517D01*
X126591446Y-143491531D01*
X126740068Y-143483050D01*
X126884654Y-143501980D01*
G37*
G36*
X129269881Y-143510308D02*
G01*
X129324836Y-143511561D01*
X129360086Y-143513402D01*
X129369815Y-143515189D01*
X129374907Y-143530655D01*
X129389335Y-143571953D01*
X129411828Y-143635506D01*
X129441114Y-143717740D01*
X129475921Y-143815080D01*
X129514978Y-143923949D01*
X129535204Y-143980204D01*
X129617865Y-144210090D01*
X129690695Y-144412934D01*
X129753584Y-144588427D01*
X129806421Y-144736259D01*
X129849097Y-144856123D01*
X129881501Y-144947709D01*
X129903523Y-145010708D01*
X129915054Y-145044812D01*
X129916892Y-145051250D01*
X129902344Y-145053744D01*
X129863033Y-145055737D01*
X129805455Y-145056987D01*
X129754730Y-145057292D01*
X129592569Y-145057292D01*
X129533938Y-144900984D01*
X129475307Y-144744676D01*
X129195915Y-144744676D01*
X129105344Y-144744589D01*
X129025693Y-144744348D01*
X128962190Y-144743980D01*
X128920067Y-144743517D01*
X128904799Y-144743048D01*
X128894727Y-144756006D01*
X128876428Y-144792374D01*
X128852662Y-144846295D01*
X128830553Y-144900709D01*
X128768030Y-145059998D01*
X128615626Y-145062552D01*
X128550921Y-145062600D01*
X128499856Y-145060666D01*
X128469128Y-145057115D01*
X128463226Y-145054217D01*
X128468731Y-145036584D01*
X128485222Y-144989786D01*
X128512667Y-144913912D01*
X128551031Y-144809052D01*
X128600282Y-144675295D01*
X128660387Y-144512731D01*
X128683980Y-144449101D01*
X128994676Y-144449101D01*
X129009319Y-144454488D01*
X129049301Y-144458939D01*
X129108705Y-144462023D01*
X129181613Y-144463309D01*
X129190061Y-144463322D01*
X129264076Y-144462336D01*
X129325227Y-144459642D01*
X129367595Y-144455640D01*
X129385264Y-144450729D01*
X129385446Y-144450160D01*
X129380422Y-144431840D01*
X129366477Y-144389085D01*
X129345301Y-144326868D01*
X129318582Y-144250159D01*
X129291661Y-144174153D01*
X129261440Y-144089084D01*
X129235175Y-144014442D01*
X129214564Y-143955109D01*
X129201302Y-143915964D01*
X129197055Y-143902054D01*
X129191769Y-143912059D01*
X129177913Y-143946118D01*
X129157471Y-143998862D01*
X129132432Y-144064921D01*
X129104782Y-144138925D01*
X129076508Y-144215503D01*
X129049596Y-144289287D01*
X129026032Y-144354905D01*
X129007804Y-144406988D01*
X128996898Y-144440165D01*
X128994676Y-144449101D01*
X128683980Y-144449101D01*
X128731312Y-144321451D01*
X128813026Y-144101543D01*
X128905494Y-143853097D01*
X128944566Y-143748215D01*
X129033387Y-143509846D01*
X129201601Y-143509846D01*
X129269881Y-143510308D01*
G37*
G36*
X120382628Y-143496293D02*
G01*
X120503128Y-143534566D01*
X120611436Y-143595380D01*
X120669561Y-143643981D01*
X120706024Y-143686483D01*
X120741661Y-143739593D01*
X120772205Y-143795242D01*
X120793392Y-143845358D01*
X120800956Y-143881872D01*
X120799577Y-143889996D01*
X120782243Y-143901345D01*
X120743303Y-143914529D01*
X120690974Y-143927897D01*
X120633472Y-143939800D01*
X120579013Y-143948591D01*
X120535813Y-143952619D01*
X120512088Y-143950236D01*
X120510023Y-143948111D01*
X120490531Y-143911496D01*
X120457396Y-143866138D01*
X120420175Y-143824245D01*
X120396834Y-143803539D01*
X120351956Y-143782840D01*
X120287610Y-143768178D01*
X120215271Y-143761137D01*
X120146414Y-143763304D01*
X120126872Y-143766223D01*
X120078734Y-143784141D01*
X120031074Y-143814971D01*
X120023734Y-143821415D01*
X119989910Y-143861085D01*
X119976831Y-143904003D01*
X119975722Y-143928713D01*
X119982470Y-143976365D01*
X120004977Y-144016467D01*
X120046636Y-144051480D01*
X120110843Y-144083864D01*
X120200992Y-144116080D01*
X120257781Y-144133160D01*
X120418776Y-144184470D01*
X120550416Y-144237929D01*
X120654603Y-144295126D01*
X120733239Y-144357649D01*
X120788225Y-144427085D01*
X120821463Y-144505025D01*
X120834855Y-144593055D01*
X120835328Y-144615552D01*
X120828171Y-144716715D01*
X120804827Y-144799773D01*
X120762154Y-144875031D01*
X120752068Y-144888688D01*
X120689479Y-144957344D01*
X120617157Y-145007881D01*
X120525913Y-145046240D01*
X120492453Y-145056558D01*
X120336156Y-145088794D01*
X120182256Y-145093138D01*
X120117176Y-145087001D01*
X120020711Y-145065415D01*
X119924559Y-145027712D01*
X119838874Y-144978772D01*
X119773813Y-144923475D01*
X119771532Y-144920915D01*
X119732506Y-144868539D01*
X119696784Y-144806872D01*
X119668614Y-144744947D01*
X119652244Y-144691802D01*
X119650284Y-144663013D01*
X119656970Y-144643767D01*
X119674926Y-144630310D01*
X119710971Y-144619434D01*
X119764707Y-144609167D01*
X119851578Y-144595716D01*
X119911129Y-144590359D01*
X119946224Y-144593063D01*
X119959729Y-144603793D01*
X119960092Y-144606880D01*
X119966505Y-144631180D01*
X119982725Y-144671307D01*
X119992293Y-144691909D01*
X120036982Y-144754427D01*
X120101590Y-144796265D01*
X120188230Y-144818448D01*
X120262513Y-144822830D01*
X120365633Y-144814233D01*
X120443089Y-144788551D01*
X120494627Y-144745949D01*
X120519991Y-144686594D01*
X120522799Y-144653685D01*
X120510976Y-144600887D01*
X120474222Y-144555120D01*
X120410609Y-144514859D01*
X120318210Y-144478580D01*
X120290576Y-144470010D01*
X120139475Y-144422206D01*
X120015908Y-144376320D01*
X119916373Y-144330518D01*
X119837368Y-144282971D01*
X119775390Y-144231845D01*
X119726938Y-144175310D01*
X119726815Y-144175139D01*
X119695017Y-144126106D01*
X119677122Y-144082245D01*
X119668297Y-144029137D01*
X119665671Y-143992784D01*
X119669293Y-143878715D01*
X119695862Y-143781693D01*
X119747779Y-143695202D01*
X119794563Y-143643207D01*
X119891463Y-143568704D01*
X120004356Y-143516765D01*
X120127606Y-143487387D01*
X120255576Y-143480565D01*
X120382628Y-143496293D01*
G37*
G36*
X123462568Y-143503624D02*
G01*
X123590357Y-143548441D01*
X123708398Y-143615230D01*
X123813814Y-143702203D01*
X123903732Y-143807571D01*
X123975275Y-143929546D01*
X124025570Y-144066338D01*
X124051741Y-144216158D01*
X124054891Y-144291384D01*
X124045713Y-144425907D01*
X124016311Y-144549287D01*
X123963881Y-144670412D01*
X123903381Y-144771802D01*
X123849417Y-144853635D01*
X123922232Y-144957798D01*
X123961487Y-145017746D01*
X123982275Y-145060193D01*
X123987142Y-145090784D01*
X123985825Y-145098703D01*
X123979344Y-145116766D01*
X123966568Y-145127677D01*
X123940754Y-145133229D01*
X123895160Y-145135216D01*
X123847687Y-145135446D01*
X123783777Y-145134881D01*
X123742037Y-145131358D01*
X123713374Y-145122131D01*
X123688698Y-145104457D01*
X123663020Y-145079695D01*
X123607269Y-145023944D01*
X123509491Y-145056882D01*
X123395452Y-145082819D01*
X123268711Y-145091000D01*
X123142296Y-145081423D01*
X123037482Y-145056928D01*
X122897356Y-144995232D01*
X122779098Y-144911333D01*
X122683013Y-144805661D01*
X122609407Y-144678648D01*
X122558583Y-144530724D01*
X122530847Y-144362319D01*
X122528896Y-144338161D01*
X122529923Y-144291384D01*
X122844135Y-144291384D01*
X122844991Y-144369789D01*
X122848724Y-144426286D01*
X122856839Y-144470201D01*
X122870842Y-144510857D01*
X122884532Y-144541476D01*
X122934544Y-144624975D01*
X122998603Y-144698685D01*
X123069234Y-144755056D01*
X123122219Y-144781485D01*
X123187453Y-144797245D01*
X123263829Y-144805149D01*
X123336471Y-144804266D01*
X123378625Y-144797530D01*
X123392674Y-144791855D01*
X123396791Y-144781552D01*
X123388800Y-144761985D01*
X123366525Y-144728523D01*
X123327793Y-144676531D01*
X123312207Y-144656062D01*
X123257613Y-144583778D01*
X123220321Y-144532041D01*
X123198122Y-144496968D01*
X123188809Y-144474680D01*
X123190174Y-144461294D01*
X123197495Y-144454374D01*
X123219979Y-144445440D01*
X123264346Y-144431218D01*
X123322237Y-144414341D01*
X123341423Y-144409036D01*
X123467802Y-144374544D01*
X123551455Y-144481456D01*
X123590556Y-144529597D01*
X123623250Y-144566487D01*
X123644360Y-144586421D01*
X123648411Y-144588369D01*
X123663380Y-144574101D01*
X123680230Y-144536272D01*
X123696982Y-144482342D01*
X123711658Y-144419772D01*
X123722280Y-144356024D01*
X123726870Y-144298557D01*
X123726922Y-144292257D01*
X123714802Y-144156628D01*
X123680117Y-144038241D01*
X123624598Y-143939106D01*
X123549977Y-143861230D01*
X123457985Y-143806622D01*
X123350354Y-143777290D01*
X123278984Y-143772659D01*
X123163047Y-143787409D01*
X123061601Y-143829623D01*
X122976057Y-143898374D01*
X122907823Y-143992733D01*
X122889430Y-144029148D01*
X122868553Y-144077631D01*
X122855273Y-144119919D01*
X122847902Y-144165783D01*
X122844753Y-144224994D01*
X122844135Y-144291384D01*
X122529923Y-144291384D01*
X122532155Y-144189678D01*
X122561517Y-144044372D01*
X122614541Y-143907081D01*
X122688787Y-143782647D01*
X122781811Y-143675909D01*
X122891173Y-143591707D01*
X122911419Y-143579867D01*
X123049455Y-143518902D01*
X123189242Y-143487066D01*
X123327905Y-143482570D01*
X123462568Y-143503624D01*
G37*
G36*
X124914518Y-134135991D02*
G01*
X125176245Y-134148168D01*
X125419843Y-134172245D01*
X125653333Y-134209840D01*
X125884736Y-134262569D01*
X126122074Y-134332050D01*
X126373367Y-134419901D01*
X126431230Y-134441819D01*
X126494718Y-134469408D01*
X126578437Y-134510546D01*
X126676323Y-134561874D01*
X126782313Y-134620036D01*
X126890342Y-134681670D01*
X126994348Y-134743420D01*
X127088266Y-134801927D01*
X127126799Y-134827083D01*
X127300334Y-134951281D01*
X127478045Y-135094694D01*
X127654497Y-135252009D01*
X127824258Y-135417912D01*
X127981895Y-135587086D01*
X128121973Y-135754218D01*
X128239059Y-135913993D01*
X128241086Y-135917013D01*
X128289829Y-135992957D01*
X128347808Y-136088278D01*
X128410111Y-136194476D01*
X128471828Y-136303048D01*
X128528048Y-136405494D01*
X128573015Y-136491630D01*
X128667222Y-136697887D01*
X128754462Y-136925601D01*
X128832208Y-137166063D01*
X128897933Y-137410563D01*
X128949110Y-137650392D01*
X128983213Y-137876841D01*
X128987966Y-137921846D01*
X128994126Y-137981568D01*
X129000008Y-138032216D01*
X129004261Y-138062347D01*
X129006803Y-138088131D01*
X129010111Y-138139032D01*
X129013845Y-138208923D01*
X129017668Y-138291678D01*
X129019813Y-138343700D01*
X129017804Y-138686716D01*
X128985179Y-139029967D01*
X128922515Y-139371575D01*
X128830386Y-139709661D01*
X128709368Y-140042346D01*
X128560035Y-140367751D01*
X128382962Y-140683998D01*
X128233744Y-140911972D01*
X128123531Y-141059572D01*
X127993977Y-141215553D01*
X127851102Y-141373676D01*
X127700929Y-141527702D01*
X127549479Y-141671389D01*
X127402773Y-141798500D01*
X127302596Y-141876895D01*
X127012558Y-142073281D01*
X126702971Y-142247919D01*
X126378640Y-142398658D01*
X126044370Y-142523350D01*
X125704966Y-142619847D01*
X125577927Y-142648205D01*
X125404018Y-142678383D01*
X125212301Y-142701751D01*
X125012890Y-142717644D01*
X124815898Y-142725397D01*
X124631437Y-142724342D01*
X124516461Y-142718108D01*
X124148868Y-142673942D01*
X123790960Y-142600718D01*
X123444041Y-142499103D01*
X123109414Y-142369762D01*
X122788380Y-142213363D01*
X122482243Y-142030571D01*
X122192305Y-141822053D01*
X121919870Y-141588475D01*
X121666241Y-141330504D01*
X121556644Y-141204307D01*
X121415417Y-141023241D01*
X121275426Y-140821328D01*
X121141568Y-140606769D01*
X121018741Y-140387769D01*
X120911843Y-140172530D01*
X120837982Y-140000738D01*
X120784652Y-139851331D01*
X120732609Y-139678382D01*
X120683722Y-139489602D01*
X120639859Y-139292706D01*
X120602886Y-139095407D01*
X120576830Y-138922215D01*
X120565683Y-138814574D01*
X120557226Y-138687406D01*
X120551526Y-138547904D01*
X120549789Y-138460458D01*
X120772975Y-138460458D01*
X120774162Y-138625810D01*
X120778234Y-138767294D01*
X120786073Y-138892239D01*
X120798561Y-139007974D01*
X120816579Y-139121829D01*
X120841009Y-139241132D01*
X120872730Y-139373213D01*
X120891473Y-139445846D01*
X120974686Y-139726245D01*
X121074354Y-139992882D01*
X121192774Y-140250026D01*
X121332241Y-140501946D01*
X121495052Y-140752913D01*
X121683503Y-141007194D01*
X121824681Y-141180861D01*
X121874748Y-141239221D01*
X121919590Y-141289197D01*
X121954393Y-141325572D01*
X121974342Y-141343131D01*
X121974649Y-141343307D01*
X121996572Y-141359782D01*
X122034511Y-141392450D01*
X122082070Y-141435708D01*
X122109322Y-141461328D01*
X122275121Y-141607016D01*
X122463864Y-141752055D01*
X122667581Y-141891173D01*
X122878298Y-142019098D01*
X123088043Y-142130560D01*
X123201639Y-142183615D01*
X123346231Y-142242599D01*
X123510039Y-142301162D01*
X123681213Y-142355402D01*
X123847901Y-142401419D01*
X123906861Y-142415765D01*
X123978972Y-142432601D01*
X124039073Y-142446690D01*
X124081150Y-142456619D01*
X124099191Y-142460974D01*
X124099391Y-142461031D01*
X124099444Y-142454769D01*
X124571169Y-142454769D01*
X124578984Y-142462584D01*
X124586799Y-142454769D01*
X124578984Y-142446953D01*
X124571169Y-142454769D01*
X124099444Y-142454769D01*
X124099485Y-142449969D01*
X124094839Y-142432610D01*
X124095310Y-142423507D01*
X124586799Y-142423507D01*
X124594615Y-142431322D01*
X124602430Y-142423507D01*
X124594615Y-142415692D01*
X124586799Y-142423507D01*
X124095310Y-142423507D01*
X124096152Y-142407248D01*
X124108596Y-142392246D01*
X124602430Y-142392246D01*
X124610246Y-142400061D01*
X124618061Y-142392246D01*
X124610246Y-142384430D01*
X124602430Y-142392246D01*
X124108596Y-142392246D01*
X124119452Y-142379158D01*
X124144585Y-142359251D01*
X124172265Y-142337538D01*
X124633692Y-142337538D01*
X124639411Y-142350404D01*
X124644112Y-142347958D01*
X124645983Y-142329408D01*
X124644112Y-142327117D01*
X124634820Y-142329263D01*
X124633692Y-142337538D01*
X124172265Y-142337538D01*
X124221551Y-142298877D01*
X124278041Y-142242531D01*
X124287909Y-142228122D01*
X124633692Y-142228122D01*
X124639411Y-142240988D01*
X124644112Y-142238543D01*
X124645983Y-142219993D01*
X124644112Y-142217702D01*
X124634820Y-142219848D01*
X124633692Y-142228122D01*
X124287909Y-142228122D01*
X124319671Y-142181741D01*
X124350802Y-142110892D01*
X124649322Y-142110892D01*
X124657138Y-142118707D01*
X124664953Y-142110892D01*
X124657138Y-142103076D01*
X124649322Y-142110892D01*
X124350802Y-142110892D01*
X124352058Y-142108034D01*
X124378111Y-142021886D01*
X124657557Y-142021886D01*
X124657635Y-142051050D01*
X124661028Y-142050666D01*
X124665507Y-142032738D01*
X124673999Y-141976730D01*
X124679127Y-141912543D01*
X124679211Y-141909631D01*
X124853236Y-141909631D01*
X124854678Y-141947925D01*
X124859331Y-141996113D01*
X124866005Y-142044432D01*
X124873512Y-142083117D01*
X124880664Y-142102404D01*
X124882008Y-142103076D01*
X124885658Y-142088930D01*
X124884664Y-142051658D01*
X124881046Y-142016326D01*
X125103849Y-142016326D01*
X125105377Y-142054701D01*
X125112877Y-142065423D01*
X125120004Y-142060678D01*
X125129541Y-142034651D01*
X125121238Y-141998936D01*
X125110848Y-141972174D01*
X125106037Y-141970561D01*
X125104281Y-141996624D01*
X125103849Y-142016326D01*
X124881046Y-142016326D01*
X124879273Y-141999012D01*
X124878516Y-141993304D01*
X124870320Y-141940747D01*
X124862517Y-141904187D01*
X124856663Y-141890745D01*
X124856193Y-141890996D01*
X124853236Y-141909631D01*
X124679211Y-141909631D01*
X124679683Y-141893363D01*
X124679312Y-141844209D01*
X124677014Y-141824446D01*
X124673275Y-141832302D01*
X124668583Y-141865999D01*
X124663424Y-141923762D01*
X124660740Y-141962399D01*
X124657557Y-142021886D01*
X124378111Y-142021886D01*
X124380817Y-142012938D01*
X124385166Y-141996304D01*
X124398721Y-141929830D01*
X124408274Y-141865316D01*
X124543587Y-141865316D01*
X124546343Y-141872710D01*
X124554033Y-141858507D01*
X124562068Y-141826264D01*
X124568737Y-141774100D01*
X124572571Y-141713820D01*
X124572996Y-141657590D01*
X124570720Y-141614313D01*
X124566231Y-141592820D01*
X124565856Y-141592369D01*
X124560413Y-141600819D01*
X124556609Y-141633157D01*
X124555366Y-141674533D01*
X124553827Y-141738377D01*
X124550079Y-141800512D01*
X124547147Y-141829538D01*
X124543587Y-141865316D01*
X124408274Y-141865316D01*
X124412257Y-141838413D01*
X124425213Y-141728369D01*
X124437029Y-141606010D01*
X124445898Y-141493476D01*
X124789999Y-141493476D01*
X124795718Y-141506342D01*
X124800420Y-141503897D01*
X124802291Y-141485347D01*
X124800420Y-141483056D01*
X124791127Y-141485201D01*
X124789999Y-141493476D01*
X124445898Y-141493476D01*
X124447145Y-141477653D01*
X124453366Y-141376246D01*
X124794470Y-141376246D01*
X124795463Y-141413314D01*
X124798249Y-141426864D01*
X124801002Y-141419445D01*
X124803817Y-141376563D01*
X124801216Y-141341291D01*
X124797634Y-141330444D01*
X124795173Y-141347338D01*
X124794470Y-141376246D01*
X124453366Y-141376246D01*
X124455000Y-141349610D01*
X124459977Y-141229577D01*
X124564113Y-141229577D01*
X124564319Y-141266573D01*
X124565709Y-141272722D01*
X124568281Y-141247880D01*
X124570773Y-141212122D01*
X124573568Y-141162046D01*
X124760725Y-141162046D01*
X124768394Y-141174824D01*
X124774369Y-141173046D01*
X124784948Y-141152126D01*
X124788926Y-141114923D01*
X124788901Y-141113508D01*
X124786972Y-141082633D01*
X124781722Y-141080134D01*
X124774369Y-141094892D01*
X124762717Y-141132372D01*
X124760725Y-141162046D01*
X124573568Y-141162046D01*
X124574927Y-141137711D01*
X124579426Y-141040852D01*
X124582941Y-140954215D01*
X124795128Y-140954215D01*
X124795817Y-140999844D01*
X124797756Y-141022417D01*
X124800560Y-141018251D01*
X124801281Y-141013179D01*
X124803905Y-140961490D01*
X124801618Y-140905852D01*
X124801407Y-140903763D01*
X124798508Y-140888973D01*
X124796310Y-140902364D01*
X124795194Y-140940860D01*
X124795128Y-140954215D01*
X124582941Y-140954215D01*
X124583909Y-140930352D01*
X124588020Y-140815016D01*
X124588065Y-140813538D01*
X124711846Y-140813538D01*
X124719661Y-140821353D01*
X124727476Y-140813538D01*
X124719661Y-140805722D01*
X124711846Y-140813538D01*
X124588065Y-140813538D01*
X124591170Y-140711938D01*
X124593685Y-140613203D01*
X124594894Y-140545456D01*
X124594790Y-140508447D01*
X124593367Y-140501931D01*
X124590621Y-140525659D01*
X124587667Y-140563446D01*
X124583360Y-140634356D01*
X124578826Y-140728147D01*
X124574408Y-140836443D01*
X124570447Y-140950867D01*
X124567285Y-141063045D01*
X124567271Y-141063630D01*
X124565096Y-141161881D01*
X124564113Y-141229577D01*
X124459977Y-141229577D01*
X124460034Y-141228196D01*
X124461679Y-141133969D01*
X124463461Y-141036281D01*
X124467757Y-140925349D01*
X124473800Y-140819015D01*
X124477128Y-140774461D01*
X124482640Y-140696554D01*
X124488272Y-140597249D01*
X124493539Y-140486405D01*
X124495206Y-140443980D01*
X124719926Y-140443980D01*
X124720733Y-140519829D01*
X124721180Y-140547815D01*
X124722750Y-140641292D01*
X124723984Y-140707863D01*
X124725120Y-140751877D01*
X124726397Y-140777682D01*
X124728054Y-140789629D01*
X124730330Y-140792067D01*
X124733464Y-140789346D01*
X124734394Y-140788384D01*
X124737631Y-140770582D01*
X124740060Y-140729489D01*
X124741263Y-140673073D01*
X124741322Y-140656825D01*
X124739617Y-140577456D01*
X124735150Y-140491892D01*
X124729289Y-140422769D01*
X124724888Y-140388383D01*
X124721918Y-140379577D01*
X124720292Y-140397669D01*
X124719926Y-140443980D01*
X124495206Y-140443980D01*
X124497960Y-140373878D01*
X124500121Y-140305538D01*
X124503243Y-140201260D01*
X124506732Y-140096304D01*
X124509367Y-140024184D01*
X124746733Y-140024184D01*
X124748363Y-140052621D01*
X124752420Y-140055973D01*
X124753882Y-140051538D01*
X124756313Y-140011895D01*
X124753882Y-139996830D01*
X124749351Y-139991965D01*
X124746885Y-140013579D01*
X124746733Y-140024184D01*
X124509367Y-140024184D01*
X124510278Y-139999253D01*
X124513572Y-139918690D01*
X124515614Y-139875692D01*
X124517980Y-139817665D01*
X124518272Y-139777359D01*
X124516533Y-139760029D01*
X124514674Y-139762369D01*
X124494322Y-139785602D01*
X124478315Y-139789722D01*
X124453644Y-139801929D01*
X124423109Y-139832870D01*
X124408901Y-139852246D01*
X124373033Y-139896212D01*
X124339309Y-139913942D01*
X124329592Y-139914769D01*
X124291356Y-139906583D01*
X124279894Y-139882303D01*
X124290358Y-139851230D01*
X124303922Y-139820680D01*
X124300845Y-139813142D01*
X124283830Y-139827069D01*
X124255578Y-139860914D01*
X124242467Y-139878663D01*
X124167457Y-139971010D01*
X124097148Y-140032562D01*
X124031428Y-140063415D01*
X124020060Y-140065719D01*
X123979576Y-140075293D01*
X123954314Y-140087002D01*
X123952015Y-140089519D01*
X123935966Y-140093321D01*
X123914802Y-140079740D01*
X123900338Y-140057675D01*
X123899045Y-140049624D01*
X123910136Y-140030007D01*
X123938346Y-139999922D01*
X123957660Y-139982683D01*
X124016276Y-139933367D01*
X123969384Y-139942141D01*
X123925882Y-139956294D01*
X123875888Y-139980600D01*
X123863404Y-139988043D01*
X123805411Y-140016218D01*
X123738762Y-140035967D01*
X123670738Y-140046718D01*
X123608623Y-140047899D01*
X123559696Y-140038936D01*
X123531242Y-140019257D01*
X123528788Y-140014358D01*
X123534007Y-139988342D01*
X123562410Y-139958983D01*
X123607186Y-139931760D01*
X123653096Y-139914373D01*
X123707340Y-139895043D01*
X123763283Y-139869340D01*
X123770326Y-139865553D01*
X123828707Y-139833299D01*
X123789630Y-139865769D01*
X123773254Y-139880713D01*
X123774120Y-139885591D01*
X123795728Y-139879877D01*
X123841579Y-139863043D01*
X123863381Y-139854667D01*
X123921933Y-139830139D01*
X123971803Y-139805826D01*
X124003197Y-139786552D01*
X124005289Y-139784777D01*
X124031856Y-139764626D01*
X124046358Y-139758461D01*
X124071023Y-139747383D01*
X124110224Y-139717709D01*
X124158385Y-139674774D01*
X124209933Y-139623917D01*
X124230948Y-139601163D01*
X126009199Y-139601163D01*
X126022888Y-139612490D01*
X126056221Y-139620420D01*
X126059999Y-139620835D01*
X126104131Y-139622923D01*
X126118837Y-139617181D01*
X126105066Y-139603179D01*
X126102531Y-139601543D01*
X126071567Y-139590022D01*
X126037640Y-139587376D01*
X126013581Y-139593658D01*
X126009199Y-139601163D01*
X124230948Y-139601163D01*
X124259292Y-139570474D01*
X124300888Y-139519782D01*
X124303829Y-139515728D01*
X125140740Y-139515728D01*
X125146772Y-139524690D01*
X125178475Y-139544320D01*
X125217169Y-139564791D01*
X125266997Y-139589044D01*
X125292377Y-139597712D01*
X125296066Y-139590615D01*
X125280819Y-139567572D01*
X125275688Y-139560968D01*
X125252921Y-139522554D01*
X125243293Y-139487500D01*
X125243292Y-139487152D01*
X125242017Y-139465681D01*
X125234202Y-139468537D01*
X125218017Y-139490605D01*
X125186274Y-139517828D01*
X125161763Y-139518588D01*
X125140740Y-139515728D01*
X124303829Y-139515728D01*
X124312766Y-139503410D01*
X124345006Y-139454156D01*
X124366945Y-139415452D01*
X124377555Y-139390712D01*
X124375810Y-139383351D01*
X124360683Y-139396786D01*
X124335144Y-139428986D01*
X124307090Y-139460241D01*
X124282867Y-139476467D01*
X124279060Y-139477107D01*
X124257253Y-139487468D01*
X124223191Y-139514087D01*
X124198109Y-139537551D01*
X124148982Y-139578673D01*
X124095015Y-139604263D01*
X124024748Y-139619231D01*
X124000646Y-139622181D01*
X123973872Y-139615276D01*
X123967279Y-139602153D01*
X123963800Y-139570622D01*
X123962736Y-139563076D01*
X123952422Y-139563713D01*
X123929341Y-139583745D01*
X123917949Y-139596186D01*
X123870362Y-139641014D01*
X123820650Y-139671828D01*
X123774468Y-139687258D01*
X123737469Y-139685931D01*
X123715305Y-139666474D01*
X123711476Y-139646298D01*
X123704807Y-139626171D01*
X123681818Y-139621817D01*
X123638040Y-139633082D01*
X123611328Y-139642836D01*
X123589888Y-139645420D01*
X123588345Y-139633809D01*
X123604512Y-139615934D01*
X123621599Y-139605600D01*
X123643228Y-139592622D01*
X123635614Y-139588620D01*
X123598596Y-139593615D01*
X123532012Y-139607632D01*
X123435699Y-139630693D01*
X123417810Y-139635151D01*
X123332020Y-139655786D01*
X123270753Y-139668193D01*
X123228583Y-139673112D01*
X123200085Y-139671283D01*
X123186150Y-139666748D01*
X123158067Y-139646396D01*
X123148769Y-139627607D01*
X123134511Y-139602725D01*
X123094679Y-139588778D01*
X123062140Y-139586522D01*
X123013516Y-139581212D01*
X122959495Y-139567493D01*
X122908787Y-139548680D01*
X122870102Y-139528090D01*
X122852151Y-139509039D01*
X122851784Y-139506430D01*
X122860046Y-139458801D01*
X122886882Y-139434815D01*
X122918656Y-139430215D01*
X122961612Y-139422948D01*
X122991846Y-139407325D01*
X123016553Y-139394462D01*
X123064533Y-139376827D01*
X123128639Y-139356839D01*
X123194598Y-139338737D01*
X123269368Y-139319286D01*
X123317026Y-139305903D01*
X123340766Y-139296981D01*
X123343783Y-139290917D01*
X123329269Y-139286105D01*
X123307305Y-139282099D01*
X123276366Y-139274179D01*
X123915071Y-139274179D01*
X123923661Y-139275708D01*
X123952260Y-139258592D01*
X123992830Y-139227015D01*
X124027032Y-139196420D01*
X125001015Y-139196420D01*
X125003746Y-139205995D01*
X125024917Y-139231991D01*
X125060271Y-139269332D01*
X125071353Y-139280362D01*
X125112810Y-139319424D01*
X125145393Y-139346894D01*
X125163270Y-139357943D01*
X125164679Y-139357664D01*
X125158126Y-139344020D01*
X125133961Y-139314982D01*
X125097284Y-139276636D01*
X125094341Y-139273722D01*
X125053499Y-139235410D01*
X125020152Y-139207714D01*
X125001318Y-139196446D01*
X125001015Y-139196420D01*
X124027032Y-139196420D01*
X124032975Y-139191104D01*
X124061174Y-139161485D01*
X124070984Y-139145491D01*
X124069048Y-139141046D01*
X124289815Y-139141046D01*
X124297630Y-139148861D01*
X124298648Y-139147843D01*
X124340539Y-139147843D01*
X124342677Y-139148861D01*
X124356942Y-139137857D01*
X124360153Y-139133230D01*
X124364136Y-139118617D01*
X124361998Y-139117599D01*
X124347734Y-139128603D01*
X124344522Y-139133230D01*
X124340539Y-139147843D01*
X124298648Y-139147843D01*
X124305446Y-139141046D01*
X124297630Y-139133230D01*
X124289815Y-139141046D01*
X124069048Y-139141046D01*
X124068086Y-139138837D01*
X124056587Y-139143232D01*
X124032278Y-139161609D01*
X123990950Y-139196902D01*
X123966720Y-139218168D01*
X123928691Y-139254751D01*
X123915071Y-139274179D01*
X123276366Y-139274179D01*
X123260295Y-139270065D01*
X123244129Y-139254815D01*
X123258516Y-139235934D01*
X123269907Y-139228843D01*
X123285139Y-139218185D01*
X123282974Y-139211384D01*
X123398861Y-139211384D01*
X123412318Y-139222373D01*
X123441846Y-139225916D01*
X123469649Y-139224016D01*
X123468667Y-139218474D01*
X123456273Y-139212654D01*
X123524111Y-139212654D01*
X123545394Y-139209586D01*
X123582382Y-139198377D01*
X123628400Y-139180721D01*
X123634332Y-139178198D01*
X123677262Y-139157543D01*
X123705270Y-139139873D01*
X123711476Y-139132170D01*
X123698772Y-139132780D01*
X123666655Y-139142888D01*
X123624114Y-139158937D01*
X123580140Y-139177367D01*
X123543725Y-139194621D01*
X123525210Y-139205888D01*
X123524111Y-139212654D01*
X123456273Y-139212654D01*
X123453569Y-139211384D01*
X123417046Y-139198394D01*
X123401123Y-139201448D01*
X123398861Y-139211384D01*
X123282974Y-139211384D01*
X123282461Y-139209773D01*
X123257522Y-139200661D01*
X123211292Y-139189154D01*
X123172871Y-139172399D01*
X123131852Y-139143989D01*
X123128579Y-139141146D01*
X123100664Y-139112130D01*
X123098760Y-139104813D01*
X124122380Y-139104813D01*
X124132544Y-139116830D01*
X124142218Y-139124137D01*
X124170126Y-139139812D01*
X124180051Y-139135214D01*
X124173227Y-139118639D01*
X124150193Y-139103816D01*
X124137412Y-139101969D01*
X124122380Y-139104813D01*
X123098760Y-139104813D01*
X123094750Y-139089408D01*
X123102135Y-139070223D01*
X123115106Y-139052455D01*
X123135004Y-139044454D01*
X123170616Y-139044470D01*
X123211168Y-139048490D01*
X123300478Y-139050763D01*
X123397094Y-139040493D01*
X123409550Y-139038207D01*
X123474455Y-139022825D01*
X123520082Y-139003383D01*
X123558374Y-138974224D01*
X123571405Y-138961536D01*
X123621187Y-138921627D01*
X123681373Y-138887102D01*
X123704267Y-138877493D01*
X123772979Y-138851704D01*
X123815905Y-138832659D01*
X123837113Y-138817833D01*
X123840674Y-138804702D01*
X123835571Y-138796022D01*
X123826982Y-138779691D01*
X123836577Y-138768006D01*
X123868881Y-138758466D01*
X123918845Y-138749984D01*
X123972984Y-138736269D01*
X124006746Y-138717348D01*
X125044127Y-138717348D01*
X125064880Y-138731127D01*
X125102615Y-138749010D01*
X125158627Y-138772495D01*
X125191800Y-138784623D01*
X125207732Y-138787018D01*
X125212021Y-138781308D01*
X125212030Y-138780774D01*
X125198794Y-138768529D01*
X125165858Y-138751283D01*
X125123384Y-138733293D01*
X125081532Y-138718815D01*
X125050461Y-138712104D01*
X125047907Y-138712023D01*
X125044127Y-138717348D01*
X124006746Y-138717348D01*
X124021751Y-138708939D01*
X124067338Y-138670938D01*
X124117856Y-138624646D01*
X124178121Y-138569519D01*
X124228231Y-138523749D01*
X125103639Y-138523749D01*
X125107520Y-138531843D01*
X125116252Y-138543169D01*
X125139066Y-138567469D01*
X125149250Y-138567364D01*
X125149507Y-138564621D01*
X125138825Y-138551573D01*
X125122153Y-138537267D01*
X125103639Y-138523749D01*
X124228231Y-138523749D01*
X124232926Y-138519461D01*
X124276430Y-138476738D01*
X125040092Y-138476738D01*
X125052815Y-138490456D01*
X125064460Y-138492369D01*
X125080639Y-138484791D01*
X125079169Y-138476738D01*
X125059185Y-138461703D01*
X125054800Y-138461107D01*
X125040513Y-138473029D01*
X125040092Y-138476738D01*
X124276430Y-138476738D01*
X124284378Y-138468933D01*
X124312005Y-138432306D01*
X124318174Y-138406411D01*
X124317998Y-138405508D01*
X124311582Y-138394133D01*
X124297377Y-138397577D01*
X124271396Y-138418487D01*
X124229652Y-138459512D01*
X124216666Y-138472830D01*
X124170438Y-138517129D01*
X124129039Y-138550884D01*
X124099266Y-138568761D01*
X124092517Y-138570283D01*
X124052914Y-138562376D01*
X124030985Y-138543275D01*
X124032201Y-138521470D01*
X124029050Y-138519161D01*
X124008385Y-138535168D01*
X123983404Y-138557869D01*
X123911101Y-138614689D01*
X123844598Y-138643480D01*
X123785654Y-138643725D01*
X123749633Y-138626490D01*
X123730722Y-138610296D01*
X123730675Y-138595329D01*
X123750797Y-138570792D01*
X123757186Y-138563967D01*
X123779966Y-138535469D01*
X123778831Y-138525168D01*
X123755389Y-138533211D01*
X123711249Y-138559744D01*
X123711197Y-138559779D01*
X123649521Y-138596351D01*
X123587240Y-138625929D01*
X123531429Y-138645890D01*
X123489160Y-138653613D01*
X123469874Y-138649236D01*
X123455871Y-138621245D01*
X123452380Y-138579440D01*
X123460071Y-138539676D01*
X123464844Y-138530221D01*
X123459741Y-138520680D01*
X123426658Y-138518305D01*
X123390310Y-138520433D01*
X123333806Y-138522033D01*
X123307295Y-138514967D01*
X123305076Y-138509935D01*
X123292052Y-138495509D01*
X123274868Y-138492369D01*
X123247767Y-138479239D01*
X123231030Y-138449644D01*
X123232443Y-138418270D01*
X123234040Y-138415344D01*
X123258217Y-138395149D01*
X123307603Y-138368462D01*
X123377432Y-138337673D01*
X123430122Y-138317114D01*
X123479357Y-138297811D01*
X123517105Y-138281345D01*
X123531722Y-138273496D01*
X123555624Y-138261628D01*
X123596099Y-138246125D01*
X123609876Y-138241452D01*
X123647081Y-138228298D01*
X123657312Y-138220353D01*
X123643577Y-138213970D01*
X123634481Y-138211630D01*
X123599985Y-138197489D01*
X123596290Y-138179380D01*
X123604130Y-138172950D01*
X124529801Y-138172950D01*
X124533012Y-138179256D01*
X124557396Y-138170981D01*
X124579904Y-138156804D01*
X124596906Y-138139664D01*
X124593695Y-138133358D01*
X124569310Y-138141633D01*
X124546802Y-138155810D01*
X124529801Y-138172950D01*
X123604130Y-138172950D01*
X123623448Y-138157105D01*
X123653035Y-138142341D01*
X123691796Y-138124192D01*
X123704770Y-138113910D01*
X123694958Y-138107177D01*
X123680215Y-138103246D01*
X123642359Y-138088537D01*
X123594066Y-138062645D01*
X123555804Y-138038582D01*
X124109579Y-138038582D01*
X124115089Y-138039104D01*
X124143366Y-138019287D01*
X124184420Y-137983601D01*
X124229983Y-137939296D01*
X124235797Y-137933291D01*
X124282934Y-137882541D01*
X124288184Y-137876147D01*
X125104285Y-137876147D01*
X125109678Y-137890270D01*
X125132212Y-137915892D01*
X125163976Y-137945814D01*
X125197059Y-137972836D01*
X125223549Y-137989759D01*
X125231805Y-137992184D01*
X125231795Y-137990880D01*
X125626246Y-137990880D01*
X125665322Y-138014424D01*
X125701828Y-138031826D01*
X125727846Y-138038047D01*
X125743432Y-138036183D01*
X125731006Y-138026663D01*
X125727846Y-138024861D01*
X125694443Y-138010467D01*
X125665322Y-138001238D01*
X125626246Y-137990880D01*
X125231795Y-137990880D01*
X125231725Y-137981752D01*
X125214885Y-137955313D01*
X125201847Y-137938831D01*
X125157396Y-137892445D01*
X125123635Y-137871984D01*
X125104285Y-137876147D01*
X124288184Y-137876147D01*
X124307911Y-137852122D01*
X124312013Y-137841683D01*
X124296523Y-137850872D01*
X124262724Y-137879341D01*
X124211901Y-137926737D01*
X124193186Y-137944928D01*
X124149956Y-137988828D01*
X124121105Y-138021231D01*
X124109579Y-138038582D01*
X123555804Y-138038582D01*
X123544192Y-138031279D01*
X123534123Y-138023921D01*
X123950930Y-138023921D01*
X123963855Y-138021402D01*
X123997720Y-138001927D01*
X124028093Y-137981595D01*
X124068399Y-137949605D01*
X124098460Y-137918563D01*
X124104989Y-137908904D01*
X124114102Y-137889830D01*
X124108351Y-137888830D01*
X124083057Y-137906233D01*
X124076701Y-137910882D01*
X124021829Y-137952965D01*
X123981513Y-137987381D01*
X123957348Y-138011807D01*
X123950930Y-138023921D01*
X123534123Y-138023921D01*
X123501593Y-138000150D01*
X123475127Y-137974967D01*
X123471297Y-137968568D01*
X123472874Y-137941930D01*
X123498154Y-137926836D01*
X123541231Y-137924801D01*
X123594872Y-137936884D01*
X123646021Y-137951541D01*
X123691168Y-137960054D01*
X123703891Y-137960922D01*
X123766923Y-137949729D01*
X123839100Y-137919520D01*
X123909625Y-137875353D01*
X123940247Y-137850204D01*
X123976938Y-137819320D01*
X125555907Y-137819320D01*
X125568406Y-137833641D01*
X125596965Y-137850937D01*
X125628176Y-137863741D01*
X125639882Y-137866080D01*
X125643298Y-137857571D01*
X125635463Y-137845381D01*
X125612055Y-137827027D01*
X125583298Y-137814948D01*
X125561130Y-137813054D01*
X125555907Y-137819320D01*
X123976938Y-137819320D01*
X123990330Y-137808047D01*
X124043439Y-137768094D01*
X124065293Y-137753390D01*
X124141842Y-137700588D01*
X124159776Y-137685701D01*
X125095813Y-137685701D01*
X125118235Y-137703677D01*
X125120041Y-137704688D01*
X125158324Y-137722672D01*
X125174404Y-137722970D01*
X125166427Y-137706195D01*
X125154557Y-137693302D01*
X125123635Y-137672054D01*
X125102080Y-137672084D01*
X125095813Y-137685701D01*
X124159776Y-137685701D01*
X124203527Y-137649384D01*
X124246318Y-137603634D01*
X124266186Y-137567192D01*
X124267095Y-137560314D01*
X124265470Y-137531893D01*
X124261764Y-137523261D01*
X124247534Y-137532552D01*
X124217440Y-137556429D01*
X124192175Y-137577642D01*
X124141273Y-137612167D01*
X124075559Y-137644465D01*
X124004723Y-137671024D01*
X123938454Y-137688330D01*
X123886440Y-137692870D01*
X123877495Y-137691736D01*
X123845759Y-137692704D01*
X123830750Y-137715627D01*
X123830369Y-137717041D01*
X123821405Y-137739505D01*
X123806973Y-137734415D01*
X123797269Y-137725168D01*
X123781274Y-137698206D01*
X123787146Y-137662736D01*
X123788408Y-137659336D01*
X123797105Y-137631572D01*
X123788910Y-137622841D01*
X123757216Y-137627099D01*
X123753881Y-137627739D01*
X123708038Y-137641270D01*
X123672829Y-137658494D01*
X123632019Y-137675864D01*
X123591224Y-137677737D01*
X123563117Y-137663797D01*
X123561341Y-137661280D01*
X123553651Y-137634579D01*
X123549047Y-137591914D01*
X123548696Y-137582117D01*
X123546259Y-137546751D01*
X123541726Y-137537290D01*
X123823399Y-137537290D01*
X123825319Y-137537547D01*
X123854188Y-137531502D01*
X123898783Y-137514521D01*
X123932381Y-137498764D01*
X123980939Y-137472112D01*
X124002010Y-137456315D01*
X123997604Y-137451882D01*
X123969733Y-137459319D01*
X123920409Y-137479134D01*
X123896898Y-137489811D01*
X123852464Y-137512324D01*
X123826369Y-137529214D01*
X123823399Y-137537290D01*
X123541726Y-137537290D01*
X123535968Y-137525270D01*
X123510380Y-137509756D01*
X123465255Y-137493380D01*
X123413236Y-137472732D01*
X123369962Y-137450389D01*
X123353590Y-137438759D01*
X123334438Y-137416622D01*
X123334694Y-137393517D01*
X123345961Y-137368025D01*
X123366266Y-137339001D01*
X123397119Y-137322746D01*
X123441996Y-137314067D01*
X123496234Y-137306538D01*
X123548414Y-137298673D01*
X123611019Y-137288542D01*
X123661548Y-137280107D01*
X123706765Y-137265473D01*
X123741514Y-137243130D01*
X123758158Y-137223730D01*
X123754357Y-137211249D01*
X123726076Y-137197704D01*
X123716653Y-137193979D01*
X123678823Y-137172293D01*
X123668168Y-137149015D01*
X123668190Y-137148900D01*
X123677236Y-137135945D01*
X123702114Y-137128238D01*
X123724949Y-137126437D01*
X125107988Y-137126437D01*
X125110430Y-137132492D01*
X125124476Y-137147403D01*
X125126983Y-137148122D01*
X125133697Y-137136029D01*
X125133876Y-137132492D01*
X125121860Y-137117462D01*
X125117323Y-137116861D01*
X125107988Y-137126437D01*
X123724949Y-137126437D01*
X123748722Y-137124562D01*
X123789872Y-137123783D01*
X123868471Y-137121431D01*
X123922922Y-137114131D01*
X123926629Y-137112666D01*
X124296992Y-137112666D01*
X124312018Y-137113146D01*
X124347439Y-137093843D01*
X124368248Y-137080214D01*
X124414291Y-137053706D01*
X124458445Y-137035067D01*
X124465661Y-137033023D01*
X124496763Y-137019645D01*
X124508646Y-137004022D01*
X124503680Y-136993687D01*
X124489889Y-137004319D01*
X124460072Y-137019340D01*
X124434405Y-137023076D01*
X124389056Y-137031524D01*
X124342905Y-137052464D01*
X124308677Y-137079291D01*
X124300015Y-137092837D01*
X124296992Y-137112666D01*
X123926629Y-137112666D01*
X123960242Y-137099383D01*
X123987447Y-137074687D01*
X124006290Y-137046692D01*
X124036362Y-137012477D01*
X124082330Y-136977007D01*
X124133071Y-136947392D01*
X124177466Y-136930742D01*
X124189896Y-136929292D01*
X124212710Y-136921061D01*
X124247352Y-136901499D01*
X125295967Y-136901499D01*
X125305308Y-136915932D01*
X125312489Y-136921812D01*
X125338541Y-136936192D01*
X125351113Y-136936096D01*
X125347571Y-136922129D01*
X125336624Y-136913050D01*
X125308453Y-136899795D01*
X125295967Y-136901499D01*
X124247352Y-136901499D01*
X124251271Y-136899286D01*
X124299442Y-136868336D01*
X124351084Y-136832586D01*
X124400058Y-136796405D01*
X124440227Y-136764168D01*
X124465452Y-136740245D01*
X124470385Y-136729513D01*
X124453926Y-136731942D01*
X124434495Y-136745652D01*
X124398192Y-136768586D01*
X124346360Y-136790332D01*
X124289065Y-136807958D01*
X124236374Y-136818529D01*
X124198353Y-136819113D01*
X124190826Y-136816658D01*
X124171467Y-136802885D01*
X124176669Y-136786374D01*
X124186918Y-136774417D01*
X124209799Y-136743003D01*
X124209291Y-136729527D01*
X124189134Y-136736395D01*
X124161474Y-136758061D01*
X124117926Y-136791952D01*
X124067384Y-136822801D01*
X124018213Y-136846483D01*
X123978773Y-136858872D01*
X123959528Y-136857692D01*
X123950358Y-136836653D01*
X123952409Y-136811854D01*
X123955689Y-136789097D01*
X123944850Y-136780689D01*
X123912418Y-136782594D01*
X123900994Y-136784083D01*
X123851150Y-136784433D01*
X123826850Y-136767806D01*
X123826691Y-136733074D01*
X123828751Y-136725952D01*
X123851483Y-136699721D01*
X123872745Y-136694591D01*
X123911736Y-136687649D01*
X123930307Y-136679359D01*
X123931181Y-136676828D01*
X123968425Y-136676828D01*
X123992906Y-136672744D01*
X124016276Y-136663569D01*
X124037719Y-136653196D01*
X124029428Y-136649729D01*
X124013291Y-136649036D01*
X123981815Y-136654521D01*
X123969384Y-136663569D01*
X123968425Y-136676828D01*
X123931181Y-136676828D01*
X123933011Y-136671530D01*
X123905505Y-136670743D01*
X123871259Y-136674012D01*
X123802925Y-136673616D01*
X123740880Y-136658445D01*
X123693759Y-136631587D01*
X123672276Y-136602902D01*
X123670952Y-136573034D01*
X123692263Y-136559707D01*
X123731066Y-136565114D01*
X123746489Y-136571228D01*
X123811119Y-136586938D01*
X123859072Y-136585920D01*
X123899020Y-136578053D01*
X123916806Y-136563711D01*
X123921494Y-136534891D01*
X123921595Y-136530707D01*
X123928618Y-136479101D01*
X123949141Y-136453689D01*
X123986123Y-136451238D01*
X123993010Y-136452593D01*
X124061902Y-136454443D01*
X124129322Y-136433900D01*
X124164788Y-136408748D01*
X124415652Y-136408748D01*
X124422179Y-136411131D01*
X124452440Y-136397862D01*
X124485802Y-136380623D01*
X124521025Y-136361298D01*
X124529898Y-136353668D01*
X124513998Y-136355381D01*
X124500830Y-136358206D01*
X124459176Y-136373026D01*
X124431050Y-136391059D01*
X124415652Y-136408748D01*
X124164788Y-136408748D01*
X124183885Y-136395205D01*
X124199484Y-136375710D01*
X124234176Y-136335244D01*
X124281399Y-136294570D01*
X124300820Y-136281149D01*
X124342009Y-136252978D01*
X124371826Y-136228733D01*
X124379733Y-136219914D01*
X124399759Y-136200121D01*
X124435087Y-136174070D01*
X124445240Y-136167501D01*
X125046396Y-136167501D01*
X125054035Y-136179296D01*
X125081947Y-136201691D01*
X125113543Y-136223009D01*
X125158753Y-136251619D01*
X125183569Y-136266425D01*
X125194084Y-136270226D01*
X125196392Y-136265824D01*
X125196371Y-136261076D01*
X125184434Y-136246570D01*
X125154869Y-136224144D01*
X125116982Y-136199604D01*
X125080081Y-136178758D01*
X125053473Y-136167412D01*
X125046396Y-136167501D01*
X124445240Y-136167501D01*
X124446122Y-136166930D01*
X124475923Y-136144112D01*
X124479047Y-136132796D01*
X124458773Y-136135544D01*
X124425556Y-136150868D01*
X124383440Y-136164125D01*
X124354998Y-136165217D01*
X124318788Y-136171769D01*
X124299872Y-136186407D01*
X124269295Y-136208149D01*
X124217122Y-136226277D01*
X124153002Y-136238087D01*
X124104331Y-136241165D01*
X124069114Y-136238945D01*
X124056985Y-136227069D01*
X124059070Y-136203031D01*
X124060959Y-136176765D01*
X124046945Y-136168384D01*
X124017907Y-136170347D01*
X123974359Y-136166257D01*
X123936667Y-136147837D01*
X123915933Y-136121260D01*
X123914676Y-136112953D01*
X123927340Y-136086647D01*
X123956066Y-136063112D01*
X123984711Y-136053969D01*
X124007231Y-136040688D01*
X124025857Y-136008729D01*
X124025920Y-136008551D01*
X124037367Y-135981788D01*
X124053572Y-135969520D01*
X124084260Y-135967830D01*
X124119549Y-135970841D01*
X124182161Y-135971743D01*
X124227082Y-135958426D01*
X124237080Y-135952513D01*
X124263151Y-135933097D01*
X124264776Y-135919766D01*
X124249514Y-135906514D01*
X124229347Y-135879721D01*
X124236136Y-135854798D01*
X124265919Y-135838229D01*
X124293232Y-135834995D01*
X124336952Y-135827895D01*
X124391924Y-135809926D01*
X124422676Y-135796407D01*
X124455040Y-135781701D01*
X125062622Y-135781701D01*
X125069998Y-135790722D01*
X125078248Y-135797038D01*
X125114594Y-135812187D01*
X125161390Y-135818307D01*
X125164218Y-135818273D01*
X125196226Y-135816056D01*
X125206145Y-135812097D01*
X125204215Y-135810949D01*
X125180387Y-135804173D01*
X125138550Y-135794196D01*
X125118246Y-135789714D01*
X125077323Y-135781618D01*
X125062622Y-135781701D01*
X124455040Y-135781701D01*
X124470001Y-135774903D01*
X124508091Y-135760732D01*
X124522974Y-135757473D01*
X124537042Y-135751650D01*
X124534832Y-135746699D01*
X124534394Y-135727904D01*
X124541957Y-135715438D01*
X124551903Y-135697736D01*
X124537294Y-135697768D01*
X124497583Y-135715565D01*
X124492474Y-135718187D01*
X124446226Y-135735242D01*
X124390659Y-135747045D01*
X124379927Y-135748301D01*
X124326850Y-135754945D01*
X124279829Y-135763308D01*
X124271982Y-135765148D01*
X124243821Y-135768647D01*
X124226928Y-135755816D01*
X124212237Y-135719652D01*
X124211942Y-135718758D01*
X124201789Y-135675806D01*
X124200867Y-135642976D01*
X124201930Y-135639109D01*
X124198946Y-135619405D01*
X124187724Y-135616307D01*
X124155179Y-135603399D01*
X124123801Y-135572578D01*
X124104311Y-135535695D01*
X124102246Y-135521814D01*
X124106220Y-135501053D01*
X124124023Y-135495494D01*
X124156087Y-135499945D01*
X124226165Y-135497802D01*
X124260088Y-135485023D01*
X124307056Y-135467574D01*
X124351186Y-135460008D01*
X124352338Y-135459999D01*
X124396289Y-135452858D01*
X124443201Y-135435668D01*
X124443522Y-135435508D01*
X124479982Y-135421321D01*
X124504692Y-135418793D01*
X124506452Y-135419567D01*
X124524422Y-135415397D01*
X124538775Y-135405292D01*
X125024461Y-135405292D01*
X125032276Y-135413107D01*
X125040092Y-135405292D01*
X125032276Y-135397476D01*
X125024461Y-135405292D01*
X124538775Y-135405292D01*
X124552393Y-135395704D01*
X124581857Y-135368505D01*
X124600071Y-135346847D01*
X125031240Y-135346847D01*
X125046604Y-135349350D01*
X125066878Y-135346476D01*
X125067120Y-135341140D01*
X125046200Y-135337409D01*
X125037161Y-135339906D01*
X125031240Y-135346847D01*
X124600071Y-135346847D01*
X124604305Y-135341812D01*
X124611227Y-135323640D01*
X124610163Y-135321888D01*
X124594235Y-135324877D01*
X124571958Y-135345771D01*
X124542263Y-135367165D01*
X124509354Y-135371601D01*
X124484320Y-135359709D01*
X124477384Y-135340390D01*
X124464198Y-135321534D01*
X124430821Y-135299288D01*
X124410732Y-135289641D01*
X124348255Y-135256081D01*
X124314447Y-135221752D01*
X124312184Y-135202092D01*
X124508646Y-135202092D01*
X124516461Y-135209907D01*
X124524276Y-135202092D01*
X124516461Y-135194276D01*
X124508646Y-135202092D01*
X124312184Y-135202092D01*
X124310555Y-135187939D01*
X124311022Y-135186660D01*
X124332083Y-135167835D01*
X124364089Y-135163833D01*
X124389821Y-135176370D01*
X124391415Y-135178646D01*
X124412694Y-135189878D01*
X124443137Y-135193042D01*
X124467353Y-135189929D01*
X124466467Y-135184193D01*
X124455633Y-135171238D01*
X124463162Y-135142893D01*
X124465907Y-135136693D01*
X124478657Y-135114080D01*
X124496221Y-135103390D01*
X124527897Y-135101848D01*
X124570609Y-135105431D01*
X124618464Y-135109771D01*
X124638968Y-135109497D01*
X124635840Y-135103437D01*
X124614814Y-135091489D01*
X124580176Y-135062377D01*
X124550325Y-135019768D01*
X124531324Y-134974756D01*
X124529235Y-134938434D01*
X124529975Y-134936247D01*
X124545030Y-134920985D01*
X124578199Y-134919159D01*
X124598127Y-134921781D01*
X124657138Y-134931135D01*
X124702142Y-134793075D01*
X124724378Y-134725009D01*
X124745007Y-134662120D01*
X124760654Y-134614687D01*
X124764665Y-134602637D01*
X124782962Y-134564347D01*
X124801284Y-134552101D01*
X124815717Y-134567528D01*
X124819161Y-134579943D01*
X124829714Y-134607902D01*
X124836493Y-134615938D01*
X124848249Y-134633199D01*
X124868272Y-134670961D01*
X124892641Y-134720933D01*
X124917434Y-134774830D01*
X124938728Y-134824363D01*
X124952603Y-134861244D01*
X124952672Y-134861462D01*
X124969832Y-134886349D01*
X124986383Y-134886930D01*
X125018490Y-134887086D01*
X125041768Y-134908575D01*
X125053254Y-134942024D01*
X125049983Y-134978057D01*
X125028991Y-135007302D01*
X125025256Y-135009838D01*
X125004988Y-135029073D01*
X125011937Y-135049518D01*
X125012592Y-135050317D01*
X125022228Y-135076372D01*
X125011665Y-135101761D01*
X125001715Y-135141588D01*
X125007557Y-135159107D01*
X125024484Y-135196552D01*
X125030263Y-135212819D01*
X125053051Y-135234522D01*
X125097834Y-135244081D01*
X125137094Y-135250098D01*
X125153964Y-135263710D01*
X125157322Y-135288061D01*
X125168721Y-135324046D01*
X125188584Y-135336054D01*
X125212701Y-135354078D01*
X125216903Y-135386854D01*
X125218275Y-135415069D01*
X125233768Y-135426617D01*
X125268193Y-135428738D01*
X125309781Y-135436586D01*
X125333869Y-135456091D01*
X125334841Y-135481196D01*
X125326904Y-135492055D01*
X125298249Y-135504088D01*
X125249535Y-135509627D01*
X125191406Y-135508066D01*
X125149507Y-135502168D01*
X125119352Y-135496683D01*
X125113529Y-135498246D01*
X125133574Y-135508970D01*
X125165138Y-135523666D01*
X125205895Y-135543467D01*
X125222015Y-135556494D01*
X125217576Y-135568323D01*
X125205135Y-135578354D01*
X125153156Y-135598658D01*
X125095418Y-135592916D01*
X125051457Y-135569415D01*
X125015565Y-135544071D01*
X125001173Y-135541414D01*
X125008285Y-135561445D01*
X125017288Y-135576018D01*
X125043532Y-135605286D01*
X125085870Y-135641989D01*
X125123292Y-135669802D01*
X125199472Y-135711793D01*
X125264392Y-135725268D01*
X125317548Y-135710168D01*
X125336722Y-135694815D01*
X125371993Y-135673887D01*
X125403650Y-135679151D01*
X125420658Y-135701690D01*
X125417985Y-135731646D01*
X125397520Y-135763878D01*
X125368848Y-135785573D01*
X125355728Y-135788485D01*
X125338868Y-135791498D01*
X125350802Y-135802368D01*
X125365192Y-135821562D01*
X125353550Y-135838956D01*
X125320940Y-135849549D01*
X125301766Y-135850769D01*
X125271746Y-135855632D01*
X125269111Y-135866892D01*
X125292130Y-135879557D01*
X125313630Y-135885033D01*
X125337615Y-135899802D01*
X125342157Y-135931923D01*
X125344760Y-135960098D01*
X125363129Y-135975688D01*
X125396865Y-135985001D01*
X125452628Y-135994530D01*
X125497059Y-135994774D01*
X125532461Y-135989518D01*
X125556180Y-135992093D01*
X125567159Y-136016644D01*
X125568852Y-136028519D01*
X125568194Y-136065643D01*
X125560119Y-136087270D01*
X125533560Y-136098017D01*
X125489141Y-136103357D01*
X125439869Y-136102818D01*
X125398755Y-136095929D01*
X125391784Y-136093381D01*
X125370699Y-136085426D01*
X125372283Y-136092763D01*
X125387876Y-136111164D01*
X125412555Y-136154246D01*
X125407108Y-136196300D01*
X125394855Y-136216535D01*
X125381663Y-136230513D01*
X125365979Y-136231559D01*
X125340443Y-136217406D01*
X125299535Y-136187191D01*
X125256647Y-136156936D01*
X125226888Y-136140532D01*
X125213851Y-136139026D01*
X125221131Y-136153468D01*
X125234852Y-136168342D01*
X125248903Y-136191923D01*
X125243412Y-136202387D01*
X125228866Y-136226850D01*
X125230017Y-136261042D01*
X125244855Y-136288925D01*
X125255015Y-136295005D01*
X125284400Y-136302488D01*
X125294166Y-136303695D01*
X125315151Y-136309246D01*
X125351846Y-136322931D01*
X125360175Y-136326355D01*
X125414589Y-136341785D01*
X125472261Y-136348184D01*
X125474977Y-136348169D01*
X125532410Y-136353872D01*
X125576888Y-136370420D01*
X125600739Y-136394432D01*
X125602799Y-136404516D01*
X125615528Y-136427096D01*
X125647170Y-136436601D01*
X125687913Y-136432285D01*
X125727147Y-136413974D01*
X125769297Y-136388427D01*
X125795452Y-136386097D01*
X125811059Y-136407448D01*
X125815262Y-136421495D01*
X125814563Y-136463563D01*
X125794796Y-136495674D01*
X125765009Y-136507261D01*
X125745139Y-136513926D01*
X125752700Y-136531896D01*
X125769462Y-136546262D01*
X125790358Y-136571589D01*
X125781502Y-136593711D01*
X125744341Y-136611373D01*
X125680608Y-136623288D01*
X125629035Y-136630017D01*
X125604049Y-136636553D01*
X125601058Y-136644956D01*
X125611335Y-136654347D01*
X125628749Y-136677271D01*
X125627711Y-136692459D01*
X125604474Y-136705183D01*
X125564350Y-136709916D01*
X125520641Y-136706783D01*
X125486650Y-136695911D01*
X125480228Y-136691053D01*
X125461180Y-136679610D01*
X125448619Y-136691388D01*
X125433801Y-136700636D01*
X125409207Y-136687230D01*
X125400256Y-136679769D01*
X125355229Y-136656488D01*
X125327533Y-136657584D01*
X125294718Y-136656731D01*
X125259239Y-136634123D01*
X125243467Y-136619256D01*
X125205202Y-136586710D01*
X125168871Y-136564602D01*
X125161012Y-136561664D01*
X125140105Y-136556839D01*
X125140949Y-136563279D01*
X125164639Y-136585156D01*
X125167941Y-136588034D01*
X125197997Y-136621439D01*
X125214587Y-136653488D01*
X125215024Y-136655634D01*
X125231919Y-136683602D01*
X125265563Y-136708203D01*
X125266929Y-136708862D01*
X125300536Y-136727725D01*
X125318505Y-136743431D01*
X125318840Y-136744150D01*
X125336751Y-136755481D01*
X125351578Y-136757353D01*
X125380989Y-136767066D01*
X125417941Y-136790981D01*
X125424522Y-136796411D01*
X125480296Y-136828379D01*
X125521265Y-136835488D01*
X125559335Y-136841025D01*
X125586733Y-136862960D01*
X125604870Y-136890215D01*
X125630023Y-136925979D01*
X125657724Y-136941607D01*
X125702036Y-136945153D01*
X125770074Y-136953028D01*
X125819206Y-136974440D01*
X125844541Y-137006873D01*
X125846850Y-137019624D01*
X125843884Y-137041997D01*
X125826456Y-137052579D01*
X125786351Y-137056182D01*
X125784327Y-137056244D01*
X125752923Y-137057715D01*
X125746950Y-137060210D01*
X125768320Y-137064719D01*
X125813815Y-137071502D01*
X125870425Y-137081217D01*
X125918615Y-137092353D01*
X125941195Y-137099805D01*
X125980915Y-137108658D01*
X126004810Y-137106907D01*
X126039379Y-137111060D01*
X126062719Y-137139006D01*
X126069510Y-137183838D01*
X126068944Y-137190162D01*
X126057795Y-137224351D01*
X126029705Y-137237596D01*
X126024830Y-137238208D01*
X125949913Y-137246410D01*
X125900699Y-137253545D01*
X125871787Y-137261712D01*
X125857780Y-137273013D01*
X125853278Y-137289546D01*
X125852892Y-137305090D01*
X125841915Y-137344397D01*
X125809687Y-137361575D01*
X125757262Y-137356397D01*
X125703801Y-137337038D01*
X125661293Y-137318584D01*
X125632549Y-137306764D01*
X125625616Y-137304430D01*
X125627284Y-137317096D01*
X125637482Y-137347704D01*
X125637975Y-137349017D01*
X125648151Y-137398677D01*
X125637615Y-137430596D01*
X125611175Y-137445092D01*
X125573637Y-137442484D01*
X125529809Y-137423090D01*
X125484498Y-137387227D01*
X125443092Y-137336115D01*
X125416835Y-137296396D01*
X125404140Y-137281124D01*
X125401610Y-137288484D01*
X125405764Y-137316153D01*
X125409197Y-137350839D01*
X125399096Y-137364630D01*
X125374199Y-137366953D01*
X125332030Y-137353033D01*
X125279377Y-137311007D01*
X125224112Y-137249722D01*
X125383969Y-137249722D01*
X125391784Y-137257538D01*
X125399599Y-137249722D01*
X125391784Y-137241907D01*
X125383969Y-137249722D01*
X125224112Y-137249722D01*
X125215772Y-137240473D01*
X125192124Y-137210646D01*
X125165142Y-137179445D01*
X125151849Y-137174200D01*
X125149680Y-137183292D01*
X125142156Y-137206493D01*
X125133876Y-137210646D01*
X125120451Y-137215521D01*
X125123715Y-137232157D01*
X125145425Y-137263571D01*
X125187335Y-137312779D01*
X125204215Y-137331579D01*
X125244081Y-137377074D01*
X125274267Y-137414262D01*
X125289706Y-137436807D01*
X125290704Y-137439750D01*
X125303674Y-137466308D01*
X125334882Y-137500285D01*
X125375185Y-137534023D01*
X125415435Y-137559865D01*
X125446444Y-137570153D01*
X125470387Y-137576158D01*
X125509310Y-137591096D01*
X125521240Y-137596315D01*
X125577194Y-137615113D01*
X125635787Y-137625910D01*
X125640841Y-137626294D01*
X125688976Y-137638270D01*
X125728271Y-137663534D01*
X125750983Y-137695398D01*
X125751697Y-137722053D01*
X125752244Y-137741245D01*
X125772511Y-137754375D01*
X125816054Y-137762488D01*
X125886429Y-137766626D01*
X125905184Y-137767093D01*
X125977354Y-137770821D01*
X126024954Y-137780409D01*
X126054541Y-137798855D01*
X126072676Y-137829158D01*
X126078513Y-137846339D01*
X126076120Y-137875611D01*
X126047144Y-137893835D01*
X125990303Y-137901584D01*
X125954492Y-137901790D01*
X125917018Y-137901859D01*
X125907331Y-137905587D01*
X125922001Y-137914939D01*
X125927138Y-137917455D01*
X125954027Y-137937083D01*
X125962307Y-137953031D01*
X125976994Y-137965199D01*
X126017347Y-137977129D01*
X126067815Y-137985812D01*
X126123903Y-137994258D01*
X126156087Y-138003088D01*
X126171553Y-138015958D01*
X126177486Y-138036522D01*
X126178167Y-138041933D01*
X126171380Y-138082303D01*
X126139336Y-138105784D01*
X126081460Y-138112645D01*
X126035682Y-138109099D01*
X125954492Y-138098937D01*
X125954492Y-138166699D01*
X125954492Y-138234461D01*
X125887432Y-138231439D01*
X125830494Y-138221493D01*
X125776438Y-138200874D01*
X125768356Y-138196270D01*
X125724848Y-138171872D01*
X125703055Y-138165435D01*
X125704418Y-138177187D01*
X125712050Y-138187370D01*
X125726429Y-138219672D01*
X125712659Y-138243785D01*
X125673432Y-138256621D01*
X125650543Y-138257907D01*
X125603700Y-138253001D01*
X125574216Y-138234479D01*
X125562285Y-138218830D01*
X125528371Y-138187509D01*
X125499402Y-138179753D01*
X125468240Y-138186349D01*
X125465732Y-138204592D01*
X125485569Y-138226646D01*
X125505570Y-138256141D01*
X125509015Y-138272978D01*
X125524203Y-138297667D01*
X125567630Y-138317755D01*
X125616045Y-138340266D01*
X125666466Y-138374995D01*
X125680953Y-138387721D01*
X125727815Y-138426632D01*
X125785296Y-138466882D01*
X125813815Y-138484265D01*
X125867789Y-138516460D01*
X125918948Y-138549341D01*
X125940875Y-138564616D01*
X125972235Y-138585091D01*
X126005823Y-138599794D01*
X126049042Y-138610628D01*
X126109295Y-138619493D01*
X126185731Y-138627506D01*
X126257688Y-138638304D01*
X126299597Y-138654848D01*
X126312350Y-138678402D01*
X126296835Y-138710230D01*
X126265956Y-138741375D01*
X126230485Y-138768242D01*
X126203305Y-138781250D01*
X126195693Y-138780873D01*
X126170308Y-138777836D01*
X126147132Y-138782409D01*
X126127847Y-138790494D01*
X126131402Y-138799247D01*
X126160726Y-138813719D01*
X126166811Y-138816383D01*
X126220603Y-138837113D01*
X126278543Y-138855276D01*
X126331819Y-138868604D01*
X126371616Y-138874826D01*
X126387673Y-138873261D01*
X126411538Y-138871693D01*
X126428780Y-138893302D01*
X126434712Y-138930066D01*
X126432364Y-138949804D01*
X126423567Y-138981101D01*
X126407825Y-138995671D01*
X126375237Y-138999684D01*
X126352325Y-138999689D01*
X126296762Y-138997585D01*
X126245767Y-138993211D01*
X126235846Y-138991874D01*
X126202491Y-138990279D01*
X126188347Y-139005265D01*
X126183843Y-139031630D01*
X126176158Y-139069545D01*
X126165743Y-139091933D01*
X126139941Y-139098508D01*
X126100724Y-139088383D01*
X126057704Y-139066004D01*
X126020493Y-139035815D01*
X126006494Y-139018296D01*
X125974948Y-138969107D01*
X125983585Y-139018493D01*
X125984994Y-139057779D01*
X125969850Y-139076417D01*
X125968170Y-139077109D01*
X125918297Y-139086379D01*
X125870701Y-139071839D01*
X125818889Y-139031178D01*
X125807798Y-139020068D01*
X125772029Y-138983843D01*
X125752818Y-138968169D01*
X125745019Y-138971094D01*
X125743484Y-138990670D01*
X125743476Y-138995699D01*
X125740974Y-139027091D01*
X125728004Y-139044734D01*
X125696374Y-139056163D01*
X125671645Y-139061765D01*
X125636780Y-139064610D01*
X125606374Y-139052323D01*
X125570045Y-139021815D01*
X125528864Y-138988773D01*
X125491132Y-138975726D01*
X125459093Y-138975342D01*
X125421937Y-138974058D01*
X125389174Y-138961205D01*
X125350472Y-138931831D01*
X125330140Y-138913540D01*
X125293539Y-138882325D01*
X125267840Y-138865224D01*
X125258922Y-138865516D01*
X125247538Y-138882253D01*
X125242369Y-138883138D01*
X125233034Y-138873562D01*
X125235476Y-138867507D01*
X125235280Y-138853058D01*
X125230406Y-138851876D01*
X125214599Y-138864768D01*
X125208438Y-138879555D01*
X125213327Y-138900155D01*
X125238035Y-138931188D01*
X125284889Y-138975211D01*
X125330495Y-139013797D01*
X125397074Y-139066508D01*
X125453619Y-139104536D01*
X125511898Y-139134446D01*
X125583676Y-139162806D01*
X125621172Y-139176004D01*
X125687067Y-139199744D01*
X125741001Y-139221104D01*
X125776674Y-139237464D01*
X125787873Y-139245290D01*
X125811364Y-139268551D01*
X125857065Y-139288260D01*
X125915929Y-139301404D01*
X125967615Y-139305169D01*
X126041532Y-139313783D01*
X126094091Y-139338363D01*
X126122169Y-139377017D01*
X126126053Y-139401175D01*
X126131060Y-139424587D01*
X126150452Y-139440563D01*
X126191676Y-139454475D01*
X126204584Y-139457836D01*
X126262989Y-139468427D01*
X126335079Y-139475769D01*
X126392153Y-139478041D01*
X126467102Y-139479735D01*
X126515885Y-139485102D01*
X126543517Y-139495559D01*
X126555012Y-139512521D01*
X126556276Y-139524359D01*
X126545993Y-139560152D01*
X126520122Y-139606148D01*
X126486136Y-139651435D01*
X126451506Y-139685107D01*
X126441817Y-139691476D01*
X126401065Y-139705530D01*
X126358071Y-139711015D01*
X126321494Y-139716349D01*
X126305755Y-139735378D01*
X126303363Y-139746738D01*
X126296197Y-139768041D01*
X126276995Y-139779600D01*
X126237502Y-139785299D01*
X126218751Y-139786547D01*
X126156062Y-139784165D01*
X126079890Y-139772551D01*
X126025862Y-139759797D01*
X125968565Y-139744801D01*
X125936933Y-139739180D01*
X125926926Y-139742570D01*
X125931547Y-139751250D01*
X125955128Y-139770622D01*
X125966405Y-139774092D01*
X125989963Y-139786969D01*
X126012348Y-139816834D01*
X126024084Y-139850536D01*
X126024333Y-139854481D01*
X126016162Y-139877967D01*
X125987729Y-139892121D01*
X125934815Y-139898443D01*
X125898866Y-139899138D01*
X125848896Y-139896319D01*
X125818851Y-139885136D01*
X125797828Y-139861712D01*
X125765621Y-139834614D01*
X125727871Y-139836227D01*
X125695182Y-139861750D01*
X125669480Y-139879659D01*
X125633137Y-139879734D01*
X125581146Y-139861213D01*
X125533416Y-139837132D01*
X125485724Y-139814315D01*
X125451453Y-139803718D01*
X125438357Y-139805870D01*
X125418214Y-139815156D01*
X125379092Y-139820140D01*
X125363508Y-139820431D01*
X125308208Y-139812472D01*
X125251382Y-139786567D01*
X125220339Y-139766644D01*
X125166282Y-139734202D01*
X125132786Y-139725109D01*
X125124856Y-139728199D01*
X125098657Y-139730264D01*
X125065747Y-139710514D01*
X125038430Y-139692839D01*
X125024807Y-139691498D01*
X125024461Y-139693184D01*
X125035771Y-139713100D01*
X125070348Y-139746339D01*
X125129164Y-139793705D01*
X125213188Y-139855999D01*
X125273645Y-139899138D01*
X125337414Y-139944741D01*
X125396670Y-139988144D01*
X125443698Y-140023640D01*
X125466128Y-140041495D01*
X125514714Y-140082252D01*
X125470838Y-140111000D01*
X125439885Y-140129039D01*
X125416821Y-140130530D01*
X125385904Y-140115452D01*
X125378112Y-140110871D01*
X125332459Y-140084630D01*
X125290628Y-140061700D01*
X125290184Y-140061467D01*
X125257041Y-140040371D01*
X125211617Y-140006973D01*
X125175159Y-139977854D01*
X125133412Y-139944954D01*
X125100365Y-139922131D01*
X125084738Y-139914769D01*
X125086930Y-139923678D01*
X125108224Y-139946517D01*
X125129303Y-139965569D01*
X125188070Y-140016446D01*
X125226426Y-140051098D01*
X125247789Y-140073542D01*
X125255573Y-140087790D01*
X125253193Y-140097860D01*
X125247438Y-140104444D01*
X125222947Y-140108097D01*
X125181660Y-140086489D01*
X125123220Y-140039404D01*
X125091545Y-140010147D01*
X125065967Y-139987054D01*
X125052519Y-139977276D01*
X125052468Y-139977274D01*
X125050216Y-139992251D01*
X125049661Y-140034753D01*
X125050647Y-140101097D01*
X125053016Y-140187602D01*
X125056609Y-140290585D01*
X125061269Y-140406364D01*
X125066839Y-140531258D01*
X125073160Y-140661584D01*
X125080075Y-140793660D01*
X125087426Y-140923805D01*
X125095055Y-141048336D01*
X125102805Y-141163572D01*
X125104043Y-141180861D01*
X125120313Y-141389039D01*
X125137304Y-141568906D01*
X125155695Y-141723410D01*
X125176162Y-141855502D01*
X125199386Y-141968130D01*
X125226044Y-142064245D01*
X125256816Y-142146795D01*
X125292379Y-142218731D01*
X125333412Y-142283002D01*
X125367825Y-142327517D01*
X125400905Y-142370736D01*
X125423732Y-142406987D01*
X125430861Y-142425917D01*
X125433099Y-142435092D01*
X125442190Y-142440241D01*
X125461697Y-142440783D01*
X125495183Y-142436134D01*
X125546212Y-142425712D01*
X125618347Y-142408935D01*
X125715152Y-142385220D01*
X125782553Y-142368419D01*
X125993446Y-142310404D01*
X126184329Y-142245998D01*
X126366366Y-142171142D01*
X126500274Y-142107471D01*
X126808596Y-141939462D01*
X127092306Y-141755785D01*
X127353674Y-141554274D01*
X127594968Y-141332765D01*
X127818460Y-141089090D01*
X128026418Y-140821086D01*
X128221113Y-140526587D01*
X128304052Y-140386501D01*
X128428407Y-140145569D01*
X128538828Y-139883430D01*
X128632669Y-139608032D01*
X128707285Y-139327319D01*
X128760031Y-139049238D01*
X128767988Y-138992636D01*
X128781821Y-138865947D01*
X128792415Y-138724763D01*
X128799548Y-138577099D01*
X128802996Y-138430966D01*
X128802539Y-138294377D01*
X128797955Y-138175345D01*
X128792464Y-138109415D01*
X128745471Y-137763108D01*
X128682195Y-137440771D01*
X128601382Y-137138957D01*
X128501774Y-136854224D01*
X128382118Y-136583127D01*
X128241157Y-136322222D01*
X128077636Y-136068063D01*
X128017658Y-135983918D01*
X127886778Y-135810698D01*
X127762170Y-135659650D01*
X127637508Y-135524338D01*
X127506470Y-135398321D01*
X127362733Y-135275160D01*
X127199972Y-135148418D01*
X127189322Y-135140453D01*
X126917152Y-134951469D01*
X126647869Y-134792871D01*
X126381891Y-134664887D01*
X126198445Y-134593828D01*
X125906233Y-134500927D01*
X125626701Y-134430869D01*
X125352657Y-134382362D01*
X125076913Y-134354113D01*
X124813446Y-134344893D01*
X124656594Y-134345648D01*
X124519122Y-134350336D01*
X124391263Y-134359926D01*
X124263252Y-134375387D01*
X124125322Y-134397686D01*
X123967707Y-134427793D01*
X123958253Y-134429698D01*
X123653056Y-134503157D01*
X123362762Y-134597937D01*
X123083335Y-134715945D01*
X122810744Y-134859084D01*
X122540956Y-135029262D01*
X122273446Y-135225630D01*
X122177661Y-135305357D01*
X122071226Y-135401817D01*
X121960774Y-135508364D01*
X121852939Y-135618352D01*
X121754352Y-135725136D01*
X121671648Y-135822068D01*
X121647005Y-135853317D01*
X121466107Y-136108230D01*
X121301733Y-136378585D01*
X121156415Y-136659056D01*
X121032687Y-136944315D01*
X120933085Y-137229033D01*
X120860195Y-137507630D01*
X120832327Y-137646230D01*
X120810697Y-137775800D01*
X120794651Y-137903506D01*
X120783531Y-138036509D01*
X120776683Y-138181973D01*
X120773451Y-138347062D01*
X120772975Y-138460458D01*
X120549789Y-138460458D01*
X120548653Y-138403259D01*
X120548675Y-138260664D01*
X120551660Y-138127310D01*
X120557678Y-138010392D01*
X120566796Y-137917100D01*
X120567217Y-137914030D01*
X120624457Y-137577401D01*
X120700755Y-137260032D01*
X120798226Y-136954911D01*
X120918990Y-136655025D01*
X120999023Y-136483815D01*
X121118275Y-136255358D01*
X121244421Y-136044523D01*
X121382928Y-135843312D01*
X121539261Y-135643725D01*
X121698704Y-135459999D01*
X121930301Y-135226059D01*
X122185677Y-135009238D01*
X122461060Y-134811878D01*
X122752681Y-134636320D01*
X123056771Y-134484905D01*
X123369560Y-134359975D01*
X123576399Y-134293895D01*
X123785683Y-134238249D01*
X123985326Y-134195412D01*
X124182837Y-134164499D01*
X124385729Y-134144622D01*
X124601511Y-134134896D01*
X124837696Y-134134435D01*
X124914518Y-134135991D01*
G37*
D12*
%TO.C,D1*%
X94680000Y-97930000D02*
X94680000Y-98260000D01*
X94680000Y-100870000D02*
X94680000Y-100540000D01*
X99100000Y-100870000D02*
X99100000Y-97930000D01*
X99220000Y-100870000D02*
X99220000Y-97930000D01*
X99340000Y-100870000D02*
X99340000Y-97930000D01*
X100120000Y-97930000D02*
X94680000Y-97930000D01*
X100120000Y-98260000D02*
X100120000Y-97930000D01*
X100120000Y-100540000D02*
X100120000Y-100870000D01*
X100120000Y-100870000D02*
X94680000Y-100870000D01*
%TO.C,J1*%
X56690000Y-72380000D02*
X56690000Y-82540000D01*
X56690000Y-82540000D02*
X64310000Y-82540000D01*
X63040000Y-72380000D02*
X63040000Y-82540000D01*
X64310000Y-72380000D02*
X56690000Y-72380000D01*
X64310000Y-82540000D02*
X64310000Y-72380000D01*
%TO.C,K1*%
X65040000Y-90310000D02*
X65040000Y-101310000D01*
X66720000Y-93270000D02*
X66720000Y-95810000D01*
X69260000Y-98350000D02*
X69260000Y-97080000D01*
X71165000Y-95810000D02*
X67355000Y-98350000D01*
X74340000Y-93270000D02*
X74340000Y-95810000D01*
X74340000Y-95810000D02*
X71165000Y-95810000D01*
X81450000Y-94290000D02*
X81960000Y-94290000D01*
X81450000Y-96830000D02*
X81450000Y-94290000D01*
X81960000Y-92000000D02*
X81960000Y-94290000D01*
X81960000Y-94290000D02*
X82470000Y-94290000D01*
X81960000Y-96830000D02*
X81450000Y-96830000D01*
X81960000Y-96830000D02*
X81960000Y-99620000D01*
X81960000Y-99620000D02*
X83230000Y-99620000D01*
X82470000Y-94290000D02*
X82470000Y-96830000D01*
X82470000Y-95050000D02*
X81450000Y-96060000D01*
X82470000Y-96830000D02*
X81960000Y-96830000D01*
X83230000Y-92000000D02*
X81960000Y-92000000D01*
X86180000Y-90310000D02*
X65040000Y-90310000D01*
X86180000Y-90310000D02*
X86180000Y-101310000D01*
X86180000Y-101310000D02*
X65040000Y-101310000D01*
X71292000Y-95810000D02*
G75*
G02*
X71038000Y-95810000I-127000J0D01*
G01*
X71038000Y-95810000D02*
G75*
G02*
X71292000Y-95810000I127000J0D01*
G01*
%TO.C,J3*%
X56190000Y-103420000D02*
X56190000Y-113580000D01*
X56190000Y-113580000D02*
X63810000Y-113580000D01*
X62540000Y-103420000D02*
X62540000Y-113580000D01*
X63810000Y-103420000D02*
X56190000Y-103420000D01*
X63810000Y-113580000D02*
X63810000Y-103420000D01*
%TO.C,Q2*%
X87229000Y-103420000D02*
X87229000Y-113660000D01*
X90360000Y-103420000D02*
X90360000Y-113660000D01*
X91870000Y-103420000D02*
X87229000Y-103420000D01*
X91870000Y-103420000D02*
X91870000Y-113660000D01*
X91870000Y-106690000D02*
X90360000Y-106690000D01*
X91870000Y-110391000D02*
X90360000Y-110391000D01*
X91870000Y-113660000D02*
X87229000Y-113660000D01*
%TO.C,K2*%
X65040000Y-103260000D02*
X65040000Y-114260000D01*
X66720000Y-106220000D02*
X66720000Y-108760000D01*
X69260000Y-111300000D02*
X69260000Y-110030000D01*
X71165000Y-108760000D02*
X67355000Y-111300000D01*
X74340000Y-106220000D02*
X74340000Y-108760000D01*
X74340000Y-108760000D02*
X71165000Y-108760000D01*
X81450000Y-107240000D02*
X81960000Y-107240000D01*
X81450000Y-109780000D02*
X81450000Y-107240000D01*
X81960000Y-104950000D02*
X81960000Y-107240000D01*
X81960000Y-107240000D02*
X82470000Y-107240000D01*
X81960000Y-109780000D02*
X81450000Y-109780000D01*
X81960000Y-109780000D02*
X81960000Y-112570000D01*
X81960000Y-112570000D02*
X83230000Y-112570000D01*
X82470000Y-107240000D02*
X82470000Y-109780000D01*
X82470000Y-108000000D02*
X81450000Y-109010000D01*
X82470000Y-109780000D02*
X81960000Y-109780000D01*
X83230000Y-104950000D02*
X81960000Y-104950000D01*
X86180000Y-103260000D02*
X65040000Y-103260000D01*
X86180000Y-103260000D02*
X86180000Y-114260000D01*
X86180000Y-114260000D02*
X65040000Y-114260000D01*
X71292000Y-108760000D02*
G75*
G02*
X71038000Y-108760000I-127000J0D01*
G01*
X71038000Y-108760000D02*
G75*
G02*
X71292000Y-108760000I127000J0D01*
G01*
%TO.C,AUX1*%
X64080000Y-129880000D02*
X72520000Y-129880000D01*
X64080000Y-144120000D02*
X64080000Y-129880000D01*
X64380000Y-144120000D02*
X64080000Y-144120000D01*
X64380000Y-148120000D02*
X64380000Y-144120000D01*
X70620000Y-144120000D02*
X70620000Y-148120000D01*
X70620000Y-148120000D02*
X64380000Y-148120000D01*
X72520000Y-129880000D02*
X72520000Y-144120000D01*
X72520000Y-144120000D02*
X70620000Y-144120000D01*
%TO.C,R13*%
X88430000Y-130730000D02*
X88760000Y-130730000D01*
X88430000Y-137270000D02*
X88430000Y-130730000D01*
X88760000Y-137270000D02*
X88430000Y-137270000D01*
X90840000Y-137270000D02*
X91170000Y-137270000D01*
X91170000Y-130730000D02*
X90840000Y-130730000D01*
X91170000Y-137270000D02*
X91170000Y-130730000D01*
%TO.C,J4*%
X56390000Y-116780000D02*
X56390000Y-126940000D01*
X56390000Y-126940000D02*
X64010000Y-126940000D01*
X62740000Y-116780000D02*
X62740000Y-126940000D01*
X64010000Y-116780000D02*
X56390000Y-116780000D01*
X64010000Y-126940000D02*
X64010000Y-116780000D01*
%TO.C,R3*%
X94330000Y-103430000D02*
X100870000Y-103430000D01*
X94330000Y-103760000D02*
X94330000Y-103430000D01*
X94330000Y-105840000D02*
X94330000Y-106170000D01*
X94330000Y-106170000D02*
X100870000Y-106170000D01*
X100870000Y-103430000D02*
X100870000Y-103760000D01*
X100870000Y-106170000D02*
X100870000Y-105840000D01*
%TO.C,Q1*%
X87229000Y-90840000D02*
X87229000Y-101080000D01*
X90360000Y-90840000D02*
X90360000Y-101080000D01*
X91870000Y-90840000D02*
X87229000Y-90840000D01*
X91870000Y-90840000D02*
X91870000Y-101080000D01*
X91870000Y-94110000D02*
X90360000Y-94110000D01*
X91870000Y-97811000D02*
X90360000Y-97811000D01*
X91870000Y-101080000D02*
X87229000Y-101080000D01*
%TO.C,R10*%
X110630000Y-136530000D02*
X110630000Y-143070000D01*
X110630000Y-143070000D02*
X110960000Y-143070000D01*
X110960000Y-136530000D02*
X110630000Y-136530000D01*
X113040000Y-136530000D02*
X113370000Y-136530000D01*
X113370000Y-136530000D02*
X113370000Y-143070000D01*
X113370000Y-143070000D02*
X113040000Y-143070000D01*
%TO.C,R4*%
X94330000Y-107030000D02*
X94330000Y-107360000D01*
X94330000Y-109770000D02*
X94330000Y-109440000D01*
X100870000Y-107030000D02*
X94330000Y-107030000D01*
X100870000Y-107360000D02*
X100870000Y-107030000D01*
X100870000Y-109440000D02*
X100870000Y-109770000D01*
X100870000Y-109770000D02*
X94330000Y-109770000D01*
%TO.C,C4*%
X59779000Y-132830000D02*
X60445000Y-132830000D01*
X59779000Y-138170000D02*
X59779000Y-132830000D01*
X59779000Y-138170000D02*
X60445000Y-138170000D01*
X62555000Y-132830000D02*
X63221000Y-132830000D01*
X62555000Y-138170000D02*
X63221000Y-138170000D01*
X63221000Y-138170000D02*
X63221000Y-132830000D01*
%TO.C,Q3*%
X87184000Y-116620000D02*
X87184000Y-126860000D01*
X90315000Y-116620000D02*
X90315000Y-126860000D01*
X91825000Y-116620000D02*
X87184000Y-116620000D01*
X91825000Y-116620000D02*
X91825000Y-126860000D01*
X91825000Y-119890000D02*
X90315000Y-119890000D01*
X91825000Y-123591000D02*
X90315000Y-123591000D01*
X91825000Y-126860000D02*
X87184000Y-126860000D01*
%TO.C,R9*%
X93730000Y-130230000D02*
X100270000Y-130230000D01*
X93730000Y-130560000D02*
X93730000Y-130230000D01*
X93730000Y-132640000D02*
X93730000Y-132970000D01*
X93730000Y-132970000D02*
X100270000Y-132970000D01*
X100270000Y-130230000D02*
X100270000Y-130560000D01*
X100270000Y-132970000D02*
X100270000Y-132640000D01*
%TO.C,AUX2*%
X74330000Y-129880000D02*
X82770000Y-129880000D01*
X74330000Y-144120000D02*
X74330000Y-129880000D01*
X74630000Y-144120000D02*
X74330000Y-144120000D01*
X74630000Y-148120000D02*
X74630000Y-144120000D01*
X80870000Y-144120000D02*
X80870000Y-148120000D01*
X80870000Y-148120000D02*
X74630000Y-148120000D01*
X82770000Y-129880000D02*
X82770000Y-144120000D01*
X82770000Y-144120000D02*
X80870000Y-144120000D01*
%TO.C,J2*%
X56440000Y-90630000D02*
X56440000Y-100790000D01*
X56440000Y-100790000D02*
X64060000Y-100790000D01*
X62790000Y-90630000D02*
X62790000Y-100790000D01*
X64060000Y-90630000D02*
X56440000Y-90630000D01*
X64060000Y-100790000D02*
X64060000Y-90630000D01*
%TO.C,C7*%
X111130000Y-145029000D02*
X111130000Y-145695000D01*
X111130000Y-145029000D02*
X116470000Y-145029000D01*
X111130000Y-147805000D02*
X111130000Y-148471000D01*
X111130000Y-148471000D02*
X116470000Y-148471000D01*
X116470000Y-145029000D02*
X116470000Y-145695000D01*
X116470000Y-147805000D02*
X116470000Y-148471000D01*
%TO.C,C6*%
X88079000Y-142130000D02*
X88745000Y-142130000D01*
X88079000Y-147470000D02*
X88079000Y-142130000D01*
X88079000Y-147470000D02*
X88745000Y-147470000D01*
X90855000Y-142130000D02*
X91521000Y-142130000D01*
X90855000Y-147470000D02*
X91521000Y-147470000D01*
X91521000Y-147470000D02*
X91521000Y-142130000D01*
%TO.C,R1*%
X94130000Y-90630000D02*
X100670000Y-90630000D01*
X94130000Y-90960000D02*
X94130000Y-90630000D01*
X94130000Y-93040000D02*
X94130000Y-93370000D01*
X94130000Y-93370000D02*
X100670000Y-93370000D01*
X100670000Y-90630000D02*
X100670000Y-90960000D01*
X100670000Y-93370000D02*
X100670000Y-93040000D01*
%TO.C,D3*%
X95080000Y-123930000D02*
X95080000Y-124260000D01*
X95080000Y-126870000D02*
X95080000Y-126540000D01*
X99500000Y-126870000D02*
X99500000Y-123930000D01*
X99620000Y-126870000D02*
X99620000Y-123930000D01*
X99740000Y-126870000D02*
X99740000Y-123930000D01*
X100520000Y-123930000D02*
X95080000Y-123930000D01*
X100520000Y-124260000D02*
X100520000Y-123930000D01*
X100520000Y-126540000D02*
X100520000Y-126870000D01*
X100520000Y-126870000D02*
X95080000Y-126870000D01*
%TO.C,K3*%
X65040000Y-116260000D02*
X65040000Y-127260000D01*
X66720000Y-119220000D02*
X66720000Y-121760000D01*
X69260000Y-124300000D02*
X69260000Y-123030000D01*
X71165000Y-121760000D02*
X67355000Y-124300000D01*
X74340000Y-119220000D02*
X74340000Y-121760000D01*
X74340000Y-121760000D02*
X71165000Y-121760000D01*
X81450000Y-120240000D02*
X81960000Y-120240000D01*
X81450000Y-122780000D02*
X81450000Y-120240000D01*
X81960000Y-117950000D02*
X81960000Y-120240000D01*
X81960000Y-120240000D02*
X82470000Y-120240000D01*
X81960000Y-122780000D02*
X81450000Y-122780000D01*
X81960000Y-122780000D02*
X81960000Y-125570000D01*
X81960000Y-125570000D02*
X83230000Y-125570000D01*
X82470000Y-120240000D02*
X82470000Y-122780000D01*
X82470000Y-121000000D02*
X81450000Y-122010000D01*
X82470000Y-122780000D02*
X81960000Y-122780000D01*
X83230000Y-117950000D02*
X81960000Y-117950000D01*
X86180000Y-116260000D02*
X65040000Y-116260000D01*
X86180000Y-116260000D02*
X86180000Y-127260000D01*
X86180000Y-127260000D02*
X65040000Y-127260000D01*
X71292000Y-121760000D02*
G75*
G02*
X71038000Y-121760000I-127000J0D01*
G01*
X71038000Y-121760000D02*
G75*
G02*
X71292000Y-121760000I127000J0D01*
G01*
%TO.C,R11*%
X114430000Y-136530000D02*
X114430000Y-143070000D01*
X114430000Y-143070000D02*
X114760000Y-143070000D01*
X114760000Y-136530000D02*
X114430000Y-136530000D01*
X116840000Y-136530000D02*
X117170000Y-136530000D01*
X117170000Y-136530000D02*
X117170000Y-143070000D01*
X117170000Y-143070000D02*
X116840000Y-143070000D01*
%TO.C,PS1*%
X65037500Y-62737500D02*
X68037500Y-62737500D01*
X65037500Y-65737500D02*
X65037500Y-62737500D01*
X65277500Y-62977500D02*
X65277500Y-88597500D01*
X65277500Y-62977500D02*
X106397500Y-62977500D01*
X65277500Y-88597500D02*
X106397500Y-88597500D01*
X106397500Y-62977500D02*
X106397500Y-88597500D01*
%TO.C,R2*%
X94130000Y-94230000D02*
X94130000Y-94560000D01*
X94130000Y-96970000D02*
X94130000Y-96640000D01*
X100670000Y-94230000D02*
X94130000Y-94230000D01*
X100670000Y-94560000D02*
X100670000Y-94230000D01*
X100670000Y-96640000D02*
X100670000Y-96970000D01*
X100670000Y-96970000D02*
X94130000Y-96970000D01*
%TO.C,C5*%
X83879000Y-132630000D02*
X84545000Y-132630000D01*
X83879000Y-137970000D02*
X83879000Y-132630000D01*
X83879000Y-137970000D02*
X84545000Y-137970000D01*
X86655000Y-132630000D02*
X87321000Y-132630000D01*
X86655000Y-137970000D02*
X87321000Y-137970000D01*
X87321000Y-137970000D02*
X87321000Y-132630000D01*
%TO.C,J5*%
X137090000Y-141110000D02*
X137090000Y-142360000D01*
X137090000Y-142360000D02*
X138340000Y-142360000D01*
X137190000Y-140300000D02*
X137190000Y-140600000D01*
X137190000Y-140600000D02*
X137390000Y-140600000D01*
X137290000Y-140300000D02*
X137290000Y-140600000D01*
X137390000Y-131940000D02*
X137390000Y-142060000D01*
X137390000Y-139500000D02*
X138000000Y-139500000D01*
X137390000Y-140300000D02*
X137190000Y-140300000D01*
X137390000Y-142060000D02*
X142110000Y-142060000D01*
X138000000Y-132550000D02*
X138000000Y-134500000D01*
X138000000Y-134500000D02*
X137390000Y-134500000D01*
X138000000Y-139500000D02*
X138000000Y-141450000D01*
X138000000Y-141450000D02*
X141500000Y-141450000D01*
X138700000Y-131940000D02*
X138700000Y-132550000D01*
X138700000Y-142060000D02*
X138700000Y-141450000D01*
X140000000Y-131940000D02*
X140000000Y-132550000D01*
X140000000Y-142060000D02*
X140000000Y-141450000D01*
X141000000Y-134900000D02*
X141500000Y-134900000D01*
X141000000Y-135100000D02*
X141000000Y-134900000D01*
X141000000Y-136900000D02*
X141500000Y-136900000D01*
X141000000Y-137100000D02*
X141000000Y-136900000D01*
X141000000Y-138900000D02*
X141500000Y-138900000D01*
X141000000Y-139100000D02*
X141000000Y-138900000D01*
X141500000Y-132550000D02*
X138000000Y-132550000D01*
X141500000Y-135000000D02*
X141000000Y-135000000D01*
X141500000Y-135100000D02*
X141000000Y-135100000D01*
X141500000Y-137000000D02*
X141000000Y-137000000D01*
X141500000Y-137100000D02*
X141000000Y-137100000D01*
X141500000Y-139000000D02*
X141000000Y-139000000D01*
X141500000Y-139100000D02*
X141000000Y-139100000D01*
X141500000Y-141450000D02*
X141500000Y-132550000D01*
X142110000Y-131940000D02*
X137390000Y-131940000D01*
X142110000Y-142060000D02*
X142110000Y-131940000D01*
%TO.C,D2*%
X94880000Y-110530000D02*
X94880000Y-110860000D01*
X94880000Y-113470000D02*
X94880000Y-113140000D01*
X99300000Y-113470000D02*
X99300000Y-110530000D01*
X99420000Y-113470000D02*
X99420000Y-110530000D01*
X99540000Y-113470000D02*
X99540000Y-110530000D01*
X100320000Y-110530000D02*
X94880000Y-110530000D01*
X100320000Y-110860000D02*
X100320000Y-110530000D01*
X100320000Y-113140000D02*
X100320000Y-113470000D01*
X100320000Y-113470000D02*
X94880000Y-113470000D01*
%TO.C,R12*%
X56380000Y-130930000D02*
X56710000Y-130930000D01*
X56380000Y-137470000D02*
X56380000Y-130930000D01*
X56710000Y-137470000D02*
X56380000Y-137470000D01*
X58790000Y-137470000D02*
X59120000Y-137470000D01*
X59120000Y-130930000D02*
X58790000Y-130930000D01*
X59120000Y-137470000D02*
X59120000Y-130930000D01*
%TO.C,R6*%
X94480000Y-116880000D02*
X101020000Y-116880000D01*
X94480000Y-117210000D02*
X94480000Y-116880000D01*
X94480000Y-119290000D02*
X94480000Y-119620000D01*
X94480000Y-119620000D02*
X101020000Y-119620000D01*
X101020000Y-116880000D02*
X101020000Y-117210000D01*
X101020000Y-119620000D02*
X101020000Y-119290000D01*
%TO.C,R7*%
X94520000Y-120430000D02*
X94520000Y-120760000D01*
X94520000Y-123170000D02*
X94520000Y-122840000D01*
X101060000Y-120430000D02*
X94520000Y-120430000D01*
X101060000Y-120760000D02*
X101060000Y-120430000D01*
X101060000Y-122840000D02*
X101060000Y-123170000D01*
X101060000Y-123170000D02*
X94520000Y-123170000D01*
%TD*%
%LPC*%
D16*
%TO.C,C1*%
X108810000Y-63630000D03*
X108810000Y-68630000D03*
X108780000Y-71010000D03*
%TD*%
%TO.C,C2*%
X108780000Y-76010000D03*
X108780000Y-71010000D03*
%TD*%
D17*
%TO.C,SW1*%
X108050000Y-139100000D03*
D18*
X108050000Y-144100000D03*
X108050000Y-141600000D03*
D19*
X100550000Y-147200000D03*
X100550000Y-136000000D03*
D18*
X93550000Y-144100000D03*
X93550000Y-139100000D03*
%TD*%
D20*
%TO.C,J6*%
X108700000Y-79045000D03*
D21*
X108700000Y-81585000D03*
%TD*%
D20*
%TO.C,U2*%
X140445000Y-106715000D03*
X140445000Y-104175000D03*
X140445000Y-101635000D03*
X140445000Y-99095000D03*
X140445000Y-96555000D03*
X140445000Y-94015000D03*
X140445000Y-91475000D03*
X140445000Y-88935000D03*
X140445000Y-86395000D03*
X140445000Y-83855000D03*
X140445000Y-81315000D03*
X140445000Y-78775000D03*
X140445000Y-76235000D03*
D21*
X140445000Y-73695000D03*
%TD*%
D22*
%TO.C,U1*%
X112500000Y-122220000D03*
X135360000Y-124760000D03*
X135360000Y-122220000D03*
X135360000Y-119680000D03*
X135360000Y-117140000D03*
X135360000Y-114600000D03*
X135360000Y-112060000D03*
X135360000Y-109520000D03*
X135360000Y-106980000D03*
X135360000Y-104440000D03*
X135360000Y-101900000D03*
X135360000Y-99360000D03*
X135360000Y-96820000D03*
X135360000Y-94280000D03*
X135360000Y-91740000D03*
X135360000Y-89200000D03*
X135360000Y-86660000D03*
X135360000Y-84120000D03*
X135360000Y-81580000D03*
X135360000Y-79040000D03*
X135360000Y-76500000D03*
X135360000Y-73960000D03*
X135360000Y-71420000D03*
X112500000Y-124760000D03*
X112500000Y-119680000D03*
X112500000Y-117140000D03*
X112500000Y-114600000D03*
X112500000Y-112060000D03*
X112500000Y-109520000D03*
X112500000Y-106980000D03*
X112500000Y-104440000D03*
X112500000Y-101900000D03*
X112500000Y-99360000D03*
X112500000Y-96820000D03*
X112500000Y-94280000D03*
X112500000Y-91740000D03*
X112500000Y-89200000D03*
X112500000Y-86660000D03*
X112500000Y-84120000D03*
X112500000Y-81580000D03*
X112500000Y-79040000D03*
X112500000Y-76500000D03*
X112500000Y-73960000D03*
D23*
X112500000Y-71420000D03*
%TD*%
D24*
%TO.C,R8*%
X139000000Y-121880000D03*
D16*
X139000000Y-129500000D03*
%TD*%
D24*
%TO.C,R5*%
X139000000Y-119310000D03*
D16*
X139000000Y-111690000D03*
%TD*%
%TO.C,C3*%
X109100000Y-131400000D03*
X104100000Y-131400000D03*
%TD*%
D25*
%TO.C,D1*%
X101210000Y-99400000D03*
D26*
X93590000Y-99400000D03*
%TD*%
D27*
%TO.C,J1*%
X60500000Y-80000000D03*
D28*
X60500000Y-74920000D03*
%TD*%
D29*
%TO.C,K1*%
X84500000Y-92000000D03*
D30*
X74340000Y-92000000D03*
X66720000Y-92000000D03*
X69260000Y-99620000D03*
X84500000Y-99620000D03*
%TD*%
D27*
%TO.C,J3*%
X60000000Y-111040000D03*
D28*
X60000000Y-105960000D03*
%TD*%
D31*
%TO.C,Q2*%
X88600000Y-106000000D03*
D32*
X88600000Y-108540000D03*
X88600000Y-111080000D03*
%TD*%
D29*
%TO.C,K2*%
X84500000Y-104950000D03*
D30*
X74340000Y-104950000D03*
X66720000Y-104950000D03*
X69260000Y-112570000D03*
X84500000Y-112570000D03*
%TD*%
D33*
%TO.C,AUX1*%
X66400000Y-134900000D03*
X68400000Y-136700000D03*
X68400000Y-142800000D03*
X66400000Y-140400000D03*
X68400000Y-131200000D03*
%TD*%
D16*
%TO.C,R13*%
X89800000Y-137810000D03*
D24*
X89800000Y-130190000D03*
%TD*%
D27*
%TO.C,J4*%
X60200000Y-124400000D03*
D28*
X60200000Y-119320000D03*
%TD*%
D16*
%TO.C,R3*%
X93790000Y-104800000D03*
D24*
X101410000Y-104800000D03*
%TD*%
D31*
%TO.C,Q1*%
X88600000Y-93420000D03*
D32*
X88600000Y-95960000D03*
X88600000Y-98500000D03*
%TD*%
D16*
%TO.C,R10*%
X112000000Y-135990000D03*
D24*
X112000000Y-143610000D03*
%TD*%
D16*
%TO.C,R4*%
X101410000Y-108400000D03*
D24*
X93790000Y-108400000D03*
%TD*%
D34*
%TO.C,REF\u002A\u002A*%
X59000000Y-146000000D03*
%TD*%
%TO.C,REF\u002A\u002A*%
X59000000Y-65000000D03*
%TD*%
D16*
%TO.C,C4*%
X61500000Y-138000000D03*
X61500000Y-133000000D03*
%TD*%
D31*
%TO.C,Q3*%
X88555000Y-119200000D03*
D32*
X88555000Y-121740000D03*
X88555000Y-124280000D03*
%TD*%
D16*
%TO.C,R9*%
X93190000Y-131600000D03*
D24*
X100810000Y-131600000D03*
%TD*%
D33*
%TO.C,AUX2*%
X76650000Y-134900000D03*
X78650000Y-136700000D03*
X78650000Y-142800000D03*
X76650000Y-140400000D03*
X78650000Y-131200000D03*
%TD*%
D27*
%TO.C,J2*%
X60250000Y-98250000D03*
D28*
X60250000Y-93170000D03*
%TD*%
D16*
%TO.C,C7*%
X111300000Y-146750000D03*
X116300000Y-146750000D03*
%TD*%
%TO.C,C6*%
X89800000Y-147300000D03*
X89800000Y-142300000D03*
%TD*%
%TO.C,R1*%
X93590000Y-92000000D03*
D24*
X101210000Y-92000000D03*
%TD*%
D25*
%TO.C,D3*%
X101610000Y-125400000D03*
D26*
X93990000Y-125400000D03*
%TD*%
D34*
%TO.C,REF\u002A\u002A*%
X140000000Y-146000000D03*
%TD*%
D29*
%TO.C,K3*%
X84500000Y-117950000D03*
D30*
X74340000Y-117950000D03*
X66720000Y-117950000D03*
X69260000Y-125570000D03*
X84500000Y-125570000D03*
%TD*%
D16*
%TO.C,R11*%
X115800000Y-135990000D03*
D24*
X115800000Y-143610000D03*
%TD*%
D35*
%TO.C,PS1*%
X69037500Y-72787500D03*
D36*
X69037500Y-78787500D03*
X102637500Y-66787500D03*
X102637500Y-84787500D03*
%TD*%
D34*
%TO.C,REF\u002A\u002A*%
X140000000Y-65000000D03*
%TD*%
D16*
%TO.C,R2*%
X101210000Y-95600000D03*
D24*
X93590000Y-95600000D03*
%TD*%
D16*
%TO.C,C5*%
X85600000Y-137800000D03*
X85600000Y-132800000D03*
%TD*%
D37*
%TO.C,J5*%
X139200000Y-134000000D03*
D38*
X139200000Y-140000000D03*
D37*
X139200000Y-138000000D03*
X139200000Y-136000000D03*
%TD*%
D25*
%TO.C,D2*%
X101410000Y-112000000D03*
D26*
X93790000Y-112000000D03*
%TD*%
D16*
%TO.C,R12*%
X57750000Y-138010000D03*
D24*
X57750000Y-130390000D03*
%TD*%
D16*
%TO.C,R6*%
X93940000Y-118250000D03*
D24*
X101560000Y-118250000D03*
%TD*%
D16*
%TO.C,R7*%
X101600000Y-121800000D03*
D24*
X93980000Y-121800000D03*
%TD*%
%LPD*%
M02*
