%TF.GenerationSoftware,KiCad,Pcbnew,9.0.0*%
%TF.CreationDate,2025-07-02T18:07:02-06:00*%
%TF.ProjectId,CyberSmoker_PCB_v2,43796265-7253-46d6-9f6b-65725f504342,rev?*%
%TF.SameCoordinates,Original*%
%TF.FileFunction,Soldermask,Top*%
%TF.FilePolarity,Negative*%
%FSLAX46Y46*%
G04 Gerber Fmt 4.6, Leading zero omitted, Abs format (unit mm)*
G04 Created by KiCad (PCBNEW 9.0.0) date 2025-07-02 18:07:02*
%MOMM*%
%LPD*%
G01*
G04 APERTURE LIST*
G04 Aperture macros list*
%AMRoundRect*
0 Rectangle with rounded corners*
0 $1 Rounding radius*
0 $2 $3 $4 $5 $6 $7 $8 $9 X,Y pos of 4 corners*
0 Add a 4 corners polygon primitive as box body*
4,1,4,$2,$3,$4,$5,$6,$7,$8,$9,$2,$3,0*
0 Add four circle primitives for the rounded corners*
1,1,$1+$1,$2,$3*
1,1,$1+$1,$4,$5*
1,1,$1+$1,$6,$7*
1,1,$1+$1,$8,$9*
0 Add four rect primitives between the rounded corners*
20,1,$1+$1,$2,$3,$4,$5,0*
20,1,$1+$1,$4,$5,$6,$7,0*
20,1,$1+$1,$6,$7,$8,$9,0*
20,1,$1+$1,$8,$9,$2,$3,0*%
G04 Aperture macros list end*
%ADD10C,1.600000*%
%ADD11R,2.000000X2.000000*%
%ADD12C,2.000000*%
%ADD13R,3.200000X2.000000*%
%ADD14O,1.700000X1.700000*%
%ADD15R,1.700000X1.700000*%
%ADD16C,1.734000*%
%ADD17RoundRect,0.102000X-0.765000X-0.765000X0.765000X-0.765000X0.765000X0.765000X-0.765000X0.765000X0*%
%ADD18O,1.600000X1.600000*%
%ADD19R,1.800000X1.800000*%
%ADD20O,1.800000X1.800000*%
%ADD21R,3.000000X3.000000*%
%ADD22C,3.000000*%
%ADD23R,2.300000X2.300000*%
%ADD24C,2.300000*%
%ADD25R,2.000000X1.905000*%
%ADD26O,2.000000X1.905000*%
%ADD27O,2.800000X1.800000*%
%ADD28R,1.700000X2.000000*%
%ADD29O,1.700000X2.000000*%
%ADD30O,1.750000X1.200000*%
%ADD31RoundRect,0.250000X0.625000X-0.350000X0.625000X0.350000X-0.625000X0.350000X-0.625000X-0.350000X0*%
G04 APERTURE END LIST*
D10*
%TO.C,C1*%
X108810000Y-63630000D03*
X108810000Y-68630000D03*
X108780000Y-71010000D03*
%TD*%
%TO.C,C2*%
X108780000Y-76010000D03*
X108780000Y-71010000D03*
%TD*%
D11*
%TO.C,SW1*%
X108050000Y-139100000D03*
D12*
X108050000Y-144100000D03*
X108050000Y-141600000D03*
D13*
X100550000Y-147200000D03*
X100550000Y-136000000D03*
D12*
X93550000Y-144100000D03*
X93550000Y-139100000D03*
%TD*%
D14*
%TO.C,J6*%
X108700000Y-79045000D03*
D15*
X108700000Y-81585000D03*
%TD*%
D14*
%TO.C,U2*%
X140445000Y-106715000D03*
X140445000Y-104175000D03*
X140445000Y-101635000D03*
X140445000Y-99095000D03*
X140445000Y-96555000D03*
X140445000Y-94015000D03*
X140445000Y-91475000D03*
X140445000Y-88935000D03*
X140445000Y-86395000D03*
X140445000Y-83855000D03*
X140445000Y-81315000D03*
X140445000Y-78775000D03*
X140445000Y-76235000D03*
D15*
X140445000Y-73695000D03*
%TD*%
D16*
%TO.C,U1*%
X112500000Y-122220000D03*
X135360000Y-124760000D03*
X135360000Y-122220000D03*
X135360000Y-119680000D03*
X135360000Y-117140000D03*
X135360000Y-114600000D03*
X135360000Y-112060000D03*
X135360000Y-109520000D03*
X135360000Y-106980000D03*
X135360000Y-104440000D03*
X135360000Y-101900000D03*
X135360000Y-99360000D03*
X135360000Y-96820000D03*
X135360000Y-94280000D03*
X135360000Y-91740000D03*
X135360000Y-89200000D03*
X135360000Y-86660000D03*
X135360000Y-84120000D03*
X135360000Y-81580000D03*
X135360000Y-79040000D03*
X135360000Y-76500000D03*
X135360000Y-73960000D03*
X135360000Y-71420000D03*
X112500000Y-124760000D03*
X112500000Y-119680000D03*
X112500000Y-117140000D03*
X112500000Y-114600000D03*
X112500000Y-112060000D03*
X112500000Y-109520000D03*
X112500000Y-106980000D03*
X112500000Y-104440000D03*
X112500000Y-101900000D03*
X112500000Y-99360000D03*
X112500000Y-96820000D03*
X112500000Y-94280000D03*
X112500000Y-91740000D03*
X112500000Y-89200000D03*
X112500000Y-86660000D03*
X112500000Y-84120000D03*
X112500000Y-81580000D03*
X112500000Y-79040000D03*
X112500000Y-76500000D03*
X112500000Y-73960000D03*
D17*
X112500000Y-71420000D03*
%TD*%
D18*
%TO.C,R8*%
X139000000Y-121880000D03*
D10*
X139000000Y-129500000D03*
%TD*%
D18*
%TO.C,R5*%
X139000000Y-119310000D03*
D10*
X139000000Y-111690000D03*
%TD*%
%TO.C,C3*%
X109100000Y-131400000D03*
X104100000Y-131400000D03*
%TD*%
D19*
%TO.C,D1*%
X101210000Y-99400000D03*
D20*
X93590000Y-99400000D03*
%TD*%
D21*
%TO.C,J1*%
X60500000Y-80000000D03*
D22*
X60500000Y-74920000D03*
%TD*%
D23*
%TO.C,K1*%
X84500000Y-92000000D03*
D24*
X74340000Y-92000000D03*
X66720000Y-92000000D03*
X69260000Y-99620000D03*
X84500000Y-99620000D03*
%TD*%
D21*
%TO.C,J3*%
X60000000Y-111040000D03*
D22*
X60000000Y-105960000D03*
%TD*%
D25*
%TO.C,Q2*%
X88600000Y-106000000D03*
D26*
X88600000Y-108540000D03*
X88600000Y-111080000D03*
%TD*%
D23*
%TO.C,K2*%
X84500000Y-104950000D03*
D24*
X74340000Y-104950000D03*
X66720000Y-104950000D03*
X69260000Y-112570000D03*
X84500000Y-112570000D03*
%TD*%
D27*
%TO.C,AUX1*%
X66400000Y-134900000D03*
X68400000Y-136700000D03*
X68400000Y-142800000D03*
X66400000Y-140400000D03*
X68400000Y-131200000D03*
%TD*%
D10*
%TO.C,R13*%
X89800000Y-137810000D03*
D18*
X89800000Y-130190000D03*
%TD*%
D21*
%TO.C,J4*%
X60200000Y-124400000D03*
D22*
X60200000Y-119320000D03*
%TD*%
D10*
%TO.C,R3*%
X93790000Y-104800000D03*
D18*
X101410000Y-104800000D03*
%TD*%
D25*
%TO.C,Q1*%
X88600000Y-93420000D03*
D26*
X88600000Y-95960000D03*
X88600000Y-98500000D03*
%TD*%
D10*
%TO.C,R10*%
X112000000Y-135990000D03*
D18*
X112000000Y-143610000D03*
%TD*%
D10*
%TO.C,R4*%
X101410000Y-108400000D03*
D18*
X93790000Y-108400000D03*
%TD*%
D10*
%TO.C,C4*%
X61500000Y-138000000D03*
X61500000Y-133000000D03*
%TD*%
D25*
%TO.C,Q3*%
X88555000Y-119200000D03*
D26*
X88555000Y-121740000D03*
X88555000Y-124280000D03*
%TD*%
D10*
%TO.C,R9*%
X93190000Y-131600000D03*
D18*
X100810000Y-131600000D03*
%TD*%
D27*
%TO.C,AUX2*%
X76650000Y-134900000D03*
X78650000Y-136700000D03*
X78650000Y-142800000D03*
X76650000Y-140400000D03*
X78650000Y-131200000D03*
%TD*%
D21*
%TO.C,J2*%
X60250000Y-98250000D03*
D22*
X60250000Y-93170000D03*
%TD*%
D10*
%TO.C,C7*%
X111300000Y-146750000D03*
X116300000Y-146750000D03*
%TD*%
%TO.C,C6*%
X89800000Y-147300000D03*
X89800000Y-142300000D03*
%TD*%
%TO.C,R1*%
X93590000Y-92000000D03*
D18*
X101210000Y-92000000D03*
%TD*%
D19*
%TO.C,D3*%
X101610000Y-125400000D03*
D20*
X93990000Y-125400000D03*
%TD*%
D23*
%TO.C,K3*%
X84500000Y-117950000D03*
D24*
X74340000Y-117950000D03*
X66720000Y-117950000D03*
X69260000Y-125570000D03*
X84500000Y-125570000D03*
%TD*%
D10*
%TO.C,R11*%
X115800000Y-135990000D03*
D18*
X115800000Y-143610000D03*
%TD*%
D28*
%TO.C,PS1*%
X69037500Y-72787500D03*
D29*
X69037500Y-78787500D03*
X102637500Y-66787500D03*
X102637500Y-84787500D03*
%TD*%
D10*
%TO.C,R2*%
X101210000Y-95600000D03*
D18*
X93590000Y-95600000D03*
%TD*%
D10*
%TO.C,C5*%
X85600000Y-137800000D03*
X85600000Y-132800000D03*
%TD*%
D30*
%TO.C,J5*%
X139200000Y-134000000D03*
D31*
X139200000Y-140000000D03*
D30*
X139200000Y-138000000D03*
X139200000Y-136000000D03*
%TD*%
D19*
%TO.C,D2*%
X101410000Y-112000000D03*
D20*
X93790000Y-112000000D03*
%TD*%
D10*
%TO.C,R12*%
X57750000Y-138010000D03*
D18*
X57750000Y-130390000D03*
%TD*%
D10*
%TO.C,R6*%
X93940000Y-118250000D03*
D18*
X101560000Y-118250000D03*
%TD*%
D10*
%TO.C,R7*%
X101600000Y-121800000D03*
D18*
X93980000Y-121800000D03*
%TD*%
M02*
