0
SECTION
2
HEADER
9
$INSUNITS
70
4
9
$ACADVER
1
AC1014
9
$HANDSEED
5
FFFF
0
ENDSEC
0
SECTION
2
TABLES
0
TABLE
2
VPORT
5
8
100
AcDbSymbolTable
0
ENDTAB
0
TABLE
2
LTYPE
5
5
100
AcDbSymbolTable
0
LTYPE
5
14
100
AcDbSymbolTableRecord
100
AcDbLinetypeTableRecord
2
BYBLOCK
70
0
0
LTYPE
5
15
100
AcDbSymbolTableRecord
100
AcDbLinetypeTableRecord
2
BYLAYER
70
0
0
LTYPE
5
16
100
AcDbSymbolTableRecord
100
AcDbLinetypeTableRecord
2
DASHED
70
0
3
Dashed __ __ __ __ __ __ __ __ __ __ __ __ __ _
72
65
73
2
40
0.75
49
0.5
74
0
49
-0.25
74
0
0
ENDTAB
0
TABLE
2
LAYER
5
2
100
AcDbSymbolTable
70
2
0
LAYER
5
50
100
AcDbSymbolTableRecord
100
AcDbLayerTableRecord
2
0
70
0
62
7
6
CONTINUOUS
0
ENDTAB
0
TABLE
2
STYLE
5
3
100
AcDbSymbolTable
70
1
0
STYLE
5
11
100
AcDbSymbolTableRecord
100
AcDbTextStyleTableRecord
2
STANDARD
70
0
0
ENDTAB
0
TABLE
2
VIEW
5
6
100
AcDbSymbolTable
70
0
0
ENDTAB
0
TABLE
2
UCS
5
7
100
AcDbSymbolTable
70
0
0
ENDTAB
0
TABLE
2
APPID
5
9
100
AcDbSymbolTable
70
2
0
APPID
5
12
100
AcDbSymbolTableRecord
100
AcDbRegAppTableRecord
2
ACAD
70
0
0
ENDTAB
0
TABLE
2
DIMSTYLE
5
A
100
AcDbSymbolTable
70
1
0
ENDTAB
0
TABLE
2
BLOCK_RECORD
5
1
100
AcDbSymbolTable
70
1
0
BLOCK_RECORD
5
1F
100
AcDbSymbolTableRecord
100
AcDbBlockTableRecord
2
*MODEL_SPACE
0
BLOCK_RECORD
5
1B
100
AcDbSymbolTableRecord
100
AcDbBlockTableRecord
2
*PAPER_SPACE
0
ENDTAB
0
ENDSEC
0
SECTION
2
BLOCKS
0
BLOCK
5
20
100
AcDbEntity
100
AcDbBlockBegin
2
*MODEL_SPACE
0
ENDBLK
5
21
100
AcDbEntity
100
AcDbBlockEnd
0
BLOCK
5
1C
100
AcDbEntity
100
AcDbBlockBegin
2
*PAPER_SPACE
0
ENDBLK
5
1D
100
AcDbEntity
100
AcDbBlockEnd
0
ENDSEC
0
SECTION
2
ENTITIES
0
LWPOLYLINE
5
100
100
AcDbEntity
8
OUTER_PROFILES
100
AcDbPolyline
90
40
70
1
43
0.0
10
160.28687445345597
20
-4.6369884169111399
42
-0.57735026916163701
10
164.3768248128012
20
-6.2578234045496721
42
0.26794919243112619
10
165.95390523438314
20
-8.2489078688210924
10
178.58896961897335
20
-13.256145762626904
42
0.41421356237309093
10
186.83177826243664
20
-9.6922847009065727
10
238.30020166160907
20
120.18108205611396
42
0.4142135623730902
10
234.73634059988879
20
128.42389069957724
10
222.43893347692568
20
133.29731603936065
42
0.31357066493979247
10
219.61492427148625
20
132.63487185511499
42
-0.47975623889861757
10
215.65892042084099
20
132.85867901719033
42
0.25305196380576955
10
213.35650260804834
20
133.59167604535412
10
150.50930526690013
20
121.66882159539739
42
0.2661337198958269
10
148.59059327236247
20
120.02731415564055
42
-0.62058640038266744
10
144.06970689869428
20
119.49564830859885
42
0.25368458550753226
10
141.94095638140078
20
120.65000000000012
10
0.17499302102956887
20
120.65000000000009
42
0.25368458550749162
10
-1.9537574962637481
20
119.49564830859913
42
-0.62058640039053548
10
-6.4746438699514144
20
120.02731415569593
42
0.26613371988958556
10
-8.3933558644687434
20
121.66882159539662
10
-71.240553205618724
20
133.59167604535202
42
0.25305196380753597
10
-73.542971018421014
20
132.85867901717668
42
-0.47975623889603231
10
-77.498974869052418
20
132.63487185511713
42
0.3135706649397374
10
-80.322984074491629
20
133.29731603936253
10
-92.620391197456115
20
128.42389069957844
42
0.41421356237309581
10
-96.184252259176475
20
120.18108205611512
10
-44.715828860004045
20
-9.6922847009054163
42
0.4142135623730962
10
-36.473020216540732
20
-13.256145762625771
10
-23.837955831945706
20
-8.2489078688180673
42
0.26794919243105741
10
-22.260875410363855
20
-6.2578234045472687
42
-0.57735026918950416
10
-18.170925050851451
20
-4.6369884170411835
42
0.26794919243105814
10
-15.658055112921399
20
-5.0072378938061357
10
-8.1620647553807757
20
-2.0365995315945304
42
0.26435524989471387
10
-6.5901811426423169
20
-0.079215436027866154
42
-0.66394896736995312
10
-2.0412540067777001
20
1.0284173592509429
42
0.23767775229816285
10
-1.7763568394002505e-14
20
6.5503158452884236e-14
10
142.11594940243447
20
8.3266726846886741e-16
42
0.23767775229812002
10
144.15720340921197
20
1.0284173592505867
42
-0.66394896736999498
10
148.70613054507703
20
-0.079215436029108077
42
0.26435524989476766
10
150.27801415781542
20
-2.03659953159617
10
157.77400451535391
20
-5.0072378938103732
42
0.2679491924538081
0
LWPOLYLINE
5
101
100
AcDbEntity
8
INTERIOR_PROFILES
100
AcDbPolyline
90
4
70
1
43
0.0
10
147.42589907632555
20
9.1313861010879815
10
147.42578646139813
20
19.292474568015905
42
0.99999999999999989
10
144.88578646155415
20
19.292446417317137
10
144.88589907634389
20
9.1313579503893738
42
0.99999999999999989
0
LWPOLYLINE
5
102
100
AcDbEntity
8
INTERIOR_PROFILES
100
AcDbPolyline
90
4
70
1
43
0.0
10
144.88578646162193
20
110.73244641731708
10
144.88589907641241
20
100.57135795038928
42
0.99999999999999989
10
147.42589907625643
20
100.57138610108805
10
147.4257864613302
20
110.73247456801546
42
0.99999999999999989
0
LWPOLYLINE
5
103
100
AcDbEntity
8
INTERIOR_PROFILES
100
AcDbPolyline
90
4
70
1
43
0.0
10
-47.647473596430757
20
60.660736845403704
42
-0.99999999999999989
10
-45.285948341232043
20
61.596043463264316
10
-41.544721878421349
20
52.1499424692174
42
-1.0000000105367122
10
-43.906247127325706
20
51.214635825554296
0
LWPOLYLINE
5
104
100
AcDbEntity
8
INTERIOR_PROFILES
100
AcDbPolyline
90
4
70
1
43
0.0
10
-5.3098370590299906
20
42.152474568011414
42
-0.99999999999999989
10
-2.7698370591860133
20
42.152446417312788
10
-2.7699496740439473
20
31.991357950384813
42
-0.99999999999999989
10
-5.3099496738880179
20
31.991386101083506
0
LWPOLYLINE
5
105
100
AcDbEntity
8
INTERIOR_PROFILES
100
AcDbPolyline
90
4
70
1
43
0.0
10
194.44430217627178
20
72.466641293268154
10
198.18552864601426
20
81.912742314737201
42
1.0000000105367122
10
195.82400338079259
20
82.848048907291059
10
192.08277692089752
20
73.401947910707733
42
0.99999999999999989
0
LWPOLYLINE
5
106
100
AcDbEntity
8
INTERIOR_PROFILES
100
AcDbPolyline
90
4
70
1
43
0.0
10
-39.225367949281981
20
39.408731376077689
42
-0.99999999999999989
10
-36.863842693997718
20
40.344037993722175
10
-33.122616233233408
20
30.897936999793338
42
-0.99999999999999989
10
-35.484141478594353
20
29.962630357283672
0
LWPOLYLINE
5
107
100
AcDbEntity
8
INTERIOR_PROFILES
100
AcDbPolyline
90
4
70
1
43
0.0
10
169.17798523482915
20
8.7106248852883361
10
172.91921171442669
20
18.156725931640253
42
0.99999999999999989
10
170.55768643934999
20
19.092032499311372
10
166.81645997945495
20
9.6459315027282067
42
0.99999999999999989
0
LWPOLYLINE
5
108
100
AcDbEntity
8
INTERIOR_PROFILES
100
AcDbPolyline
90
4
70
1
43
0.0
10
-72.913790537877091
20
124.41675325338184
42
-0.99999999999999989
10
-70.552265282510447
20
125.35205987081852
10
-66.811038811044369
20
115.90595884986898
42
-0.99999999999999989
10
-69.172564066339618
20
114.97065223244208
0
LWPOLYLINE
5
109
100
AcDbEntity
8
INTERIOR_PROFILES
100
AcDbPolyline
90
4
70
1
43
0.0
10
144.88578646155392
20
87.872446417317065
42
-0.99999999999999989
10
147.42578646139791
20
87.872474568015818
10
147.42589907625532
20
77.711386101088038
42
-0.99999999999999989
10
144.88589907648051
20
77.711357950389242
0
LWPOLYLINE
5
110
100
AcDbEntity
8
INTERIOR_PROFILES
100
AcDbPolyline
90
4
70
1
43
0.0
10
202.86640782333293
20
93.718646762387579
42
-0.99999999999999989
10
200.50488256804869
20
94.653953380032789
10
204.24610903779512
20
104.10005440150033
42
-0.99999998946328783
10
206.60763429316174
20
103.16474778406382
0
LWPOLYLINE
5
111
100
AcDbEntity
8
INTERIOR_PROFILES
100
AcDbPolyline
90
4
70
1
43
0.0
10
144.88578646155435
20
42.152446417316952
42
-0.99999999999999989
10
147.4257864613983
20
42.152474568015762
10
147.4258990762562
20
31.991386101087965
42
-0.99999999999999989
10
144.88589907648043
20
31.991357950389208
0
LWPOLYLINE
5
112
100
AcDbEntity
8
INTERIOR_PROFILES
100
AcDbPolyline
90
4
70
1
43
0.0
10
186.02219652912422
20
51.214635823941528
10
189.76342299886667
20
60.660736845410653
42
1.0000000105367122
10
187.40189773364503
20
61.596043437964511
10
183.66067127374993
20
52.149942441381256
42
0.99999999999999989
0
LWPOLYLINE
5
113
100
AcDbEntity
8
INTERIOR_PROFILES
100
AcDbPolyline
90
4
70
1
43
0.0
10
-5.3098370590314339
20
65.012474568011314
10
-5.3099496738893306
20
54.851386101083655
42
0.99999999999999989
10
-2.7699496740453133
20
54.851357950384909
10
-2.7698370591874069
20
65.01244641731283
42
0.99999999999999989
0
LWPOLYLINE
5
114
100
AcDbEntity
8
INTERIOR_PROFILES
100
AcDbPolyline
90
4
70
1
43
0.0
10
-5.3098370590341695
20
110.73247456801136
10
-5.3099496738920582
20
100.57138610108365
42
0.99999999999999989
10
-2.7699496740480405
20
100.57135795038494
10
-2.7698370591903041
20
110.73244641731284
42
0.99999999999999989
0
LWPOLYLINE
5
115
100
AcDbEntity
8
INTERIOR_PROFILES
100
AcDbPolyline
90
4
70
1
43
0.0
10
147.42589907625603
20
54.851386101088011
42
-0.99999999999999989
10
144.88589907641202
20
54.8513579503892
10
144.8857864615544
20
65.012446417317008
42
-0.99999999999999989
10
147.42578646139836
20
65.012474568015818
0
LWPOLYLINE
5
116
100
AcDbEntity
8
INTERIOR_PROFILES
100
AcDbPolyline
90
4
70
1
43
0.0
10
-2.7699496740425813
20
9.1313579503848619
42
-0.99999999999999989
10
-5.3099496738865977
20
9.1313861010834856
10
-5.3098370590286077
20
19.292474568011443
42
-0.99999999999999989
10
-2.7698370591845149
20
19.292446417312632
0
LWPOLYLINE
5
117
100
AcDbEntity
8
INTERIOR_PROFILES
100
AcDbPolyline
90
4
70
1
43
0.0
10
-58.388933164127806
20
94.65395338112927
10
-62.130159635361714
20
104.10005440149243
42
0.99999999999999989
10
-64.491684890728294
20
103.16474778405583
10
-60.750458419429343
20
93.718646763718283
42
0.99999999999999989
0
LWPOLYLINE
5
118
100
AcDbEntity
8
INTERIOR_PROFILES
100
AcDbPolyline
90
4
70
1
43
0.0
10
178.97979208649755
20
40.344037968637934
42
-1.0000000149011612
10
181.3413173517192
20
39.408731376084035
10
177.6000908818919
20
29.962630354411775
42
-0.99999999999999989
10
175.23856562660612
20
30.89793697205312
0
LWPOLYLINE
5
119
100
AcDbEntity
8
INTERIOR_PROFILES
100
AcDbPolyline
90
4
70
1
43
0.0
10
-24.700510576461866
20
9.6459315061710615
42
-0.99999999999999989
10
-27.062035831757676
20
8.7106248887456363
10
-30.80326230213317
20
18.156725906751447
42
-0.99999998946328783
10
-28.441737046848957
20
19.092032524396146
0
LWPOLYLINE
5
120
100
AcDbEntity
8
INTERIOR_PROFILES
100
AcDbPolyline
90
4
70
1
43
0.0
10
-56.069579245243787
20
81.912742314070655
10
-52.32835277424131
20
72.466641294294178
42
0.99999999999999989
10
-49.966827515482791
20
73.401947913074267
10
-53.708053986548677
20
82.848048932825421
42
0.99999999999999989
0
LWPOLYLINE
5
121
100
AcDbEntity
8
INTERIOR_PROFILES
100
AcDbPolyline
90
4
70
1
43
0.0
10
-5.3098370590327946
20
87.872474568011327
10
-5.3099496738907064
20
77.711386101083662
42
0.99999999999999989
10
-2.7699496740466891
20
77.711357950384922
10
-2.7698370591889079
20
87.872446417312773
42
0.99999999999999989
0
LWPOLYLINE
5
122
100
AcDbEntity
8
INTERIOR_PROFILES
100
AcDbPolyline
90
16
70
1
43
0.0
10
110.89757470121441
20
12.349999999999692
10
135.16757915964226
20
12.349999999999639
10
135.16757915964217
20
87.349999999999696
10
110.89757470121432
20
87.349999999999724
42
-0.41421356237308815
10
107.89757470121441
20
90.34999999999971
10
107.89757470121432
20
114.29999999999993
10
32.897574701213784
20
114.29999999999994
10
32.897574701213955
20
90.349999999999426
42
-0.41421356237309465
10
29.897574701214005
20
87.349999999999412
10
5.62757502546404
20
87.34999999999944
10
5.6275750254640329
20
12.350000000000101
10
29.897574701214033
20
12.350000000000021
42
-0.41421356237310081
10
32.897574701214019
20
9.3499999999999499
10
32.897574701213976
20
6.3499999999996781
10
107.89757470121432
20
6.3499999999996781
10
107.8975747012143
20
9.3499999999996479
42
-0.41421356237310897
0
LWPOLYLINE
5
123
100
AcDbEntity
8
INTERIOR_PROFILES
100
AcDbPolyline
90
4
70
1
43
0.0
10
212.66821467508763
20
125.35205984594418
42
-1.0000000149011612
10
215.02973994030927
20
124.4167532533904
10
211.28851347047998
20
114.97065223171288
42
-0.99999999999999989
10
208.92698821519622
20
115.90595884935939
0
CIRCLE
5
124
100
AcDbEntity
8
INTERIOR_PROFILES
100
AcDbCircle
10
225.28749830792628
20
118.50751544061616
30
0
40
2.7499999999999925
210
0
220
-0
230
1
0
CIRCLE
5
125
100
AcDbEntity
8
INTERIOR_PROFILES
100
AcDbCircle
10
-110.89757470121434
20
9.3499999999996497
30
0
40
1.6000000000000014
210
0
220
0
230
-1
0
CIRCLE
5
126
100
AcDbEntity
8
INTERIOR_PROFILES
100
AcDbCircle
10
-110.8975747012144
20
90.34999999999971
30
0
40
1.6000000000000014
210
0
220
0
230
-1
0
CIRCLE
5
127
100
AcDbEntity
8
INTERIOR_PROFILES
100
AcDbCircle
10
36.382073237389477
20
0.44081876558205835
30
0
40
2.7500000000000058
210
0
220
0
230
-1
0
CIRCLE
5
128
100
AcDbEntity
8
INTERIOR_PROFILES
100
AcDbCircle
10
-29.897574701213998
20
9.3499999999999872
30
0
40
1.6000000000000059
210
0
220
0
230
-1
0
CIRCLE
5
129
100
AcDbEntity
8
INTERIOR_PROFILES
100
AcDbCircle
10
15.966606802260479
20
8.5314065174239317
30
0
40
3.4999999999999982
210
0
220
0
230
-1
0
CIRCLE
5
130
100
AcDbEntity
8
INTERIOR_PROFILES
100
AcDbCircle
10
83.171548905493609
20
118.50751544061737
30
0
40
2.7500000000000027
210
0
220
0
230
-1
0
CIRCLE
5
131
100
AcDbEntity
8
INTERIOR_PROFILES
100
AcDbCircle
10
58.077134739296326
20
114.79143311047389
30
0
40
3.4999999999999991
210
0
220
0
230
-1
0
CIRCLE
5
132
100
AcDbEntity
8
INTERIOR_PROFILES
100
AcDbCircle
10
-29.897574701213966
20
90.349999999999397
30
0
40
1.6000000000000059
210
0
220
0
230
-1
0
CIRCLE
5
133
100
AcDbEntity
8
INTERIOR_PROFILES
100
AcDbCircle
10
178.4980226398221
20
0.44081876558093036
30
0
40
2.7500000000000031
210
0
220
-0
230
1
0
CIRCLE
5
134
100
AcDbEntity
8
INTERIOR_PROFILES
100
AcDbCircle
10
-158.08255620469123
20
8.5314065174239673
30
0
40
3.5000000000000027
210
0
220
0
230
-1
0
CIRCLE
5
135
100
AcDbEntity
8
INTERIOR_PROFILES
100
AcDbCircle
10
-200.19308414172716
20
114.79143311047392
30
0
40
3.4999999999999925
210
0
220
0
230
-1
0
ENDSEC
0
SECTION
2
OBJECTS
0
DICTIONARY
5
C
100
AcDbDictionary
3
ACAD_GROUP
350
D
3
ACAD_MLINESTYLE
350
17
0
DICTIONARY
5
D
100
AcDbDictionary
0
DICTIONARY
5
1A
330
C
100
AcDbDictionary
0
DICTIONARY
5
17
100
AcDbDictionary
0
ENDSEC
0
EOF
