0
SECTION
2
HEADER
9
$INSUNITS
70
1
9
$ACADVER
1
AC1014
9
$HANDSEED
5
FFFF
0
ENDSEC
0
SECTION
2
TABLES
0
TABLE
2
VPORT
5
8
100
AcDbSymbolTable
0
ENDTAB
0
TABLE
2
LTYPE
5
5
100
AcDbSymbolTable
0
LTYPE
5
14
100
AcDbSymbolTableRecord
100
AcDbLinetypeTableRecord
2
BYBLOCK
70
0
0
LTYPE
5
15
100
AcDbSymbolTableRecord
100
AcDbLinetypeTableRecord
2
BYLAYER
70
0
0
LTYPE
5
16
100
AcDbSymbolTableRecord
100
AcDbLinetypeTableRecord
2
DASHED
70
0
3
Dashed __ __ __ __ __ __ __ __ __ __ __ __ __ _
72
65
73
2
40
0.75
49
0.5
74
0
49
-0.25
74
0
0
ENDTAB
0
TABLE
2
LAYER
5
2
100
AcDbSymbolTable
70
2
0
LAYER
5
50
100
AcDbSymbolTableRecord
100
AcDbLayerTableRecord
2
0
70
0
62
7
6
CONTINUOUS
0
ENDTAB
0
TABLE
2
STYLE
5
3
100
AcDbSymbolTable
70
1
0
STYLE
5
11
100
AcDbSymbolTableRecord
100
AcDbTextStyleTableRecord
2
STANDARD
70
0
0
ENDTAB
0
TABLE
2
VIEW
5
6
100
AcDbSymbolTable
70
0
0
ENDTAB
0
TABLE
2
UCS
5
7
100
AcDbSymbolTable
70
0
0
ENDTAB
0
TABLE
2
APPID
5
9
100
AcDbSymbolTable
70
2
0
APPID
5
12
100
AcDbSymbolTableRecord
100
AcDbRegAppTableRecord
2
ACAD
70
0
0
ENDTAB
0
TABLE
2
DIMSTYLE
5
A
100
AcDbSymbolTable
70
1
0
ENDTAB
0
TABLE
2
BLOCK_RECORD
5
1
100
AcDbSymbolTable
70
1
0
BLOCK_RECORD
5
1F
100
AcDbSymbolTableRecord
100
AcDbBlockTableRecord
2
*MODEL_SPACE
0
BLOCK_RECORD
5
1B
100
AcDbSymbolTableRecord
100
AcDbBlockTableRecord
2
*PAPER_SPACE
0
ENDTAB
0
ENDSEC
0
SECTION
2
BLOCKS
0
BLOCK
5
20
100
AcDbEntity
100
AcDbBlockBegin
2
*MODEL_SPACE
0
ENDBLK
5
21
100
AcDbEntity
100
AcDbBlockEnd
0
BLOCK
5
1C
100
AcDbEntity
100
AcDbBlockBegin
2
*PAPER_SPACE
0
ENDBLK
5
1D
100
AcDbEntity
100
AcDbBlockEnd
0
ENDSEC
0
SECTION
2
ENTITIES
0
LWPOLYLINE
5
100
100
AcDbEntity
8
0
100
AcDbPolyline
90
4
70
1
43
0.0
10
-1.3066929118841211
20
-7.9910815155915822
10
1.0673228361473748
20
-7.9910815155915822
10
1.0673228361473748
20
-6.3296641927569377
10
-1.3066929118841211
20
-6.3296641927569377
0
LINE
5
101
100
AcDbEntity
8
0
100
AcDbLine
10
-2.9090828352165552
20
-8.9986902662056778
30
1.3987061727561026e-15
11
-2.9090828352166396
21
-8.8310789189187293
31
6.6657091045408011e-16
0
SPLINE
5
102
100
AcDbEntity
8
0
100
AcDbSpline
70
0
71
3
72
8
73
4
74
0
42
0.000000001
43
0.0000000001
44
0.0000000001
40
2.854720834044417
40
2.854720834044417
40
2.854720834044417
40
2.854720834044417
40
3.1415926535897953
40
3.1415926535897953
40
3.1415926535897953
40
3.1415926535897953
10
-2.9496444110738937
20
-9.0463391732536547
30
1.3987061727561026e-15
10
-2.9497561645870509
20
-9.0424228115473362
30
1.3987061727561026e-15
10
-2.9497933265583716
20
-9.0381514038374213
30
-1.3987061727561026e-15
10
-2.9497933265583716
20
-9.0337065124596503
30
0
0
SPLINE
5
103
100
AcDbEntity
8
0
100
AcDbSpline
70
0
71
3
72
14
73
10
74
0
42
0.000000001
43
0.0000000001
44
0.0000000001
40
-1.1778663514893546
40
-1.1778663514893546
40
-1.1778663514893546
40
-1.1778663514893546
40
-1.1679414741911454
40
-1.1679414741911454
40
-1.1679414741911454
40
-0.12119390341504443
40
-0.12119390341504443
40
-0.12119390341504443
40
1.1158631076483236e-15
40
1.1158631076483236e-15
40
1.1158631076483236e-15
40
1.1158631076483236e-15
10
-2.9496444110739914
20
-9.0463391732538199
30
-1.3987061727561026e-15
10
-2.9494602638348355
20
-9.0462415202330266
30
-1.3987061727561026e-15
10
-2.949275987016875
20
-9.0461433663786774
30
0
10
-2.9490918572138791
20
-9.0460448522931269
30
0
10
-2.9296722293230086
20
-9.0356548619044119
30
1.3987061727561026e-15
10
-2.9125058602755609
20
-9.0205306714298725
30
1.3987061727561026e-15
10
-2.9095899844780844
20
-9.004327467604849
30
2.7974123455122052e-15
10
-2.9092523802842587
20
-9.0024514379161147
30
0
10
-2.9090828352165552
20
-9.0005680865408362
30
0
10
-2.9090828352165579
20
-8.9986902662056725
30
0
0
LINE
5
104
100
AcDbEntity
8
0
100
AcDbLine
10
-2.9497933265583716
20
-9.0337065124596503
30
7.2097955630554773e-32
11
-2.9497933265583667
21
-8.8310793727257835
31
3.2782175923971155e-17
0
SPLINE
5
105
100
AcDbEntity
8
0
100
AcDbSpline
70
0
71
3
72
11
73
7
74
0
42
0.000000001
43
0.0000000001
44
0.0000000001
40
-0.85818277730228409
40
-0.85818277730228409
40
-0.85818277730228409
40
-0.85818277730228409
40
-0.12119390341424796
40
-0.12119390341424796
40
-0.12119390341424796
40
1.4270642647928402e-14
40
1.4270642647928402e-14
40
1.4270642647928402e-14
40
1.4270642647928402e-14
10
-2.932533024788726
20
-6.0932461585471493
30
1.3987061727561026e-15
10
-2.9204407555992051
20
-6.1012020192004988
30
1.3987061727561026e-15
10
-2.9116429799457832
20
-6.1128409971045041
30
1.3987061727561026e-15
10
-2.9095899844764159
20
-6.1250340472112335
30
0
10
-2.9092523802825943
20
-6.1270391294985185
30
1.3987061727561026e-15
10
-2.9090828352148939
20
-6.1290590205592865
30
0
10
-2.909082835214893
20
-6.1310789189495027
30
1.3987061727561026e-15
0
SPLINE
5
106
100
AcDbEntity
8
0
100
AcDbSpline
70
0
71
3
72
11
73
7
74
0
42
0.000000001
43
0.0000000001
44
0.0000000001
40
2.0525240827651445
40
2.0525240827651445
40
2.0525240827651445
40
2.0525240827651445
40
2.2982314540105442
40
2.2982314540105442
40
2.2982314540105442
40
3.1415926535898002
40
3.1415926535898002
40
3.1415926535898002
40
3.1415926535898002
10
-2.9447212058388978
20
-9.6867694997566307
30
0
10
-2.9458421287893639
20
-9.6886564599911473
30
0
10
-2.9467290305189549
20
-9.6910121124166952
30
-1.3987061727561026e-15
10
-2.9474044735354057
20
-9.6937351992240934
30
-1.3987061727561026e-15
10
-2.9497228510009026
20
-9.7030818693903367
30
0
10
-2.9497933265582845
20
-9.7170233527226983
30
-1.3987061727561026e-15
10
-2.9497933265582841
20
-9.7310793727155271
30
-1.3987061727561026e-15
0
SPLINE
5
107
100
AcDbEntity
8
0
100
AcDbSpline
70
0
71
3
72
11
73
7
74
0
42
0.000000001
43
0.0000000001
44
0.0000000001
40
-1.0890547447978283
40
-1.0890547447978283
40
-1.0890547447978283
40
-1.0890547447978283
40
-0.1211939034143068
40
-0.1211939034143068
40
-0.1211939034143068
40
7.3905416971649815e-15
40
7.3905416971649815e-15
40
7.3905416971649815e-15
40
7.3905416971649815e-15
10
-2.9447212058390821
20
-9.6867694997566929
30
0
10
-2.9270963348287462
20
-9.6941871812758311
30
1.3987061727561026e-15
10
-2.912286109197904
20
-9.709021355318999
30
1.3987061727561026e-15
10
-2.9095899844764315
20
-9.7250340471701957
30
-1.3987061727561026e-15
10
-2.9092523802826094
20
-9.7270391294574843
30
1.3987061727561026e-15
10
-2.9090828352149072
20
-9.7290590205182532
30
1.3987061727561026e-15
10
-2.9090828352149058
20
-9.7310789189084694
30
-1.3987061727561026e-15
0
SPLINE
5
108
100
AcDbEntity
8
0
100
AcDbSpline
70
0
71
3
72
8
73
4
74
0
42
0.000000001
43
0.0000000001
44
0.0000000001
40
1.181445619326276e-14
40
1.181445619326276e-14
40
1.181445619326276e-14
40
1.181445619326276e-14
40
1.0890685708185526
40
1.0890685708185526
40
1.0890685708185526
40
1.0890685708185526
10
2.9497933295616421
20
-7.0310793727463565
30
0
10
2.9497933295616416
20
-7.0129282298995879
30
1.3987061727561026e-15
10
2.9496847306677334
20
-6.9951250859623544
30
1.3987061727561026e-15
10
2.944721208842366
20
-6.9867694997876058
30
2.7974123455122052e-15
0
SPLINE
5
109
100
AcDbEntity
8
0
100
AcDbSpline
70
0
71
3
72
11
73
7
74
0
42
0.000000001
43
0.0000000001
44
0.0000000001
40
-3.1415926535897789
40
-3.1415926535897789
40
-3.1415926535897789
40
-3.1415926535897789
40
-2.0658635864537294
40
-2.0658635864537294
40
-2.0658635864537294
40
-2.0525379087953866
40
-2.0525379087953866
40
-2.0525379087953866
40
-2.0525379087953866
10
2.9090828382183851
20
-7.031078918939297
30
1.3987061727561026e-15
10
2.9090828382183829
20
-7.0131501011539008
30
-1.3987061727561026e-15
10
2.9243111902545791
20
-6.9955998987935253
30
-1.3987061727561026e-15
10
2.9439888029401451
20
-6.9870821277735047
30
1.3987061727561026e-15
10
2.9442325609009035
20
-6.9869766132211453
30
1.3987061727561026e-15
10
2.9444768050438901
20
-6.986872360656097
30
1.3987061727561026e-15
10
2.944721208842366
20
-6.9867694997876058
30
1.3987061727561026e-15
0
LINE
5
110
100
AcDbEntity
8
0
100
AcDbLine
10
2.9090828382205727
20
-7.9310789189290398
30
0
11
2.9090828382204568
21
-8.1619955543303941
31
-6.0100655860613781e-16
0
LINE
5
111
100
AcDbEntity
8
0
100
AcDbLine
10
2.9497933295617456
20
-7.9310793727361002
30
1.3987061727561026e-15
11
2.9497933295617331
21
-8.1970118005844199
31
6.8842569440339427e-16
0
SPLINE
5
112
100
AcDbEntity
8
0
100
AcDbSpline
70
0
71
3
72
8
73
4
74
0
42
0.000000001
43
0.0000000001
44
0.0000000001
40
1.1898058436973211e-15
40
1.1898058436973211e-15
40
1.1898058436973211e-15
40
1.1898058436973211e-15
40
0.28687181954223656
40
0.28687181954223656
40
0.28687181954223656
40
0.28687181954223656
10
2.9497933295617336
20
-8.1970118005844412
30
1.3987061727561026e-15
10
2.9497933295617336
20
-8.2014566919621625
30
1.3987061727561026e-15
10
2.9497557234578848
20
-8.2057436641369339
30
1.3987061727561026e-15
10
2.9496444140772655
20
-8.2096444613783159
30
1.3987061727561026e-15
0
SPLINE
5
113
100
AcDbEntity
8
0
100
AcDbSpline
70
0
71
3
72
11
73
7
74
0
42
0.000000001
43
0.0000000001
44
0.0000000001
40
-3.1415926535897989
40
-3.1415926535897989
40
-3.1415926535897989
40
-3.1415926535897989
40
-2.0658635864537569
40
-2.0658635864537569
40
-2.0658635864537569
40
-1.963726302108538
40
-1.963726302108538
40
-1.963726302108538
40
-1.963726302108538
10
2.9090828382203835
20
-8.1619955543303924
30
0
10
2.9090828382203715
20
-8.1786632732541609
30
0
10
2.9243111902565579
20
-8.1950316259899143
30
0
10
2.9439888029419308
20
-8.2065013171450172
30
0
10
2.9458571339032122
20
-8.2075903303014428
30
0
10
2.947751857648532
20
-8.208640841377683
30
0
10
2.9496444140773002
20
-8.2096444613783763
30
1.3987061727561026e-15
0
LINE
5
114
100
AcDbEntity
8
0
100
AcDbLine
10
2.9497933295616594
20
-10.444476832328855
30
1.3987061727561026e-15
11
2.9497933295616465
21
-10.707095936210299
31
2.1854783949314103e-16
0
SPLINE
5
115
100
AcDbEntity
8
0
100
AcDbSpline
70
0
71
3
72
8
73
4
74
0
42
0.000000001
43
0.0000000001
44
0.0000000001
40
1.3713016503630213e-15
40
1.3713016503630213e-15
40
1.3713016503630213e-15
40
1.3713016503630213e-15
40
0.28687181956041391
40
0.28687181956041391
40
0.28687181956041391
40
0.28687181956041391
10
2.9497933295616425
20
-10.707095936210321
30
1.3987061727561026e-15
10
2.9497933295616421
20
-10.711540827588326
30
0
10
2.9497557234577818
20
-10.715827799763357
30
2.7974123455122052e-15
10
2.9496444140771287
20
-10.719728597004943
30
1.3987061727561026e-15
0
SPLINE
5
116
100
AcDbEntity
8
0
100
AcDbSpline
70
0
71
3
72
11
73
7
74
0
42
0.000000001
43
0.0000000001
44
0.0000000001
40
-3.1415926535897905
40
-3.1415926535897905
40
-3.1415926535897905
40
-3.1415926535897905
40
-2.0658635864537445
40
-2.0658635864537445
40
-2.0658635864537445
40
-1.9637263020833167
40
-1.9637263020833167
40
-1.9637263020833167
40
-1.9637263020833167
10
2.9090828382186178
20
-10.672079689956542
30
0
10
2.9090828382186062
20
-10.688747408880308
30
0
10
2.9243111902547954
20
-10.705115761615962
30
-1.3987061727561026e-15
10
2.9439888029403383
20
-10.716585452770939
30
0
10
2.9458571339020971
20
-10.717674465927621
30
1.3987061727561026e-15
10
2.9477518576479085
20
-10.718724977004095
30
1.3987061727561026e-15
10
2.9496444140771643
20
-10.719728597005002
30
1.3987061727561026e-15
0
LINE
5
117
100
AcDbEntity
8
0
100
AcDbLine
10
2.9090828382188048
20
-10.444476378522172
30
-1.3987061727561026e-15
11
2.9090828382186178
21
-10.672079689956542
31
0
0
LINE
5
118
100
AcDbEntity
8
0
100
AcDbLine
10
2.9090828382183851
20
-7.031078918939297
30
1.3987061727561026e-15
11
2.9090828382210443
21
-7.325300842455011
31
7.4306265427667954e-16
0
LINE
5
119
100
AcDbEntity
8
0
100
AcDbLine
10
2.9497933295616421
20
-7.0310793727463565
30
0
11
2.9497933295617624
21
-7.3603170887091238
31
4.3709567898628207e-17
0
SPLINE
5
120
100
AcDbEntity
8
0
100
AcDbSpline
70
0
71
3
72
8
73
4
74
0
42
0.000000001
43
0.0000000001
44
0.0000000001
40
-9.0882344671117307e-15
40
-9.0882344671117307e-15
40
-9.0882344671117307e-15
40
-9.0882344671117307e-15
40
0.28687181953615792
40
0.28687181953615792
40
0.28687181953615792
40
0.28687181953615792
10
2.9497933295617598
20
-7.3603170887091469
30
1.3987061727561026e-15
10
2.9497933295617598
20
-7.3647619800867767
30
1.3987061727561026e-15
10
2.9497557234579164
20
-7.3690489522614602
30
1.3987061727561026e-15
10
2.9496444140773082
20
-7.3729497495027747
30
1.3987061727561026e-15
0
SPLINE
5
121
100
AcDbEntity
8
0
100
AcDbSpline
70
0
71
3
72
11
73
7
74
0
42
0.000000001
43
0.0000000001
44
0.0000000001
40
-3.1415926535897927
40
-3.1415926535897927
40
-3.1415926535897927
40
-3.1415926535897927
40
-2.0658635864537436
40
-2.0658635864537436
40
-2.0658635864537436
40
-1.9637263021169615
40
-1.9637263021169615
40
-1.9637263021169615
40
-1.9637263021169615
10
2.9090828382209715
20
-7.325300842455011
30
0
10
2.9090828382209599
20
-7.3419685613787777
30
0
10
2.9243111902571464
20
-7.358336914114564
30
-1.3987061727561026e-15
10
2.9439888029424619
20
-7.3698066052697131
30
1.3987061727561026e-15
10
2.9458571339035844
20
-7.3708956184260526
30
0
10
2.9477518576487389
20
-7.3719461295022128
30
1.3987061727561026e-15
10
2.9496444140773437
20
-7.3729497495028333
30
1.3987061727561026e-15
0
SPLINE
5
122
100
AcDbEntity
8
0
100
AcDbSpline
70
0
71
3
72
8
73
4
74
0
42
0.000000001
43
0.0000000001
44
0.0000000001
40
1.1389659930786754e-14
40
1.1389659930786754e-14
40
1.1389659930786754e-14
40
1.1389659930786754e-14
40
1.0890685708187273
40
1.0890685708187273
40
1.0890685708187273
40
1.0890685708187273
10
2.9497933295616399
20
-7.9310793727360993
30
2.7974123455122052e-15
10
2.9497933295616399
20
-7.9129282298893253
30
1.3987061727561026e-15
10
2.9496847306677303
20
-7.8951250859520918
30
1.3987061727561026e-15
10
2.9447212088423589
20
-7.8867694997773441
30
1.3987061727561026e-15
0
SPLINE
5
123
100
AcDbEntity
8
0
100
AcDbSpline
70
0
71
3
72
11
73
7
74
0
42
0.000000001
43
0.0000000001
44
0.0000000001
40
-3.1415926535897905
40
-3.1415926535897905
40
-3.1415926535897905
40
-3.1415926535897905
40
-2.0658635864537462
40
-2.0658635864537462
40
-2.0658635864537462
40
-2.052537908795276
40
-2.052537908795276
40
-2.052537908795276
40
-2.052537908795276
10
2.9090828382183695
20
-7.931078918929038
30
0
10
2.9090828382183669
20
-7.9131501011436427
30
0
10
2.9243111902545644
20
-7.8955998987832663
30
0
10
2.9439888029401313
20
-7.8870821277632457
30
1.3987061727561026e-15
10
2.9442325609008919
20
-7.8869766132108845
30
1.3987061727561026e-15
10
2.9444768050438808
20
-7.8868723606458353
30
0
10
2.9447212088423589
20
-7.8867694997773441
30
1.3987061727561026e-15
0
SPLINE
5
124
100
AcDbEntity
8
0
100
AcDbSpline
70
0
71
3
72
11
73
7
74
0
42
0.000000001
43
0.0000000001
44
0.0000000001
40
2.0525240827651916
40
2.0525240827651916
40
2.0525240827651916
40
2.0525240827651916
40
2.2982314540105788
40
2.2982314540105788
40
2.2982314540105788
40
3.141592653589806
40
3.141592653589806
40
3.141592653589806
40
3.141592653589806
10
-2.9447212058388925
20
-8.7867694997668906
30
0
10
-2.9458421287893581
20
-8.7886564600014108
30
0
10
-2.94672903051895
20
-8.7910121124269551
30
-1.3987061727561026e-15
10
-2.9474044735354008
20
-8.7937351992343515
30
-1.3987061727561026e-15
10
-2.9497228510008959
20
-8.8030818694005983
30
0
10
-2.9497933265582787
20
-8.8170233527329582
30
-1.3987061727561026e-15
10
-2.9497933265582792
20
-8.8310793727257835
30
0
0
SPLINE
5
125
100
AcDbEntity
8
0
100
AcDbSpline
70
0
71
3
72
11
73
7
74
0
42
0.000000001
43
0.0000000001
44
0.0000000001
40
-1.0890547447978052
40
-1.0890547447978052
40
-1.0890547447978052
40
-1.0890547447978052
40
-0.12119390341429903
40
-0.12119390341429903
40
-0.12119390341429903
40
3.7733986000246405e-15
40
3.7733986000246405e-15
40
3.7733986000246405e-15
40
3.7733986000246405e-15
10
-2.9447212058390773
20
-8.786769499766951
30
-1.3987061727561026e-15
10
-2.9270963348287427
20
-8.7941871812860875
30
1.3987061727561026e-15
10
-2.9122861091978987
20
-8.8090213553292571
30
1.3987061727561026e-15
10
-2.9095899844764279
20
-8.8250340471804556
30
2.7974123455122052e-15
10
-2.9092523802826049
20
-8.8270391294677424
30
1.3987061727561026e-15
10
-2.9090828352149041
20
-8.8290590205285113
30
1.3987061727561026e-15
10
-2.909082835214905
20
-8.8310789189187258
30
0
0
LINE
5
126
100
AcDbEntity
8
0
100
AcDbLine
10
-2.9090828352183298
20
-6.4886061305795293
30
1.3987061727561026e-15
11
-2.9090828352148934
21
-6.1310789189495027
31
1.398706172756103e-15
0
SPLINE
5
127
100
AcDbEntity
8
0
100
AcDbSpline
70
0
71
3
72
8
73
4
74
0
42
0.000000001
43
0.0000000001
44
0.0000000001
40
2.8547208340629973
40
2.8547208340629973
40
2.8547208340629973
40
2.8547208340629973
40
3.1415926325163919
40
3.1415926325163919
40
3.1415926325163919
40
3.1415926325163919
10
-2.9496444110739972
20
-6.5362550376270185
30
0
10
-2.9497561645789099
20
-6.5323386762086226
30
0
10
-2.9497933265520717
20
-6.5280672688386243
30
0
10
-2.9497933265584271
20
-6.5236223778133304
30
0
0
SPLINE
5
128
100
AcDbEntity
8
0
100
AcDbSpline
70
0
71
3
72
14
73
10
74
0
42
0.000000001
43
0.0000000001
44
0.0000000001
40
-1.1778663514635141
40
-1.1778663514635141
40
-1.1778663514635141
40
-1.1778663514635141
40
-1.1679414568302571
40
-1.1679414568302571
40
-1.1679414568302571
40
-0.12119388817448185
40
-0.12119388817448185
40
-0.12119388817448185
40
2.6048009289983333e-14
40
2.6048009289983333e-14
40
2.6048009289983333e-14
40
2.6048009289983333e-14
10
-2.9496444110740927
20
-6.5362550376271837
30
0
10
-2.9494602635134402
20
-6.5361573844358993
30
0
10
-2.9492759863735585
20
-6.5360592304093181
30
0
10
-2.9490918562491699
20
-6.5359607161502771
30
0
10
-2.929672228420146
20
-6.5255707256326279
30
1.3987061727561026e-15
10
-2.9125058597795292
20
-6.5104465350787368
30
1.3987061727561026e-15
10
-2.9095899843524911
20
-6.4942433312709564
30
1.3987061727561026e-15
10
-2.9092523802433274
20
-6.4923673018163379
30
0
10
-2.9090828352183284
20
-6.4904839506785494
30
0
10
-2.9090828352183293
20
-6.4886061305795266
30
0
0
LINE
5
129
100
AcDbEntity
8
0
100
AcDbLine
10
-2.9497933265584266
20
-6.5236223778133287
30
0
11
-2.9497933265584342
21
-6.1517580604447772
31
2.1854783949314103e-16
0
SPLINE
5
130
100
AcDbEntity
8
0
100
AcDbSpline
70
0
71
3
72
11
73
7
74
0
42
0.000000001
43
0.0000000001
44
0.0000000001
40
-1.2166941113514912e-15
40
-1.2166941113514912e-15
40
-1.2166941113514912e-15
40
-1.2166941113514912e-15
40
1.2275020440044264
40
1.2275020440044264
40
1.2275020440044264
40
1.6818239647910151
40
1.6818239647910151
40
1.6818239647910151
40
1.6818239647910151
10
-2.9497933265584355
20
-6.1517580604447542
30
0
10
-2.9497933265584355
20
-6.1327387184255917
30
0
10
-2.9495944147665782
20
-6.110605454048426
30
0
10
-2.9425829288377989
20
-6.100006094387477
30
0
10
-2.9399878441531841
20
-6.0960830691967738
30
0
10
-2.9364825384165996
20
-6.0937166787224006
30
0
10
-2.9325330247887265
20
-6.0932461585471476
30
1.3987061727561026e-15
0
LINE
5
131
100
AcDbEntity
8
0
100
AcDbLine
10
-2.909082835215965
20
-9.8353849780810592
30
1.3987061727561026e-15
11
-2.9090828352149063
21
-9.7310789189084677
31
-1.3987061727561022e-15
0
SPLINE
5
132
100
AcDbEntity
8
0
100
AcDbSpline
70
0
71
3
72
8
73
4
74
0
42
0.000000001
43
0.0000000001
44
0.0000000001
40
2.8547208340382815
40
2.8547208340382815
40
2.8547208340382815
40
2.8547208340382815
40
3.1415926325163803
40
3.1415926325163803
40
3.1415926325163803
40
3.1415926325163803
10
-2.94964441107386
20
-9.8830338851291959
30
-1.3987061727561026e-15
10
-2.9497561645788184
20
-9.8791175237105211
30
1.3987061727561026e-15
10
-2.9497933265519971
20
-9.8748461163401746
30
0
10
-2.9497933265583516
20
-9.8704012253144988
30
-1.3987061727561026e-15
0
SPLINE
5
133
100
AcDbEntity
8
0
100
AcDbSpline
70
0
71
3
72
14
73
10
74
0
42
0.000000001
43
0.0000000001
44
0.0000000001
40
-1.1778663514979077
40
-1.1778663514979077
40
-1.1778663514979077
40
-1.1778663514979077
40
-1.1679414568303303
40
-1.1679414568303303
40
-1.1679414568303303
40
-0.12119388817456933
40
-0.12119388817456933
40
-0.12119388817456933
40
-4.6315041034319312e-15
40
-4.6315041034319312e-15
40
-4.6315041034319312e-15
40
-4.6315041034319312e-15
10
-2.9496444110739541
20
-9.8830338851293611
30
-1.3987061727561026e-15
10
-2.949460263512663
20
-9.8829362319377463
30
0
10
-2.9492759863721418
20
-9.8828380779108294
30
0
10
-2.9490918562471138
20
-9.8827395636514499
30
1.3987061727561026e-15
10
-2.9296722284178265
20
-9.8723495731339739
30
0
10
-2.9125058597771769
20
-9.8572253825802356
30
1.3987061727561026e-15
10
-2.9095899843501285
20
-9.8410221787724819
30
0
10
-2.9092523802409644
20
-9.8391461493178642
30
1.3987061727561026e-15
10
-2.9090828352159646
20
-9.8372627981800775
30
0
10
-2.9090828352159663
20
-9.8353849780810521
30
1.3987061727561026e-15
0
LINE
5
134
100
AcDbEntity
8
0
100
AcDbLine
10
-2.9497933265583511
20
-9.870401225314497
30
-1.3987061727561026e-15
11
-2.9497933265582841
21
-9.7310793727155254
31
-1.3987061727561022e-15
0
LINE
5
135
100
AcDbEntity
8
0
100
AcDbLine
10
-2.9090828352171445
20
-8.1619955543302947
30
0
11
-2.9090828352172609
21
-7.9310789189289865
31
-8.0862700612462183e-16
0
SPLINE
5
136
100
AcDbEntity
8
0
100
AcDbSpline
70
0
71
3
72
8
73
4
74
0
42
0.000000001
43
0.0000000001
44
0.0000000001
40
2.8547208340506205
40
2.8547208340506205
40
2.8547208340506205
40
2.8547208340506205
40
3.1415926535897989
40
3.1415926535897989
40
3.1415926535897989
40
3.1415926535897989
10
-2.9496444110739275
20
-8.2096444613781081
30
-1.3987061727561026e-15
10
-2.9497561645870731
20
-8.2057280996718607
30
-1.3987061727561026e-15
10
-2.9497933265583898
20
-8.2014566919620311
30
-1.3987061727561026e-15
10
-2.9497933265583907
20
-8.1970118005843577
30
1.3987061727561026e-15
0
SPLINE
5
137
100
AcDbEntity
8
0
100
AcDbSpline
70
0
71
3
72
14
73
10
74
0
42
0.000000001
43
0.0000000001
44
0.0000000001
40
-1.177866351480761
40
-1.177866351480761
40
-1.177866351480761
40
-1.177866351480761
40
-1.1679414741911378
40
-1.1679414741911378
40
-1.1679414741911378
40
-0.12119390341503422
40
-0.12119390341503422
40
-0.12119390341503422
40
7.2665543335411735e-15
40
7.2665543335411735e-15
40
7.2665543335411735e-15
40
7.2665543335411735e-15
10
-2.9496444110740261
20
-8.2096444613782751
30
0
10
-2.9494602638350296
20
-8.2095468083575671
30
0
10
-2.9492759870172316
20
-8.2094486545032996
30
-1.3987061727561026e-15
10
-2.9490918572143956
20
-8.2093501404178308
30
0
10
-2.9296722293235913
20
-8.1989601500290767
30
1.3987061727561026e-15
10
-2.9125058602761502
20
-8.1838359595545001
30
0
10
-2.909589984478675
20
-8.1676327557294677
30
1.3987061727561026e-15
10
-2.9092523802848507
20
-8.1657567260407351
30
1.3987061727561026e-15
10
-2.9090828352171463
20
-8.1638733746654548
30
1.3987061727561026e-15
10
-2.9090828352171485
20
-8.1619955543302893
30
0
0
LINE
5
138
100
AcDbEntity
8
0
100
AcDbLine
10
-2.9497933265583902
20
-8.197011800584356
30
1.3987061727561026e-15
11
-2.9497933265583915
21
-7.9310793727360416
31
-6.556435184794231e-17
0
SPLINE
5
139
100
AcDbEntity
8
0
100
AcDbSpline
70
0
71
3
72
11
73
7
74
0
42
0.000000001
43
0.0000000001
44
0.0000000001
40
2.0525240827652542
40
2.0525240827652542
40
2.0525240827652542
40
2.0525240827652542
40
2.2982314540106272
40
2.2982314540106272
40
2.2982314540106272
40
3.1415926535898269
40
3.1415926535898269
40
3.1415926535898269
40
3.1415926535898269
10
-2.9447212058388814
20
-6.9867694997874104
30
1.3987061727561026e-15
10
-2.945842128789347
20
-6.9886564600219279
30
0
10
-2.9467290305189375
20
-6.9910121124474713
30
-1.3987061727561026e-15
10
-2.9474044735353884
20
-6.9937351992548704
30
0
10
-2.9497228510008831
20
-7.0030818694211154
30
0
10
-2.9497933265582663
20
-7.0170233527534744
30
0
10
-2.9497933265582663
20
-7.0310793727463006
30
0
0
SPLINE
5
140
100
AcDbEntity
8
0
100
AcDbSpline
70
0
71
3
72
11
73
7
74
0
42
0.000000001
43
0.0000000001
44
0.0000000001
40
-1.0890547447978109
40
-1.0890547447978109
40
-1.0890547447978109
40
-1.0890547447978109
40
-0.12119390341429281
40
-0.12119390341429281
40
-0.12119390341429281
40
1.6922406455754105e-15
40
1.6922406455754105e-15
40
1.6922406455754105e-15
40
1.6922406455754105e-15
10
-2.944721205839067
20
-6.9867694997874699
30
0
10
-2.9270963348287347
20
-6.9941871813066054
30
1.3987061727561026e-15
10
-2.9122861091978907
20
-7.0090213553497742
30
1.3987061727561026e-15
10
-2.909589984476419
20
-7.0250340472009718
30
1.3987061727561026e-15
10
-2.9092523802825982
20
-7.0270391294882595
30
1.3987061727561026e-15
10
-2.9090828352148947
20
-7.0290590205490293
30
0
10
-2.9090828352148956
20
-7.0310789189392429
30
0
0
SPLINE
5
141
100
AcDbEntity
8
0
100
AcDbSpline
70
0
71
3
72
8
73
4
74
0
42
0.000000001
43
0.0000000001
44
0.0000000001
40
6.2400061250557813e-15
40
6.2400061250557813e-15
40
6.2400061250557813e-15
40
6.2400061250557813e-15
40
1.0890685708190126
40
1.0890685708190126
40
1.0890685708190126
40
1.0890685708190126
10
2.9497933295616359
20
-9.7310793727155822
30
1.3987061727561026e-15
10
2.9497933295616354
20
-9.7129282298688047
30
1.3987061727561026e-15
10
2.9496847306677227
20
-9.6951250859315614
30
1.3987061727561026e-15
10
2.9447212088423456
20
-9.686769499756819
30
0
0
SPLINE
5
142
100
AcDbEntity
8
0
100
AcDbSpline
70
0
71
3
72
11
73
7
74
0
42
0.000000001
43
0.0000000001
44
0.0000000001
40
-3.1415926535897927
40
-3.1415926535897927
40
-3.1415926535897927
40
-3.1415926535897927
40
-2.065863586453756
40
-2.065863586453756
40
-2.065863586453756
40
-2.052537908794982
40
-2.052537908794982
40
-2.052537908794982
40
-2.052537908794982
10
2.9090828382183367
20
-9.7310789189085227
30
-1.3987061727561026e-15
10
2.9090828382183345
20
-9.7131501011231283
30
1.3987061727561026e-15
10
2.924311190254532
20
-9.695599898762751
30
1.3987061727561026e-15
10
2.943988802940102
20
-9.6870821277427304
30
1.3987061727561026e-15
10
2.9442325609008684
20
-9.6869766131903656
30
1.3987061727561026e-15
10
2.9444768050438639
20
-9.6868723606253138
30
0
10
2.9447212088423469
20
-9.686769499756819
30
0
0
SPLINE
5
143
100
AcDbEntity
8
0
100
AcDbSpline
70
0
71
3
72
8
73
4
74
0
42
0.000000001
43
0.0000000001
44
0.0000000001
40
-3.1415926535898087
40
-3.1415926535898087
40
-3.1415926535898087
40
-3.1415926535898087
40
-2.2834098762889337
40
-2.2834098762889337
40
-2.2834098762889337
40
-2.2834098762889337
10
2.9090828382184015
20
-6.1310789189495587
30
0
10
2.9090828382183993
20
-6.1167758726613739
30
0
10
2.9184720567213853
20
-6.1024972862501601
30
0
10
2.9325330277921613
20
-6.0932461585472533
30
0
0
LINE
5
144
100
AcDbEntity
8
0
100
AcDbLine
10
2.949793329561714
20
-8.8310793727258403
30
0
11
2.9497933295617043
21
-9.0337065124597125
31
1.5298348764519872e-15
0
SPLINE
5
145
100
AcDbEntity
8
0
100
AcDbSpline
70
0
71
3
72
8
73
4
74
0
42
0.000000001
43
0.0000000001
44
0.0000000001
40
-1.0486424385129104e-15
40
-1.0486424385129104e-15
40
-1.0486424385129104e-15
40
-1.0486424385129104e-15
40
0.28687181954830437
40
0.28687181954830437
40
0.28687181954830437
40
0.28687181954830437
10
2.9497933295617051
20
-9.0337065124597355
30
2.7974123455122052e-15
10
2.9497933295617051
20
-9.038151403837551
30
1.3987061727561026e-15
10
2.9497557234578524
20
-9.0424383760124076
30
1.3987061727561026e-15
10
2.949644414077222
20
-9.0463391732538589
30
0
0
SPLINE
5
146
100
AcDbEntity
8
0
100
AcDbSpline
70
0
71
3
72
11
73
7
74
0
42
0.000000001
43
0.0000000001
44
0.0000000001
40
-3.1415926535897918
40
-3.1415926535897918
40
-3.1415926535897918
40
-3.1415926535897918
40
-2.0658635864537542
40
-2.0658635864537542
40
-2.0658635864537542
40
-1.9637263021001121
40
-1.9637263021001121
40
-1.9637263021001121
40
-1.9637263021001121
10
2.9090828382197955
20
-8.9986902662057755
30
-1.3987061727561026e-15
10
2.909082838219784
20
-9.0153579851295422
30
1.3987061727561026e-15
10
2.9243111902559726
20
-9.0317263378652619
30
-1.3987061727561026e-15
10
2.943988802941401
20
-9.0431960290203239
30
0
10
2.9458571339028428
20
-9.0442850421768366
30
0
10
2.947751857648325
20
-9.045335553253155
30
1.3987061727561026e-15
10
2.9496444140772571
20
-9.0463391732539176
30
1.3987061727561026e-15
0
LINE
5
147
100
AcDbEntity
8
0
100
AcDbLine
10
2.9090828382199501
20
-8.8310789189187808
30
-1.3987061727561026e-15
11
2.9090828382197955
21
-8.9986902662057755
31
-1.3987061727561026e-15
0
LINE
5
148
100
AcDbEntity
8
0
100
AcDbLine
10
2.9497933295616359
20
-9.7310793727155822
30
1.3987061727561026e-15
11
2.9497933295616758
21
-9.8704012243350085
31
1.5462259644139728e-15
0
SPLINE
5
149
100
AcDbEntity
8
0
100
AcDbSpline
70
0
71
3
72
8
73
4
74
0
42
0.000000001
43
0.0000000001
44
0.0000000001
40
-3.1055949140574358e-15
40
-3.1055949140574358e-15
40
-3.1055949140574358e-15
40
-3.1055949140574358e-15
40
0.28687181955433794
40
0.28687181955433794
40
0.28687181955433794
40
0.28687181955433794
10
2.9497933295616781
20
-9.8704012243350299
30
2.7974123455122052e-15
10
2.9497933295616776
20
-9.8748461157129377
30
0
10
2.9497557234578209
20
-9.8791330878878814
30
0
10
2.9496444140771794
20
-9.8830338851294002
30
1.3987061727561026e-15
0
SPLINE
5
150
100
AcDbEntity
8
0
100
AcDbSpline
70
0
71
3
72
11
73
7
74
0
42
0.000000001
43
0.0000000001
44
0.0000000001
40
-3.1415926535897989
40
-3.1415926535897989
40
-3.1415926535897989
40
-3.1415926535897989
40
-2.0658635864537693
40
-2.0658635864537693
40
-2.0658635864537693
40
-1.9637263020916902
40
-1.9637263020916902
40
-1.9637263020916902
40
-1.9637263020916902
10
2.9090828382192075
20
-9.8353849780811569
30
1.3987061727561026e-15
10
2.9090828382191951
20
-9.8520526970049236
30
-1.3987061727561026e-15
10
2.9243111902553842
20
-9.8684210497406095
30
-1.3987061727561026e-15
10
2.9439888029408703
20
-9.8798907408956289
30
1.3987061727561026e-15
10
2.9458571339024715
20
-9.8809797540522251
30
0
10
2.9477518576481194
20
-9.8820302651286234
30
1.3987061727561026e-15
10
2.9496444140772144
20
-9.8830338851294606
30
1.3987061727561026e-15
0
LINE
5
151
100
AcDbEntity
8
0
100
AcDbLine
10
2.9090828382183367
20
-9.7310789189085227
30
-1.3987061727561026e-15
11
2.9090828382192075
21
-9.8353849780811569
31
1.3987061727561026e-15
0
LINE
5
152
100
AcDbEntity
8
0
100
AcDbLine
10
2.9497933295618077
20
-6.1517580604448323
30
0
11
2.9497933295617895
21
-6.5236223768338331
31
6.5564351847942307e-16
0
SPLINE
5
153
100
AcDbEntity
8
0
100
AcDbSpline
70
0
71
3
72
8
73
4
74
0
42
0.000000001
43
0.0000000001
44
0.0000000001
40
4.4365641629389104e-16
40
4.4365641629389104e-16
40
4.4365641629389104e-16
40
4.4365641629389104e-16
40
0.28687181953016599
40
0.28687181953016599
40
0.28687181953016599
40
0.28687181953016599
10
2.9497933295617886
20
-6.5236223768338526
30
1.3987061727561026e-15
10
2.9497933295617886
20
-6.5280672682113883
30
0
10
2.9497557234579488
20
-6.5323542403859873
30
1.3987061727561026e-15
10
2.9496444140773517
20
-6.5362550376272344
30
0
0
SPLINE
5
154
100
AcDbEntity
8
0
100
AcDbSpline
70
0
71
3
72
11
73
7
74
0
42
0.000000001
43
0.0000000001
44
0.0000000001
40
-3.1415926535898016
40
-3.1415926535898016
40
-3.1415926535898016
40
-3.1415926535898016
40
-2.065863586453764
40
-2.065863586453764
40
-2.065863586453764
40
-1.9637263021253606
40
-1.9637263021253606
40
-1.9637263021253606
40
-1.9637263021253606
10
2.9090828382215554
20
-6.4886061305796296
30
0
10
2.9090828382215448
20
-6.5052738495033964
30
0
10
2.924311190257729
20
-6.5216422022392191
30
0
10
2.9439888029429886
20
-6.5331118933944081
30
1.3987061727561026e-15
10
2.9458571339039517
20
-6.5342009065506623
30
0
10
2.947751857648945
20
-6.5352514176267444
30
1.3987061727561026e-15
10
2.9496444140773868
20
-6.5362550376272948
30
1.3987061727561026e-15
0
LINE
5
155
100
AcDbEntity
8
0
100
AcDbLine
10
2.9090828382184015
20
-6.1310789189495587
30
0
11
2.9090828382215554
21
-6.4886061305796296
31
0
0
SPLINE
5
156
100
AcDbEntity
8
0
100
AcDbSpline
70
0
71
3
72
11
73
7
74
0
42
0.000000001
43
0.0000000001
44
0.0000000001
40
1.4597686888032571
40
1.4597686888032571
40
1.4597686888032571
40
1.4597686888032571
40
2.2982314540101902
40
2.2982314540101902
40
2.2982314540101902
40
3.1415926535898087
40
3.1415926535898087
40
3.1415926535898087
40
3.1415926535898087
10
2.9325330277921609
20
-6.0932461585472533
30
0
10
2.9397731000073324
20
-6.0941086951451098
30
0
10
2.9450995647396558
20
-6.1016855151086773
30
0
10
2.9474044765393348
20
-6.1128559400457103
30
1.3987061727561026e-15
10
2.9497228540045808
20
-6.1240916244024106
30
0
10
2.9497933295618011
20
-6.1386907297802198
30
1.3987061727561026e-15
10
2.9497933295618002
20
-6.1517580604448323
30
1.3987061727561026e-15
0
SPLINE
5
157
100
AcDbEntity
8
0
100
AcDbSpline
70
0
71
3
72
8
73
4
74
0
42
0.000000001
43
0.0000000001
44
0.0000000001
40
-8.2355151317068404e-15
40
-8.2355151317068404e-15
40
-8.2355151317068404e-15
40
-8.2355151317068404e-15
40
1.0890685708188603
40
1.0890685708188603
40
1.0890685708188603
40
1.0890685708188603
10
2.9497933295616381
20
-8.8310793727258403
30
0
10
2.9497933295616381
20
-8.8129282298790645
30
0
10
2.9496847306677272
20
-8.7951250859418266
30
1.3987061727561026e-15
10
2.9447212088423527
20
-8.7867694997670807
30
1.3987061727561026e-15
0
SPLINE
5
158
100
AcDbEntity
8
0
100
AcDbSpline
70
0
71
3
72
11
73
7
74
0
42
0.000000001
43
0.0000000001
44
0.0000000001
40
-3.1415926535898175
40
-3.1415926535898175
40
-3.1415926535898175
40
-3.1415926535898175
40
-2.0658635864537751
40
-2.0658635864537751
40
-2.0658635864537751
40
-2.0525379087951312
40
-2.0525379087951312
40
-2.0525379087951312
40
-2.0525379087951312
10
2.9090828382183531
20
-8.8310789189187826
30
0
10
2.9090828382183505
20
-8.8131501011333846
30
0
10
2.9243111902545471
20
-8.7955998987730091
30
0
10
2.9439888029401158
20
-8.7870821277529867
30
0
10
2.9442325609008795
20
-8.7869766132006255
30
1.3987061727561026e-15
10
2.9444768050438723
20
-8.7868723606355754
30
2.7974123455122052e-15
10
2.9447212088423536
20
-8.7867694997670807
30
2.7974123455122052e-15
0
SPLINE
5
159
100
AcDbEntity
8
0
100
AcDbSpline
70
0
71
3
72
11
73
7
74
0
42
0.000000001
43
0.0000000001
44
0.0000000001
40
2.0525240827651907
40
2.0525240827651907
40
2.0525240827651907
40
2.0525240827651907
40
2.2982314540105997
40
2.2982314540105997
40
2.2982314540105997
40
3.1415926535897976
40
3.1415926535897976
40
3.1415926535897976
40
3.1415926535897976
10
-2.9447212058388872
20
-7.8867694997771496
30
-1.3987061727561026e-15
10
-2.9458421287893533
20
-7.8886564600116706
30
0
10
-2.9467290305189442
20
-7.891012112437215
30
-1.3987061727561026e-15
10
-2.947404473535395
20
-7.8937351992446141
30
0
10
-2.9497228510008897
20
-7.9030818694108582
30
0
10
-2.9497933265582725
20
-7.9170233527432154
30
-1.3987061727561026e-15
10
-2.949793326558273
20
-7.9310793727360434
30
-1.3987061727561026e-15
0
SPLINE
5
160
100
AcDbEntity
8
0
100
AcDbSpline
70
0
71
3
72
11
73
7
74
0
42
0.000000001
43
0.0000000001
44
0.0000000001
40
-1.0890547447977807
40
-1.0890547447977807
40
-1.0890547447977807
40
-1.0890547447977807
40
-0.12119390341428327
40
-0.12119390341428327
40
-0.12119390341428327
40
-2.3566464662740005e-15
40
-2.3566464662740005e-15
40
-2.3566464662740005e-15
40
-2.3566464662740005e-15
10
-2.9447212058390724
20
-7.88676949977721
30
-1.3987061727561026e-15
10
-2.9270963348287387
20
-7.8941871812963482
30
1.3987061727561026e-15
10
-2.9122861091978978
20
-7.909021355339517
30
1.3987061727561026e-15
10
-2.9095899844764257
20
-7.9250340471907137
30
1.3987061727561026e-15
10
-2.9092523802826036
20
-7.9270391294780014
30
1.3987061727561026e-15
10
-2.9090828352149005
20
-7.9290590205387712
30
1.3987061727561026e-15
10
-2.9090828352149005
20
-7.9310789189289848
30
1.3987061727561026e-15
0
LINE
5
161
100
AcDbEntity
8
0
100
AcDbLine
10
-2.90908283521774
20
-7.3253008424549115
30
0
11
-2.9090828352148956
21
-7.0310789189392411
31
-4.1955831533036272e-31
0
SPLINE
5
162
100
AcDbEntity
8
0
100
AcDbSpline
70
0
71
3
72
8
73
4
74
0
42
0.000000001
43
0.0000000001
44
0.0000000001
40
2.8547208340567987
40
2.8547208340567987
40
2.8547208340567987
40
2.8547208340567987
40
3.1415926325163563
40
3.1415926325163563
40
3.1415926325163563
40
3.1415926325163563
10
-2.9496444110739635
20
-7.3729497495025624
30
1.3987061727561026e-15
10
-2.9497561645788872
20
-7.3690333880840981
30
1.3987061727561026e-15
10
-2.9497933265520553
20
-7.3647619807140128
30
1.3987061727561026e-15
10
-2.9497933265584111
20
-7.3603170896886239
30
1.3987061727561026e-15
0
SPLINE
5
163
100
AcDbEntity
8
0
100
AcDbSpline
70
0
71
3
72
14
73
10
74
0
42
0.000000001
43
0.0000000001
44
0.0000000001
40
-1.1778663514721277
40
-1.1778663514721277
40
-1.1778663514721277
40
-1.1778663514721277
40
-1.1679414568302833
40
-1.1679414568302833
40
-1.1679414568302833
40
-0.12119388817451493
40
-0.12119388817451493
40
-0.12119388817451493
40
5.9154188839188555e-16
40
5.9154188839188555e-16
40
5.9154188839188555e-16
40
5.9154188839188555e-16
10
-2.9496444110740594
20
-7.3729497495027303
30
1.3987061727561026e-15
10
-2.9494602635132474
20
-7.3728520963113615
30
0
10
-2.9492759863732081
20
-7.3727539422846951
30
1.3987061727561026e-15
10
-2.9490918562486597
20
-7.3726554280255696
30
0
10
-2.9296722284195691
20
-7.3622654375079657
30
1.3987061727561026e-15
10
-2.9125058597789457
20
-7.3471412469541111
30
0
10
-2.9095899843519022
20
-7.3309380431463378
30
1.3987061727561026e-15
10
-2.9092523802427395
20
-7.3290620136917175
30
1.3987061727561026e-15
10
-2.9090828352177382
20
-7.3271786625539326
30
1.3987061727561026e-15
10
-2.9090828352177396
20
-7.3253008424549106
30
1.3987061727561026e-15
0
LINE
5
164
100
AcDbEntity
8
0
100
AcDbLine
10
-2.9497933265584106
20
-7.3603170896886221
30
1.3987061727561026e-15
11
-2.9497933265582663
21
-7.0310793727462997
31
0
0
LINE
5
165
100
AcDbEntity
8
0
100
AcDbLine
10
-2.9090828352153753
20
-10.672079689956441
30
1.3987061727561026e-15
11
-2.9090828352154894
21
-10.444476378520642
31
7.6491743822599355e-17
0
SPLINE
5
166
100
AcDbEntity
8
0
100
AcDbSpline
70
0
71
3
72
8
73
4
74
0
42
0.000000001
43
0.0000000001
44
0.0000000001
40
2.8547208340320811
40
2.8547208340320811
40
2.8547208340320811
40
2.8547208340320811
40
3.1415926535897913
40
3.1415926535897913
40
3.1415926535897913
40
3.1415926535897913
10
-2.9496444110738169
20
-10.719728597004741
30
0
10
-2.9497561645869963
20
-10.715812235298287
30
1.3987061727561026e-15
10
-2.9497933265583258
20
-10.711540827588198
30
1.3987061727561026e-15
10
-2.9497933265583254
20
-10.707095936210237
30
0
0
SPLINE
5
167
100
AcDbEntity
8
0
100
AcDbSpline
70
0
71
3
72
14
73
10
74
0
42
0.000000001
43
0.0000000001
44
0.0000000001
40
-1.177866351506466
40
-1.177866351506466
40
-1.177866351506466
40
-1.177866351506466
40
-1.1679414741911174
40
-1.1679414741911174
40
-1.1679414741911174
40
-0.12119390341500669
40
-0.12119390341500669
40
-0.12119390341500669
40
1.0284762377722546e-15
40
1.0284762377722546e-15
40
1.0284762377722546e-15
40
1.0284762377722546e-15
10
-2.9496444110739137
20
-10.719728597004909
30
0
10
-2.949460263834438
20
-10.719630943983951
30
0
10
-2.9492759870161609
20
-10.719532790129431
30
-1.3987061727561026e-15
10
-2.9490918572128457
20
-10.719434276043712
30
-1.3987061727561026e-15
10
-2.9296722293218451
20
-10.709044285655088
30
1.3987061727561026e-15
10
-2.9125058602743823
20
-10.693920095180621
30
2.7974123455122052e-15
10
-2.9095899844769026
20
-10.677716891355612
30
1.3987061727561026e-15
10
-2.9092523802830779
20
-10.675840861666881
30
1.3987061727561026e-15
10
-2.9090828352153744
20
-10.673957510291602
30
1.3987061727561026e-15
10
-2.9090828352153744
20
-10.672079689956439
30
0
0
LINE
5
168
100
AcDbEntity
8
0
100
AcDbLine
10
-2.9497933265583254
20
-10.707095936210235
30
-1.4523167913382149e-32
11
-2.9497933265583272
21
-10.444476832330363
31
1.0162474536431058e-15
0
ELLIPSE
5
169
100
AcDbEntity
8
0
100
AcDbEllipse
10
2.7833435885093936
20
-5.5882469334854461
30
0
11
-0.10000000000000003
21
3.7397042971292811e-15
31
0.0
40
0.92966079097266696
41
3.665191429188043
42
4.7123889803847288
0
LINE
5
170
100
AcDbEntity
8
0
100
AcDbLine
10
2.2500000015016988
20
-5.4952808543881728
30
-1.3987061727561026e-15
11
2.7833435885093936
21
-5.495280854388179
31
5.1606540761452918e-18
0
ELLIPSE
5
171
100
AcDbEntity
8
0
100
AcDbEllipse
10
2.9565486692662888
20
-5.4952808543881924
30
1.3987061727561026e-15
11
-0.1000000000000001
21
3.3267793025101098e-15
31
0.0
40
0.92966079097266752
41
0.52359877559826162
42
0.96977310670427674
0
LINE
5
172
100
AcDbEntity
8
0
100
AcDbLine
10
2.0000000015016783
20
-10.840830402481016
30
-1.3987061727561026e-15
11
2.0000000015016797
21
-10.521593566042041
31
-1.464270524604045e-15
0
LINE
5
173
100
AcDbEntity
8
0
100
AcDbLine
10
2.0000000015016846
20
-9.2105697052775692
30
1.3987061727561026e-15
11
2.0000000015016961
21
-6.2578140385315848
31
6.9935308637805131e-16
0
LINE
5
174
100
AcDbEntity
8
0
100
AcDbLine
10
2.0000000015016979
20
-5.771593327364041
30
0
11
2.0000000015016983
21
-5.7276960521313391
31
-3.5514023917635419e-17
0
ELLIPSE
5
175
100
AcDbEntity
8
0
100
AcDbEllipse
10
2.250000001501697
20
-5.7276960521313383
30
0
11
-0.25000000000000006
21
5.3574219281095964e-15
31
0.0
40
0.92966079097266807
41
4.7123889803847057
42
6.2831853071796111
0
ELLIPSE
5
176
100
AcDbEntity
8
0
100
AcDbEllipse
10
2.4500000015016794
20
-10.608415189903114
30
0
11
-0.10826771653543309
21
7.1733486192038088e-16
31
0.0
40
0.92966079097266796
41
1.5707963267948895
42
3.0499571622014341
0
ELLIPSE
5
177
100
AcDbEntity
8
0
100
AcDbEllipse
10
2.4500000015016794
20
-10.608415189903114
30
0
11
-0.10826771653543309
21
7.1733486192038088e-16
31
0.0
40
0.92966079097266796
41
0.091635491388345147
42
1.5707963267948895
0
LINE
5
178
100
AcDbEntity
8
0
100
AcDbLine
10
2.9500000015016923
20
-5.5896779034861614
30
1.3987061727561026e-15
11
2.9500000015016923
21
-5.5680667591654034
31
7.3896488228618309e-16
0
LINE
5
179
100
AcDbEntity
8
0
100
AcDbLine
10
3.0000000015016925
20
-5.5680667591654034
30
0
11
3.0000000015016925
21
-5.5896779034861597
31
-3.1826029126188662e-16
0
LINE
5
180
100
AcDbEntity
8
0
100
AcDbLine
10
2.9500000015016923
20
-5.5896779034861614
30
1.3987061727561026e-15
11
2.9500000015016914
21
-5.5915162743974633
31
2.7156276462018814e-16
0
LINE
5
181
100
AcDbEntity
8
0
100
AcDbLine
10
2.9500000015016887
20
-11.032562061643626
30
-1.3987061727561026e-15
11
2.9500000015016887
21
-11.003958922229039
31
3.6879947914467549e-16
0
LINE
5
182
100
AcDbEntity
8
0
100
AcDbLine
10
3.000000001501689
20
-11.003958922229037
30
1.3987061727561026e-15
11
3.000000001501689
21
-11.032562061643622
31
1.4751979165787019e-16
0
ELLIPSE
5
183
100
AcDbEntity
8
0
100
AcDbEllipse
10
2.7685787134361663
20
-10.99870035265864
30
0
11
-0.10000000000000002
21
3.3024359338443271e-15
31
0.0
40
0.92966079097266618
41
1.570796326794925
42
2.7929865939441685
0
LINE
5
184
100
AcDbEntity
8
0
100
AcDbLine
10
2.7685787134361663
20
-11.091666431755907
30
-3.6969325053046174e-32
11
2.250000001501677
21
-11.091666431755909
31
-9.7422973234555889e-16
0
LINE
5
185
100
AcDbEntity
8
0
100
AcDbLine
10
2.0000000015016797
20
-10.521593566042041
30
-1.464270524604045e-15
11
-1.9999999984983454
21
-10.521593566042027
31
1.2818047229512967e-15
0
ELLIPSE
5
186
100
AcDbEntity
8
0
100
AcDbEllipse
10
-2.7685787104328106
20
-10.998700352658611
30
0
11
-0.10000000000000002
21
-5.5123123470556084e-15
31
0.0
40
0.92966079097266696
41
0.34860605964533337
42
1.5707963267948362
0
ELLIPSE
5
187
100
AcDbEntity
8
0
100
AcDbEllipse
10
-2.9565486662629605
20
-11.062212555117945
30
1.3987061727561026e-15
11
-0.10000000000000059
21
-6.2950582120122159e-15
31
0.0
40
0.92966079097266763
41
3.4901987132351118
42
4.1113657602937437
0
LINE
5
188
100
AcDbEntity
8
0
100
AcDbLine
10
-2.7685787104328119
20
-11.091666431755877
30
5.1606540761453843e-18
11
-2.2499999984983532
21
-11.091666431755884
31
1.1214434058325085e-15
0
ELLIPSE
5
189
100
AcDbEntity
8
0
100
AcDbEllipse
10
-2.2499999984983465
20
-10.859251234012717
30
1.3987061727561026e-15
11
-0.25000000000000033
21
-1.4731508353207141e-14
31
0.0
40
0.92966079097266829
41
1.5707963267948166
42
3.1415926535897363
0
ELLIPSE
5
190
100
AcDbEntity
8
0
100
AcDbEllipse
10
-2.4499999984983485
20
-10.626836021434816
30
0
11
-0.10826771653543311
21
-1.6380537801411375e-16
31
0.0
40
0.92966079097266818
41
3.2332281449782241
42
6.1915498157912987
0
LINE
5
191
100
AcDbEntity
8
0
100
AcDbLine
10
-2.9999999984983696
20
-11.032562061643585
30
1.3987061727561026e-15
11
-2.9999999984983696
21
-11.003958922228966
31
9.8346527771913456e-16
0
LINE
5
192
100
AcDbEntity
8
0
100
AcDbLine
10
-2.9499999984983676
20
-11.00395892222897
30
0
11
-2.9499999984983676
21
-11.032562061643588
31
4.1524089503696795e-16
0
LINE
5
193
100
AcDbEntity
8
0
100
AcDbLine
10
-2.9999999984983114
20
-5.5896779034861206
30
1.3987061727561026e-15
11
-2.9999999984983114
21
-5.5680667591653812
31
6.7066868244457656e-16
0
LINE
5
194
100
AcDbEntity
8
0
100
AcDbLine
10
-2.9999999984983114
20
-5.5896779034861206
30
1.3987061727561026e-15
11
-2.9999999984983123
21
-5.6087969818722883
31
2.3767077544879089e-16
0
LINE
5
195
100
AcDbEntity
8
0
100
AcDbLine
10
-2.9999999984983696
20
-11.003958922228966
30
9.8346527771913456e-16
11
-2.9999999984983123
21
-5.6087969818722883
31
2.3767077544879089e-16
0
LINE
5
196
100
AcDbEntity
8
0
100
AcDbLine
10
-2.9499999984983103
20
-5.5680667591653821
30
-1.3987061727561026e-15
11
-2.9499999984983103
21
-5.5896779034861215
31
-6.0647025459346638e-16
0
ELLIPSE
5
197
100
AcDbEntity
8
0
100
AcDbEllipse
10
-2.7833435855060809
20
-5.5882469334854141
30
1.3987061727561026e-15
11
-0.10000000000000003
21
-6.3168854350949229e-15
31
0.0
40
0.92966079097266685
41
4.7123889803846186
42
5.7595865315809984
0
ELLIPSE
5
198
100
AcDbEntity
8
0
100
AcDbEllipse
10
-2.9565486662629454
20
-5.4952808543881124
30
0
11
0.10000000000000059
21
6.2950582120122159e-15
31
0.0
40
0.92966079097266763
41
5.3134122004758062
42
5.7595865315809993
0
SPLINE
5
199
100
AcDbEntity
8
0
100
AcDbSpline
70
0
71
3
72
8
73
4
74
0
42
0.000000001
43
0.0000000001
44
0.0000000001
40
1.0471975511926164
40
1.0471975511926164
40
1.0471975511926164
40
1.0471975511926164
40
1.3370093940356442
40
1.3370093940356442
40
1.3370093940356442
40
1.3370093940356442
10
2.9090828382188052
20
-10.444476378522168
30
-1.3987061727561026e-15
10
2.9206819884578419
20
-10.439634694538713
30
-1.3987061727561026e-15
10
2.9330741561803086
20
-10.436032034646196
30
0
10
2.9447210268797588
20
-10.433799359341579
30
1.3987061727561026e-15
0
SPLINE
5
200
100
AcDbEntity
8
0
100
AcDbSpline
70
0
71
3
72
8
73
4
74
0
42
0.000000001
43
0.0000000001
44
0.0000000001
40
-2.0943951023895253
40
-2.0943951023895253
40
-2.0943951023895253
40
-2.0943951023895253
40
-1.8045694334548597
40
-1.8045694334548597
40
-1.8045694334548597
40
-1.8045694334548597
10
2.949793329561659
20
-10.444476832328856
30
1.3987061727561026e-15
10
2.9492656443541496
20
-10.439646714098036
30
1.3987061727561026e-15
10
2.9476372816302119
20
-10.436035369479466
30
2.7974123455122052e-15
10
2.944721026879749
20
-10.433799359341577
30
1.3987061727561026e-15
0
SPLINE
5
201
100
AcDbEntity
8
0
100
AcDbSpline
70
0
71
3
72
8
73
4
74
0
42
0.000000001
43
0.0000000001
44
0.0000000001
40
-1.3370232201509435
40
-1.3370232201509435
40
-1.3370232201509435
40
-1.3370232201509435
40
-1.0471975511691776
40
-1.0471975511691776
40
-1.0471975511691776
40
-1.0471975511691776
10
-2.9447210238751413
20
-10.433799359341158
30
0
10
-2.9476293916010459
20
-10.436029322178804
30
1.3987061727561026e-15
10
-2.9492648086627811
20
-10.43963909216537
30
0
10
-2.9497933265583267
20
-10.444476832330363
30
1.3987061727561026e-15
0
SPLINE
5
202
100
AcDbEntity
8
0
100
AcDbSpline
70
0
71
3
72
8
73
4
74
0
42
0.000000001
43
0.0000000001
44
0.0000000001
40
1.804583259538679
40
1.804583259538679
40
1.804583259538679
40
1.804583259538679
40
2.0943951023678213
40
2.0943951023678213
40
2.0943951023678213
40
2.0943951023678213
10
-2.9447210238751422
20
-10.43379935934116
30
0
10
-2.9330953600232395
20
-10.43602796934721
30
1.3987061727561026e-15
10
-2.9206827468146837
20
-10.439634376732743
30
1.3987061727561026e-15
10
-2.9090828352154907
20
-10.444476378520642
30
1.3987061727561026e-15
0
SPLINE
5
203
100
AcDbEntity
8
0
100
AcDbSpline
70
0
71
3
72
11
73
7
74
0
42
0.000000001
43
0.0000000001
44
0.0000000001
40
-2.5491295973136259
40
-2.5491295973136259
40
-2.5491295973136259
40
-2.5491295973136259
40
-1.8496259035503424
40
-1.8496259035503424
40
-1.8496259035503424
40
-1.347083157137849
40
-1.347083157137849
40
-1.347083157137849
40
-1.347083157137849
10
-2.9499999984986025
20
-11.003958922228515
30
-1.3987061727561026e-15
10
-2.9499999984984338
20
-10.986780959142472
30
-1.3987061727561026e-15
10
-2.9430523530904065
20
-10.974896286215033
30
-1.3987061727561026e-15
10
-2.9302131538344911
20
-10.97344031510996
30
0
10
-2.920989118974727
20
-10.972394305311347
30
1.3987061727561026e-15
10
-2.909594347195176
20
-10.976731685855221
30
0
10
-2.8999999984980649
20
-10.985538090696593
30
1.3987061727561026e-15
0
SPLINE
5
204
100
AcDbEntity
8
0
100
AcDbSpline
70
0
71
3
72
8
73
4
74
0
42
0.000000001
43
0.0000000001
44
0.0000000001
40
-1.00385625730642
40
-1.00385625730642
40
-1.00385625730642
40
-1.00385625730642
40
-0.59246305628296325
40
-0.59246305628296325
40
-0.59246305628296325
40
-0.59246305628296325
10
-2.9499999984983072
20
-5.5915162743975078
30
0
10
-2.933899594300494
20
-5.5857031594014126
30
0
10
-2.9157083132650246
20
-5.5791644469936141
30
1.3987061727561026e-15
10
-2.8999999984981506
20
-5.571955318808901
30
1.3987061727561026e-15
0
ELLIPSE
5
205
100
AcDbEntity
8
0
100
AcDbEllipse
10
2.9565486692662932
20
-11.062212555118023
30
2.7974123455122052e-15
11
0.099999999999999867
21
-3.2268425894968461e-15
31
0.0
40
0.92966079097266729
41
2.1718195468858967
42
2.7929865939441623
0
SPLINE
5
206
100
AcDbEntity
8
0
100
AcDbSpline
70
0
71
3
72
8
73
4
74
0
42
0.000000001
43
0.0000000001
44
0.0000000001
40
-2.5491295973118775
40
-2.5491295973118775
40
-2.5491295973118775
40
-2.5491295973118775
40
-2.1377363962883078
40
-2.1377363962883078
40
-2.1377363962883078
40
-2.1377363962883078
10
2.9000000015017209
20
-5.5719553188088815
30
0
10
2.9157083162685224
20
-5.5791644469936594
30
-1.3987061727561026e-15
10
2.9338984357127154
20
-5.5857027400043924
30
0
10
2.9500000015016998
20
-5.5915162743976765
30
0
0
SPLINE
5
207
100
AcDbEntity
8
0
100
AcDbSpline
70
0
71
3
72
11
73
7
74
0
42
0.000000001
43
0.0000000001
44
0.0000000001
40
-1.7945094964564781
40
-1.7945094964564781
40
-1.7945094964564781
40
-1.7945094964564781
40
-1.0950058026929343
40
-1.0950058026929343
40
-1.0950058026929343
40
-0.59246305627625617
40
-0.59246305627625617
40
-0.59246305627625617
40
-0.59246305627625617
10
2.900000001501585
20
-10.985538090697096
30
-1.3987061727561026e-15
10
2.9133546512318889
20
-10.973280202668025
30
0
10
2.9301022937951329
20
-10.970125267896806
30
-1.3987061727561026e-15
10
2.9398392440222989
20
-10.976986725716921
30
1.3987061727561026e-15
10
2.9468345376176122
20
-10.981916186258854
30
1.3987061727561026e-15
10
2.9500000015017385
20
-10.991617799767253
30
1.3987061727561026e-15
10
2.9500000015017727
20
-11.003958922228886
30
1.3987061727561026e-15
0
LINE
5
208
100
AcDbEntity
8
0
100
AcDbLine
10
3.0000000015016925
20
-5.6087969818723336
30
0
11
3.0000000015016925
21
-5.5896779034861597
31
-3.1826029126188662e-16
0
LINE
5
209
100
AcDbEntity
8
0
100
AcDbLine
10
-2.9499999984983072
20
-5.5915162743975078
30
0
11
-2.9499999984983103
21
-5.5896779034861215
31
-6.0647025459346638e-16
0
LINE
5
210
100
AcDbEntity
8
0
100
AcDbLine
10
-2.2499999984983092
20
-5.4952808543881471
30
-1.3987061727561026e-15
11
-2.7833435855060804
21
-5.4952808543881471
31
1.4038668268322484e-15
0
ELLIPSE
5
211
100
AcDbEntity
8
0
100
AcDbEllipse
10
-2.2499999984983119
20
-5.7276960521313107
30
0
11
-0.25000000000000022
21
-1.4619856092210547e-14
31
0.0
40
0.92966079097266829
41
3.141592653589715
42
4.7123889803846239
0
LINE
5
212
100
AcDbEntity
8
0
100
AcDbLine
10
-1.9999999984983503
20
-10.840830402480988
30
0
11
-1.9999999984983454
21
-10.521593566042027
31
1.2818047229512967e-15
0
LINE
5
213
100
AcDbEntity
8
0
100
AcDbLine
10
-1.9999999984983383
20
-9.2105697052775639
30
0
11
-1.9999999984983168
21
-6.2578140385315528
31
-1.7483827159451283e-16
0
LINE
5
214
100
AcDbEntity
8
0
100
AcDbLine
10
-1.999999998498313
20
-5.7715933273640259
30
1.3987061727561026e-15
11
-1.9999999984983119
21
-5.7276960521313143
31
5.8863737954979793e-18
0
ELLIPSE
5
215
100
AcDbEntity
8
0
100
AcDbEllipse
10
-2.4499999984983494
20
-10.60841518990309
30
0
11
0.10826771653543311
21
1.6491248207066839e-16
31
0.0
40
0.92966079097266818
41
3.2332281449782094
42
4.7123889803846968
0
ELLIPSE
5
216
100
AcDbEntity
8
0
100
AcDbEllipse
10
-2.4499999984983494
20
-10.60841518990309
30
0
11
0.10826771653543311
21
1.6491248207066839e-16
31
0.0
40
0.92966079097266818
41
4.7123889803846968
42
6.191549815791312
0
ELLIPSE
5
217
100
AcDbEntity
8
0
100
AcDbEllipse
10
2.2500000015016774
20
-10.859251234012742
30
1.3987061727561026e-15
11
-0.25000000000000011
21
5.5724864131687081e-15
31
0.0
40
0.92966079097266807
41
2.8421709430404007e-14
42
1.5707963267949161
0
ELLIPSE
5
218
100
AcDbEntity
8
0
100
AcDbEllipse
10
2.450000001501679
20
-10.626836021434841
30
1.3987061727561026e-15
11
0.10826771653543309
21
-7.1622775786382641e-16
31
0.0
40
0.92966079097266818
41
0.091635491388330353
42
3.0499571622014474
0
LINE
5
219
100
AcDbEntity
8
0
100
AcDbLine
10
2.0000000015016979
20
-5.771593327364041
30
0
11
-1.999999998498313
21
-5.7715933273640259
31
1.3987061727561026e-15
0
ARC
5
220
100
AcDbEntity
8
0
100
AcDbCircle
10
1.6194881904780922
20
-9.3286801802288366
30
0
40
0.06299212598425237
210
1.7077794822500369e-30
220
-5.5511151231257827e-17
230
1
100
AcDbArc
50
0
51
180
0
ARC
5
221
100
AcDbEntity
8
0
100
AcDbCircle
10
-1.5694881874746802
20
-9.3286801802288384
30
-1.3987061727561026e-15
40
0.062992125984252023
210
-2.4651903288156598e-30
220
-5.5511151231257827e-17
230
1
100
AcDbArc
50
0
51
180
0
ARC
5
222
100
AcDbEntity
8
0
100
AcDbCircle
10
1.619488190478106
20
-6.1397038023124573
30
0
40
0.06299212598425237
210
1.1161338033342797e-30
220
-5.5511151231257827e-17
230
1
100
AcDbArc
50
0
51
180
0
LINE
5
223
100
AcDbEntity
8
0
100
AcDbLine
10
-1.9999999984983383
20
-9.2105697052775639
30
0
11
-1.5694881874746791
21
-9.2105699440097144
31
2.3309830506431422e-15
0
LINE
5
224
100
AcDbEntity
8
0
100
AcDbLine
10
-1.4513779512542069
20
-9.3286801802288384
30
-1.3987061727561026e-15
11
-1.4513779512542071
21
-10.271593566044869
31
-1.0053200616684488e-15
0
LINE
5
225
100
AcDbEntity
8
0
100
AcDbLine
10
-1.4513779512542071
20
-10.271593566044869
30
-1.0053200616684488e-15
11
1.5013779542576227
21
-10.271593566044881
31
1.478642621836132e-15
0
LINE
5
226
100
AcDbEntity
8
0
100
AcDbLine
10
1.5013779542576227
20
-10.271593566044881
30
1.478642621836132e-15
11
1.5013779542576267
21
-9.3286801802288384
31
2.6225740739176924e-16
0
LINE
5
227
100
AcDbEntity
8
0
100
AcDbLine
10
1.6194881904780905
20
-9.2105699440097126
30
1.3987061727561026e-15
11
2.0000000015016846
21
-9.2105697052775692
31
1.3987061727561026e-15
0
LINE
5
228
100
AcDbEntity
8
0
100
AcDbLine
10
2.0000000015016961
20
-6.2578140385315848
30
6.9935308637805131e-16
11
1.6194881904781029
21
-6.257814038531583
31
7.9915554049348877e-16
0
ARC
5
229
100
AcDbEntity
8
0
100
AcDbCircle
10
1.619488190478106
20
-6.1397038023124573
30
0
40
0.11811023622047306
210
1.1842378929334939e-14
220
-5.5511151231466666e-17
230
1
100
AcDbArc
50
180
51
269.99999999999847
0
LINE
5
230
100
AcDbEntity
8
0
100
AcDbLine
10
1.5013779542576331
20
-6.1397038023124555
30
1.3987061727561026e-15
11
1.5013779542576344
21
-6.0215935660933173
31
1.3222144289335033e-15
0
LINE
5
231
100
AcDbEntity
8
0
100
AcDbLine
10
1.5013779542576344
20
-6.0215935660933173
30
1.3222144289335033e-15
11
-1.4513779512541931
21
-6.0215935660933049
31
-7.9936449079944941e-17
0
LINE
5
232
100
AcDbEntity
8
0
100
AcDbLine
10
-1.4513779512541931
20
-6.0215935660933049
30
-7.9936449079944941e-17
11
-1.4513779512541927
21
-6.1397038023124297
31
-7.157441743400369e-16
0
ARC
5
233
100
AcDbEntity
8
0
100
AcDbCircle
10
-1.5694881874746631
20
-6.1397038023124306
30
-4.7617480514771023e-32
40
0.11811023621912436
210
2.1078214737184859e-30
220
-5.5511151231258111e-17
230
1
100
AcDbArc
50
-90.000000000000966
51
0
0
LINE
5
234
100
AcDbEntity
8
0
100
AcDbLine
10
-1.5694881874746651
20
-6.2578140385315555
30
-6.5564351847194792e-18
11
-1.9999999984983168
21
-6.2578140385315528
31
-1.7483827159451283e-16
0
ARC
5
235
100
AcDbEntity
8
0
100
AcDbCircle
10
-1.5694881874746631
20
-6.1397038023124306
30
-4.7617480514771023e-32
40
0.062992125984248346
210
2.2204460492504406e-14
220
-5.5511151230271751e-17
230
1
100
AcDbArc
50
0
51
180
0
LINE
5
236
100
AcDbEntity
8
0
100
AcDbLine
10
-1.9999999984983503
20
-10.840830402480988
30
0
11
-1.9999999984983465
21
-10.859251234012715
31
1.4194539562147873e-15
0
LINE
5
237
100
AcDbEntity
8
0
100
AcDbLine
10
2.000000001501677
20
-10.859251234012742
30
1.3961592446222691e-15
11
2.0000000015016783
21
-10.840830402481016
31
-1.3987061727561026e-15
0
LINE
5
238
100
AcDbEntity
8
0
100
AcDbLine
10
3.000000001501689
20
-11.003958922229037
30
1.3987061727561026e-15
11
3.0000000015016925
21
-5.6087969818723336
31
0
0
LINE
5
239
100
AcDbEntity
8
0
100
AcDbLine
10
3.0000000015016925
20
-5.5680667591654034
30
0
11
2.9500000015016923
21
-5.5680667591654034
31
7.3896488228618309e-16
0
LINE
5
240
100
AcDbEntity
8
0
100
AcDbLine
10
3.000000001501689
20
-11.032562061643622
30
1.4751979165787019e-16
11
2.9720000015016748
21
-11.032562061643622
31
-3.1356459978529131e-16
0
LINE
5
241
100
AcDbEntity
8
0
100
AcDbLine
10
2.9720000015016748
20
-11.032562061643622
30
-3.1356459978529131e-16
11
2.9500000015016887
21
-11.032562061643626
31
-1.3987061727561026e-15
0
LINE
5
242
100
AcDbEntity
8
0
100
AcDbLine
10
-2.971999998498347
20
-11.032562061643585
30
1.3987061727561026e-15
11
-2.9999999984983696
21
-11.032562061643585
31
1.3987061727561026e-15
0
LINE
5
243
100
AcDbEntity
8
0
100
AcDbLine
10
-2.9499999984983676
20
-11.032562061643588
30
4.1524089503696795e-16
11
-2.971999998498347
21
-11.032562061643585
31
1.3987061727561026e-15
0
LINE
5
244
100
AcDbEntity
8
0
100
AcDbLine
10
-2.9499999984983103
20
-5.5680667591653821
30
-1.3987061727561026e-15
11
-2.9999999984983114
21
-5.5680667591653812
31
6.7066868244457656e-16
0
CIRCLE
5
245
100
AcDbEntity
8
0
100
AcDbCircle
10
-1.6374015733014435
20
-7.8334738190143183
30
0
40
0.01968503937007874
210
3.155443620912254e-30
220
-5.5511151231257827e-17
230
1
0
CIRCLE
5
246
100
AcDbEntity
8
0
100
AcDbCircle
10
-1.637401573301444
20
-7.7334738190143195
30
0
40
0.01968503937007874
210
3.155443620912254e-30
220
-5.5511151231257827e-17
230
1
0
CIRCLE
5
247
100
AcDbEntity
8
0
100
AcDbCircle
10
-1.637401573301444
20
-7.6334738190143172
30
0
40
0.01968503937007874
210
3.155443620912254e-30
220
-5.5511151231257827e-17
230
1
0
CIRCLE
5
248
100
AcDbEntity
8
0
100
AcDbCircle
10
-1.637401573301444
20
-6.5334738190145547
30
0
40
0.01968503937007874
210
3.155443620912254e-30
220
-5.5511151231257827e-17
230
1
0
CIRCLE
5
249
100
AcDbEntity
8
0
100
AcDbCircle
10
-1.6374015733014435
20
-7.0334738190145547
30
1.3987061727561026e-15
40
0.01968503937007874
210
3.155443620912254e-30
220
-5.5511151231257827e-17
230
1
0
CIRCLE
5
250
100
AcDbEntity
8
0
100
AcDbCircle
10
-1.637401573301444
20
-6.8334738190145554
30
0
40
0.01968503937007874
210
3.155443620912254e-30
220
-5.5511151231257827e-17
230
1
0
CIRCLE
5
251
100
AcDbEntity
8
0
100
AcDbCircle
10
-1.637401573301444
20
-7.3334738190145554
30
0
40
0.01968503937007874
210
3.155443620912254e-30
220
-5.5511151231257827e-17
230
1
0
CIRCLE
5
252
100
AcDbEntity
8
0
100
AcDbCircle
10
-1.637401573301444
20
-7.4334738190145542
30
1.3987061727561026e-15
40
0.01968503937007874
210
3.155443620912254e-30
220
-5.5511151231257827e-17
230
1
0
CIRCLE
5
253
100
AcDbEntity
8
0
100
AcDbCircle
10
-1.637401573301444
20
-7.2334738190145558
30
1.3987061727561026e-15
40
0.01968503937007874
210
3.155443620912254e-30
220
-5.5511151231257827e-17
230
1
0
CIRCLE
5
254
100
AcDbEntity
8
0
100
AcDbCircle
10
-1.6374015733014435
20
-7.5334738190145547
30
1.3987061727561026e-15
40
0.01968503937007874
210
3.155443620912254e-30
220
-5.5511151231257827e-17
230
1
0
CIRCLE
5
255
100
AcDbEntity
8
0
100
AcDbCircle
10
-1.637401573301444
20
-7.1334738190145552
30
0
40
0.01968503937007874
210
3.155443620912254e-30
220
-5.5511151231257827e-17
230
1
0
CIRCLE
5
256
100
AcDbEntity
8
0
100
AcDbCircle
10
-1.637401573301444
20
-6.6334738190145162
30
0
40
0.01968503937007874
210
3.155443620912254e-30
220
-5.5511151231257827e-17
230
1
0
CIRCLE
5
257
100
AcDbEntity
8
0
100
AcDbCircle
10
-1.6374015733014435
20
-6.7334738190145549
30
0
40
0.01968503937007874
210
3.155443620912254e-30
220
-5.5511151231257827e-17
230
1
0
CIRCLE
5
258
100
AcDbEntity
8
0
100
AcDbCircle
10
-1.637401573301444
20
-6.9334738190145559
30
1.3987061727561026e-15
40
0.01968503937007874
210
3.155443620912254e-30
220
-5.5511151231257827e-17
230
1
0
LWPOLYLINE
5
259
100
AcDbEntity
8
0
100
AcDbPolyline
90
4
70
1
43
0.0
10
1.3389763794544611
20
-8.0009240356754496
10
1.3389763794544614
20
-6.3198216734707255
10
-1.6964566914116805
20
-6.3198216734707255
10
-1.6964566914116799
20
-8.0009240356754514
0
CIRCLE
5
260
100
AcDbEntity
8
0
100
AcDbCircle
10
-1.4248031481045935
20
-6.4399004136282061
30
1.3987061727561026e-15
40
0.059055118110236227
210
3.155443620912254e-30
220
-5.5511151231257827e-17
230
1
0
CIRCLE
5
261
100
AcDbEntity
8
0
100
AcDbCircle
10
-1.4248031481045937
20
-7.8808452955179691
30
1.3987061727561026e-15
40
0.059055118110236227
210
3.155443620912254e-30
220
-5.5511151231257827e-17
230
1
0
CIRCLE
5
262
100
AcDbEntity
8
0
100
AcDbCircle
10
1.2326771668560361
20
-7.8808452955179691
30
1.3987061727561026e-15
40
0.059055118110236227
210
3.155443620912254e-30
220
-5.5511151231257827e-17
230
1
0
CIRCLE
5
263
100
AcDbEntity
8
0
100
AcDbCircle
10
1.2326771668560363
20
-6.4399004136282061
30
1.3987061727561026e-15
40
0.059055118110236227
210
3.155443620912254e-30
220
-5.5511151231257827e-17
230
1
0
LWPOLYLINE
5
264
100
AcDbEntity
8
0
100
AcDbPolyline
90
4
70
1
43
0.0
10
3.0000000015016925
20
-5.7715933273640445
10
-2.9999999984983647
20
-5.7715933273640445
10
-2.9999999984983647
20
-10.521593566042027
10
3.0000000015016925
20
-10.521593566042027
0
LWPOLYLINE
5
265
100
AcDbEntity
8
0
100
AcDbPolyline
90
4
70
1
43
0.0
10
1.0673228361473748
20
-7.9910815155915822
10
-1.3066929118841211
20
-7.9910815155915822
10
-1.3066929118841211
20
-6.3296641927569377
10
1.0673228361473748
20
-6.3296641927569377
0
ENDSEC
0
SECTION
2
OBJECTS
0
DICTIONARY
5
C
100
AcDbDictionary
3
ACAD_GROUP
350
D
3
ACAD_MLINESTYLE
350
17
0
DICTIONARY
5
D
100
AcDbDictionary
0
DICTIONARY
5
1A
330
C
100
AcDbDictionary
0
DICTIONARY
5
17
100
AcDbDictionary
0
ENDSEC
0
EOF
